<svg width="107" height="70" viewBox="0 0 107 70" fill="none" xmlns="http://www.w3.org/2000/svg">
<g clip-path="url(#clip0_121_2013)">
<rect width="106.63" height="70" fill="white"/>
<path d="M0.00549556 39.7743C0.0283001 39.4794 0.170195 39.0803 0.182864 38.7625C0.187932 38.6303 0.109383 38.5083 0.129653 38.3736C0.73524 38.6888 1.17106 39.3726 1.3763 40.0184C1.67783 40.9615 1.40671 42.1589 2.19473 42.8834C2.07817 42.2911 1.95908 41.686 1.8932 41.0861C1.85266 40.7251 1.8932 39.8887 1.81972 39.637C1.78932 39.5303 1.45992 39.2659 1.35603 39.1261C0.763112 38.3176 0.631353 36.8126 0.877135 35.8644C1.03677 35.2467 1.38644 34.5018 1.83239 34.0493C1.878 34.2857 1.71837 34.6899 1.95401 34.8424C1.94388 34.5526 2.02496 34.2654 2.10604 33.9883C2.28848 33.3654 2.54186 32.3638 2.92954 31.8884C3.18039 31.5808 3.51486 31.3444 3.83919 31.1257C3.65168 31.9723 4.01656 32.707 3.81132 33.5663C3.7201 33.945 3.47432 34.3391 3.27921 34.6797C3.11705 34.9619 2.30622 36.0322 2.26821 36.1695C2.22514 36.3195 2.32649 36.5178 2.32142 36.7008C2.30875 37.1787 2.03763 37.7126 2.01736 38.1981C2.48105 37.7177 2.47345 36.9881 2.68376 36.3983C3.00556 35.4882 3.69223 34.6925 4.54106 34.2374C4.62468 35.628 4.18632 37.166 3.07904 38.0736L2.62548 38.3786C2.74964 38.371 2.85606 38.3786 2.97515 38.4244C3.25387 38.5388 3.19559 38.9659 3.46671 38.582C3.60354 38.3888 3.67449 38.0939 3.81385 37.8956C4.09764 37.5016 4.56386 37.3338 4.96674 37.0999C5.03262 37.0796 4.77417 37.7075 4.75897 37.8066C4.66775 38.4193 4.76657 38.9837 4.54106 39.5989C4.2522 40.387 3.63902 40.809 2.88647 41.109C2.74457 41.1649 2.30115 41.2462 2.26061 41.2742C2.09338 41.3911 2.34676 42.3648 2.38477 42.586C2.68376 42.3623 2.35436 41.9886 2.40757 41.7318C2.53426 41.1064 3.34002 40.9819 3.51232 41.5488C3.5554 41.6886 3.48445 41.9225 3.59847 41.9784C3.78344 41.1801 4.05963 40.2675 4.87553 39.9065C4.52332 40.4861 4.84005 41.0352 4.87806 41.6403C4.89073 41.8386 4.89073 42.1157 4.87553 42.3114C4.85272 42.5656 4.66775 43.0232 4.69309 43.2215C4.71843 43.4097 5.19479 43.9003 5.32655 44.1138C6.11457 45.4053 5.83332 47.2484 5.00475 48.4559L6.36035 50.2685L6.69989 50.2939C6.37302 49.9584 6.37302 49.455 6.2438 49.0457C6.15005 48.7432 5.96001 48.5246 5.91693 48.1559C5.89666 47.9932 5.9296 46.5493 6.06136 46.5467C6.27927 46.9484 6.75817 47.1136 7.06729 47.4289C7.71849 48.0924 8.09096 49.4143 8.03775 50.327L8.65347 50.2914C8.84605 49.2008 8.0859 48.0746 9.70755 47.9475C11.1848 47.8305 12.548 48.2093 14.0581 47.9221C15.3301 47.6805 16.5286 47.228 17.8538 47.1543C19.8809 47.0425 21.1656 47.5687 23.0533 47.9221C24.5812 48.2068 25.9849 47.8051 27.4621 47.95C29.0331 48.1051 28.2299 49.277 28.463 50.299L28.7113 50.3244C28.5973 50.1465 28.5542 49.9711 28.6024 49.7601C28.653 49.5338 28.9875 49.4525 28.9546 49.3203C28.6201 49.122 28.4731 48.8728 28.686 48.5017C28.7975 48.3085 29.1218 48.2576 29.0508 48.0085C28.9926 47.8026 28.724 47.7416 28.9014 47.439C29.0052 47.2611 29.1801 47.2713 29.2586 47.1874C29.3448 47.0958 29.322 46.9204 29.4107 46.7908C29.6564 46.44 30.1632 46.6408 30.2646 47.0297C30.3203 47.2382 30.1987 47.406 30.4723 47.4619C30.4673 47.2357 30.784 47.1441 30.5559 46.9814C30.4521 46.9077 30.262 46.8976 30.2088 46.7755C30.034 46.3713 30.3963 46.2162 30.3532 45.9697C29.6235 45.718 30.1429 45.3671 30.2164 45.0417C30.2823 44.7468 30.1404 44.4342 30.5103 44.2384C31.1311 43.913 31.1159 44.6096 31.2756 44.7646C31.3288 44.818 31.5011 44.8257 31.5974 44.8994C32.0306 45.2222 31.5239 45.6061 31.5923 45.7561L32.0813 45.9976C32.1295 45.8756 32.0306 45.7536 32.0433 45.601C32.0686 45.2833 32.5323 45.029 32.8389 45.0824L32.7756 44.7799C32.1295 44.874 32.1193 44.4342 32.2055 43.9206C32.1168 43.8062 31.7874 43.9588 31.6632 43.5469C31.5568 43.1961 31.7849 43.1885 31.8051 42.8885C31.5492 42.8605 31.3136 42.7182 31.3161 42.4309C31.3161 42.2275 31.4732 42.1487 31.4884 42.0547C31.5213 41.8538 31.2375 41.7267 31.5315 41.3606C31.9191 40.8751 32.0585 41.4267 32.2333 41.5157C32.3296 41.564 32.4513 41.531 32.5703 41.6047C32.7959 41.7394 32.8035 42.0597 32.7452 42.2809C33.295 42.3801 33.5307 42.6012 33.2722 43.158C33.3052 43.2876 33.7004 43.2012 33.7511 43.6562C33.779 43.9156 33.67 43.9893 33.5712 44.1952C34.0704 44.4825 33.8119 44.7367 33.5864 45.1129C33.817 45.4765 33.9006 45.0468 34.007 44.818C34.268 44.246 34.4226 43.6181 34.5999 43.0182C34.4352 42.9775 34.3668 42.8224 34.2148 42.7614C33.7435 42.5733 33.4014 42.8427 33.4242 42.0318C32.9149 41.9987 32.4665 41.6199 32.9023 41.1522C32.9023 41.0352 32.1371 41.0708 32.2384 40.3641C32.2638 40.1938 32.4082 40.0743 32.4183 39.904C32.1852 39.8785 31.9876 39.6853 31.9901 39.4464C31.9926 39.2074 32.2029 39.1006 32.2283 38.9456C32.2561 38.7701 32.0484 38.6227 32.1447 38.2566C32.317 37.6058 33.143 37.7482 33.2595 38.3075C33.2824 38.4117 33.2089 38.5668 33.2646 38.6456C33.328 38.7345 33.6472 38.6888 33.6371 38.9278L33.8525 38.5058C34.3744 37.7914 35.3778 38.7066 34.9293 39.3854L35.094 39.5379L35.1295 38.3176C34.9699 38.31 34.7976 38.0736 34.7342 38.0482C34.6709 38.0227 34.5189 38.0914 34.4023 38.0761C34.0653 38.0304 34.1109 37.8092 34.1236 37.5295C33.5433 37.6109 33.3938 37.3262 33.5155 36.7999C32.8339 36.9118 32.4842 36.4262 32.9073 35.8542C32.8972 35.722 32.2992 35.8263 32.4361 35.1984C32.4614 35.0865 32.5729 34.9848 32.5779 34.8806C32.5931 34.6365 32.3626 34.512 32.5779 34.1815C32.7933 33.851 33.1506 33.879 33.4268 34.1179C33.6523 33.7976 33.3482 33.8205 33.1835 33.6908C32.7553 33.3578 33.1379 33.1061 33.0872 32.9383C33.0416 32.7858 32.6641 32.8392 32.8161 32.346C32.8415 32.2647 32.9454 32.1935 32.958 32.1248C32.991 31.924 32.735 31.8655 32.958 31.4512C33.0872 31.2147 33.2519 31.0774 33.5332 31.141C33.9462 31.2351 33.9133 31.7028 33.9462 31.7333C33.9716 31.7562 34.3035 31.7003 34.4327 31.8859C34.6126 32.1401 34.3592 32.3994 34.3947 32.4706C34.4707 32.6307 34.8001 32.5824 34.8508 32.9307C34.8939 33.2231 34.7646 33.2841 34.6785 33.5281C34.8381 33.7747 35.0966 33.6578 35.0991 34.0264C35.1016 34.3315 34.8533 34.484 34.8533 34.512C34.8533 34.5552 35.1878 34.7306 35.1549 35.0534C35.1346 35.2619 34.9116 35.4322 34.8837 35.5695C34.8559 35.7068 34.9116 35.9534 34.7925 36.1491C34.8432 36.2279 35.4032 36.444 35.3981 36.2762C35.3981 36.2127 35.0814 36.0983 35.0915 35.7907C35.1042 35.4399 35.4006 35.4551 35.4488 35.2899C35.5071 35.0967 35.3778 34.6442 35.6844 34.5501C36.1456 34.4077 36.4851 34.7255 36.5003 35.178C36.5029 35.2822 36.4243 35.4373 36.4344 35.45C36.4598 35.4831 36.7512 35.4907 36.8348 35.7526C36.9589 36.144 36.6169 36.2356 36.6143 36.3957C36.6143 36.5686 36.9742 36.5966 36.9716 36.9448C36.9716 37.2194 36.7182 37.3668 36.5662 37.5524C36.9285 37.9719 36.7005 38.2261 36.2647 38.4041C36.5738 39.126 35.9606 38.9837 35.7047 39.1998C35.5983 39.2887 35.4589 39.6472 35.2892 39.7591L35.094 41.7877C35.5349 41.5284 35.2182 41.3606 35.2207 41.0861C35.2258 40.7098 35.6743 40.6742 35.6844 40.5395C35.5577 40.2853 35.4336 40.0794 35.6971 39.8633C35.7807 39.7946 35.9454 39.7667 35.9758 39.7184C36.0696 39.5786 35.9226 39.2888 36.2241 39.1133C36.6473 38.8693 36.9311 39.3091 36.9615 39.7006C36.9716 39.8201 36.9057 39.9268 36.9159 40.0438C36.9311 40.2243 37.111 40.3438 37.1034 40.5954C37.0932 40.8827 36.9083 40.9107 36.7385 41.0835C36.9361 41.2615 36.9868 41.5742 36.85 41.8081C36.7512 41.9759 36.5662 41.9555 36.5181 42.0267C36.4801 42.0801 36.5485 42.1894 36.5282 42.2733C36.437 42.6241 36.029 42.5504 35.9733 42.6317C35.8745 42.7741 36.0797 43.2114 35.6439 43.1859C35.6692 43.2978 35.8415 43.3029 35.9277 43.3893C36.2875 43.7452 36.2216 44.2587 35.7452 44.4748C35.4893 44.5918 35.2587 44.6299 35.0104 44.457C34.9293 44.4011 34.9217 44.2943 34.9065 44.2842C34.8888 44.2715 34.5189 44.4011 34.5011 44.4164C34.415 44.4875 33.8398 46.2137 33.708 46.5162C33.5205 46.9382 33.2646 47.3297 33.0898 47.7543H33.3938C33.2773 47.3653 33.4065 47.0908 33.8195 47.0196C33.7511 46.7908 33.7055 46.5798 33.8778 46.3789L34.4023 46.234C34.4099 45.5934 34.4429 45.3519 35.1574 45.4383C35.0864 44.8231 35.2663 44.5816 35.8871 44.7672C35.8314 44.3147 36.4471 44.152 36.7714 44.3376C37.0958 44.5231 37.149 45.1002 36.8981 45.3544C36.8323 45.4231 36.6346 45.4866 36.6219 45.507C36.5763 45.5832 36.7841 45.9086 36.5814 46.2264C36.3939 46.5213 36.0468 46.4349 35.9708 46.5315C36.0924 46.984 35.9201 47.4441 35.3981 47.2026C35.3804 47.6729 34.9091 47.7797 34.5189 47.6373C34.2173 48.311 34.0324 47.9653 33.5965 47.9373C33.3862 47.9246 33.1658 48.0466 32.9149 47.9424C32.8997 48.072 32.4284 48.6796 32.4791 48.7279C32.6489 48.8855 32.768 48.433 32.8161 48.3644C33.0746 47.9856 33.969 47.9653 34.0577 48.5169C34.1616 49.1601 33.855 49.366 33.2443 49.272C32.7173 49.1906 32.8947 48.6135 32.3752 48.8957C32.094 49.0483 31.6024 50.0728 31.2654 50.3117L31.8761 50.2863C31.9774 50.2151 31.8938 49.8312 32.2207 49.7728C32.507 49.7219 32.6413 50.0143 32.9048 50.0067C32.9302 49.6304 33.143 49.2262 33.5763 49.3635C33.708 49.4042 34.002 49.7219 34.1185 49.638C34.3288 48.8957 34.6456 49.427 34.8913 49.4499C34.9775 49.4575 35.0611 49.2796 35.3044 49.2694C35.9936 49.2364 36.2596 50.0219 35.6971 50.4007C35.5983 50.4668 35.4158 50.4871 35.3652 50.5558C35.2309 50.7439 35.3626 51.0718 34.8483 51.0439L35.4209 51.5371C35.502 51.6591 35.5932 51.7786 35.6515 51.9159C35.9353 52.6048 35.5653 52.3429 35.241 52.6861C34.9167 53.0293 34.9572 53.6674 34.9674 54.1225C34.9724 54.2877 35.1346 54.6055 34.9091 54.608C34.6126 53.853 33.7866 53.281 32.9935 53.1768C32.844 53.1564 32.9302 53.187 32.9327 53.2378C32.9479 53.4742 33.0391 53.6649 32.844 53.8784C32.6641 54.0767 32.431 53.9877 32.2739 54.0843C32.1497 54.1606 32.1675 54.5114 31.7621 54.5674C31.3921 54.6157 31.3642 54.242 31.2325 54.275C31.012 54.7962 30.4698 55.0021 30.1379 54.4606C29.7502 54.7631 29.4157 54.5419 29.2155 54.1581L28.7088 54.275C28.8887 54.758 28.4605 55.1673 27.979 55.1572L28.1919 55.3707C28.4883 54.936 29.0306 54.997 29.0737 55.5537C30.072 55.1978 30.3203 56.7384 29.2282 56.713C29.1294 56.713 29.0027 56.6367 28.9318 56.6469C28.8887 56.652 28.7823 57.0079 28.4351 57.0206C27.9562 57.0409 27.9106 56.5503 27.827 56.5299C27.6547 56.5655 27.6091 56.8147 27.4672 56.8986C27.1251 57.0969 26.8337 56.7943 26.7628 56.4689L26.3371 56.591L26.5778 57.0511C27.528 56.8706 27.5255 58.0985 26.6133 58.1214C26.4739 58.1239 26.2915 58.0426 26.2003 58.0629C26.1015 58.0858 26.0255 58.2637 25.8177 58.2942C25.1766 58.3883 25.3489 57.8443 25.1462 57.8112C24.6977 58.2103 24.3328 58.1468 24.12 57.5722C23.6791 57.8544 23.4232 57.5036 23.3573 57.0765C22.5288 57.4095 22.7897 56.1893 22.2272 55.8715L20.1368 56.2249L21.9206 56.9036C23.1014 57.4909 24.3024 58.2459 25.2425 59.1789C25.6986 59.6314 26.0128 60.028 26.1547 60.6712C26.1116 60.7068 25.2349 60.2568 25.1513 60.1856C24.8624 59.9467 24.533 59.4662 24.2112 59.1789C23.0938 58.1824 21.6951 57.4019 20.3193 56.8325C20.3953 57.0689 20.5701 57.2468 20.674 57.4807C21.1149 58.462 21.0642 59.6314 21.533 60.6102L20.2382 60.0687L19.3159 61.0983C19.2297 61.083 19.179 60.6178 19.1714 60.511C19.0827 59.4764 19.1689 58.4417 19.103 57.4121C19.0954 57.2926 19.0549 56.8147 19.0346 56.7486C18.9839 56.5884 18.1579 56.6189 18.0971 56.7054C18.054 57.8671 18.0819 58.6044 17.3395 59.5425C17.2026 59.7128 16.9949 60.0128 16.7947 60.0611V59.1764C16.7947 59.1204 16.6984 58.9349 16.706 58.8383L16.6351 58.7874C16.4323 58.8103 15.1908 58.7035 15.1528 58.5662L15.9383 58.0731C16.3411 57.7502 16.559 57.2697 16.8555 56.8604C16.8656 56.8147 16.7998 56.8223 16.7668 56.8325C15.6443 57.1146 13.3917 58.6552 12.5404 59.4814C12.3301 59.6848 12.1172 60.0534 11.9297 60.2085C11.8562 60.267 10.9998 60.7068 10.9618 60.6686C11.0581 59.906 11.5775 59.4255 12.1147 58.9323C13.0674 58.0578 14.1874 57.3663 15.358 56.8198L16.9188 56.2223L15.4366 55.9935C15.1401 56.1512 15.0717 56.4791 14.8842 56.7104C14.4838 57.2036 13.6983 57.3562 13.1358 57.5773C12.9002 57.6714 12.6823 57.8621 12.4086 57.9459C11.6637 58.1722 10.8579 57.9968 10.2473 57.5189C10.1966 57.4807 10.1358 57.5189 10.1712 57.379C10.8022 57.4273 11.2177 56.8604 11.7321 56.5986C12.7963 56.0571 13.8808 56.3469 14.9247 56.0215C14.9881 56.0012 15.1097 56.0063 15.0945 55.9173C14.3191 55.7622 13.5488 55.5512 12.8191 55.2436C11.76 57.107 9.06142 56.8986 7.55632 55.7037C7.89586 55.1114 8.67121 55.3046 9.22866 55.2461C9.65941 55.2029 10.1434 55.086 10.564 55.0606C11.2507 55.0224 11.8613 55.2283 12.5429 55.1851L10.7211 54.2979C9.9508 54.3589 10.2599 55.3377 9.30467 55.1114C8.97274 55.0326 8.90686 54.5267 9.07916 54.2725C8.46344 54.5648 7.9592 54.5216 7.31561 54.364C6.67202 54.2064 5.96254 53.9471 5.48871 53.5149C5.24547 53.2912 5.29868 53.0471 4.85272 53.0497C4.23447 53.0548 3.17786 53.4183 2.7243 53.8454C2.46585 54.0869 2.43291 54.303 2.26061 54.5394C2.215 54.603 2.17699 54.6894 2.11618 54.5801C2.05537 54.4708 2.21247 53.4615 2.07057 53.042C1.82226 52.315 1.02156 52.709 1.55114 51.7582C1.90587 51.1201 2.60268 50.8888 3.2412 50.6498L2.14912 49.7346L1.17613 48.1229C2.12632 48.1127 2.94728 48.733 3.76824 49.1499C3.96588 49.2491 4.2446 49.3025 4.41944 49.4118C4.85019 49.6762 5.10104 50.388 5.79531 50.2863C5.49125 50.0804 4.70576 48.6695 4.51826 48.5805C4.02416 48.339 3.75557 49.0203 3.18546 48.6974C2.49879 48.3085 3.12718 47.317 3.78598 47.7314C4.05456 47.8992 4.12044 48.2703 4.39663 48.3669L3.90253 47.4619C3.27161 47.5128 2.67109 47.6246 2.09084 47.2967C1.74624 47.1009 0.661759 45.6697 0.456518 45.2782C0.208202 44.8028 0.122052 44.2664 0.0815106 43.7351L1.23441 44.2842C1.06971 43.9816 1.0621 43.5088 1.43204 43.3563C2.14405 43.0639 2.24541 43.8673 2.48105 44.2842L2.24034 43.247C1.62715 43.1504 1.17866 43.0105 0.783383 42.5123C0.481857 42.1309 0.0713753 41.1649 0.0181647 40.6895C-0.00970745 40.4531 -0.00210595 40.0184 0.0181647 39.7743H0.00549556ZM34.2883 31.9774C33.5991 31.9748 33.9107 31.5401 33.4724 31.3012C33.3837 31.7155 33.5585 32.1579 33.6852 32.5519C33.9766 33.4544 34.3288 34.3594 34.6304 35.2619C34.7368 35.5822 34.9572 35.1246 34.9572 34.9873C34.9572 34.756 34.6329 34.6543 34.6557 34.4433C34.6709 34.273 34.9243 34.2298 34.904 34.0162C34.8837 33.7773 34.5391 33.8561 34.4859 33.5713C34.4378 33.3095 34.6937 33.2231 34.6608 32.9816L34.1945 32.524L34.2883 31.9774ZM33.3204 31.3647C32.844 31.5045 33.1531 31.896 33.1379 32.1223C33.1278 32.285 32.9479 32.3816 32.9504 32.5519L32.9682 32.6333C33.5053 32.8036 33.1126 33.19 33.1633 33.3756C33.2367 33.64 33.5788 33.5434 33.6624 33.7976C33.746 34.0518 33.4825 34.2704 33.5307 34.3493C33.779 34.5475 34.116 34.3874 34.116 34.8069C34.116 35.1831 33.9107 35.3534 34.5391 35.3229C34.3263 33.9425 33.4268 32.7706 33.3229 31.3622L33.3204 31.3647ZM2.1922 35.75L3.53006 31.6062C3.20573 31.7867 2.86873 32.196 2.73697 32.5468C2.48359 33.2256 2.00723 34.784 2.07817 35.4678C2.08577 35.5288 2.10098 35.7551 2.1922 35.75ZM2.31635 35.7526C2.7091 35.2187 3.20066 34.5501 3.46165 33.945C3.77331 33.2307 3.70996 32.6053 3.59087 31.8528L2.31635 35.7526ZM33.3356 34.517C33.2241 34.4103 33.2469 34.034 32.9555 34.1052C33.1329 35.567 34.5087 36.4288 34.8685 37.8219C35.4006 37.5677 34.9826 37.4151 34.9598 37.1787C34.9395 36.9753 35.2182 36.6652 35.0206 36.4491C34.192 36.4542 34.9369 35.6407 34.5543 35.5161C34.3846 35.4602 34.1717 35.5695 33.9893 35.4119C33.7232 35.1831 33.9994 34.845 33.9006 34.7102C33.7638 34.6111 33.4445 34.6238 33.333 34.517H33.3356ZM32.8947 34.1662C32.4513 34.2577 32.7781 34.7052 32.7553 34.9187C32.7401 35.0712 32.4994 35.2822 32.5957 35.4983C33.4901 35.6229 32.7908 36.0983 32.8997 36.4389C32.9808 36.6855 33.4344 36.5305 33.5965 36.6576C33.7967 36.8126 33.5737 37.0618 33.6472 37.2118C33.7562 37.4304 34.1033 37.2728 34.2325 37.3618L34.3466 37.8575L34.714 37.8194C34.453 36.4415 32.9707 35.6127 32.8921 34.1662H32.8947ZM2.37717 38.066C2.85353 37.649 3.19053 37.0186 3.48192 36.4618C3.58834 36.2584 4.32315 34.7306 4.26234 34.6543C3.00049 35.4119 2.79018 36.7745 2.3797 38.066H2.37717ZM35.8111 34.7153C35.6059 34.517 35.6338 35.3636 35.6211 35.4068C35.5805 35.5288 35.2663 35.5949 35.2638 35.7831C35.2638 35.9636 35.7402 36.1059 35.4741 36.4796C35.426 36.5457 35.3221 36.5508 35.279 36.6499C35.056 37.1609 35.502 37.0516 35.5425 37.3923C35.5603 37.555 35.3474 37.677 35.3474 37.7939C35.3474 37.9312 35.6261 38.0761 35.5704 38.399C35.5425 38.5566 35.3069 38.732 35.5425 38.9201L35.7503 38.46C35.9733 37.6007 36.0569 36.6728 35.9986 35.7831C35.9885 35.6432 35.8593 34.7586 35.8162 34.7153H35.8111ZM36.5865 35.7068C36.5206 35.6407 36.3306 35.6356 36.2647 35.5085C36.1912 35.3636 36.4775 34.8018 35.9353 34.7179C36.252 36.1161 36.1202 37.5473 35.7528 38.9227C36.4572 38.9557 35.9403 38.4854 36.1126 38.2337C36.1836 38.127 36.4927 38.1498 36.5383 37.9693C36.5789 37.8092 36.4015 37.7685 36.3711 37.6617C36.2672 37.3033 36.7942 37.2143 36.7866 36.9423C36.7816 36.7186 36.2976 36.7389 36.4344 36.2864C36.4775 36.144 36.8221 35.9483 36.589 35.7093L36.5865 35.7068ZM1.58407 39.1032C1.42444 38.1676 1.36617 37.2194 1.3991 36.2661C1.40417 36.1339 1.57647 34.8374 1.49286 34.8348C0.818857 36.0017 0.752977 37.4482 1.30789 38.6761C1.36617 38.8057 1.46752 39.0193 1.58154 39.1006L1.58407 39.1032ZM1.7057 38.7981C1.68036 38.099 2.13645 37.3135 2.13645 36.6347C2.13645 36.0703 1.81972 35.3814 1.67529 34.8374C1.43965 34.8399 1.54607 38.2439 1.60181 38.5693C1.61195 38.6329 1.61701 38.8108 1.7057 38.7981ZM2.5596 38.127C3.69729 37.6287 4.28261 36.1415 4.32315 34.9594L3.29948 37.0109L2.5596 38.127ZM4.50305 37.5804C3.97095 37.7406 3.87466 38.2744 3.61874 38.6735C3.52753 38.8159 3.23867 39.276 3.16772 39.3625C3.08411 39.4642 2.9118 39.4921 2.83579 39.5964C2.65335 39.8455 2.61281 40.5548 2.49879 40.8725C2.61028 40.9946 3.16265 40.1251 3.21586 40.0387C3.70489 39.2557 3.98615 38.3507 4.50305 37.5829V37.5804ZM2.68123 40.931C2.75977 40.992 3.3907 40.6437 3.50219 40.5675C4.51319 39.8887 4.55373 38.8896 4.56386 37.7634C3.81892 38.7447 3.55286 40.0311 2.67869 40.931H2.68123ZM34.3136 41.681C34.3922 41.5767 34.5493 41.5894 34.5341 41.3301C34.5138 40.9513 34.0577 41.0657 33.9969 40.8903C33.8651 40.5014 34.2959 40.326 34.1261 39.9675C34.0121 39.726 33.6726 39.7896 33.5332 39.6472C33.3204 39.4311 33.5661 39.1489 33.4749 38.9761C33.3989 38.8362 33.0771 38.8642 33.029 38.5668C33.0163 38.4803 33.0746 38.3939 33.0518 38.3024C33.0087 38.132 32.7705 37.977 32.5906 37.9999C32.9023 39.5506 33.371 41.1827 34.2604 42.497L34.5265 42.2885C34.5087 42.0038 34.1008 41.9581 34.3136 41.6759V41.681ZM32.5298 38.0685C32.3879 38.038 32.431 38.0863 32.393 38.1473C32.1295 38.5591 32.4234 38.6913 32.4082 38.9481C32.3955 39.1362 32.1776 39.2506 32.17 39.4387C32.1573 39.7413 32.5526 39.6574 32.5906 39.9294C32.6236 40.1709 32.4335 40.1938 32.4056 40.3539C32.3068 40.931 32.92 40.809 33.0492 41.053C33.1607 41.264 32.7249 41.414 33.0112 41.6962C33.1658 41.8462 33.4014 41.7369 33.5636 41.8742C33.7334 42.047 33.4268 42.6241 34.1084 42.5148C33.3305 41.1649 32.7502 39.6116 32.5273 38.066L32.5298 38.0685ZM33.8119 38.9761C34.1337 39.2252 34.6734 38.521 34.4175 38.338C34.1844 38.1702 33.708 38.7244 33.8119 38.9761ZM2.49879 38.4346L1.95401 38.5591L2.01229 39.6523C2.31382 39.4464 2.09844 39.0676 2.18713 38.8286C2.25047 38.6583 2.41771 38.5871 2.49626 38.4346H2.49879ZM1.76651 42.7589C1.16599 41.531 1.60941 39.909 0.491992 38.9201C0.793518 40.0006 0.742842 41.4471 1.37883 42.3877C1.48019 42.5377 1.59168 42.7004 1.76904 42.7589H1.76651ZM1.64742 42.8809C0.613616 41.8945 0.816323 40.3921 0.413443 39.1515C0.393172 39.0879 0.39824 38.9684 0.309556 38.9811C0.286751 39.4896 0.149924 39.9599 0.185398 40.476C0.238608 41.2818 0.778315 42.6877 1.64742 42.8809ZM33.8879 39.2659C33.8018 39.1794 33.7942 39.0091 33.6852 38.9837L33.6295 39.4286C33.6878 39.6167 34.4758 39.5964 34.3516 40.2878C34.3238 40.4455 34.1236 40.5726 34.1667 40.7709C34.1895 40.8776 34.6025 40.7912 34.6886 41.1725C34.8001 41.6682 34.4783 41.6988 34.4733 41.8742C34.4733 41.9225 34.5645 41.8945 34.5949 41.9479C34.6658 42.0725 34.6709 42.2682 34.7773 42.3318L35.0636 39.8124C34.8635 39.2938 34.6456 39.604 34.2731 39.5175C34.1895 39.4972 33.9513 39.3294 33.8854 39.2659H33.8879ZM35.3246 42.9419C35.9099 41.7928 36.3939 40.5344 36.4192 39.2252C36.0518 39.304 36.2571 39.5964 36.1203 39.8099C36.0316 39.9472 35.7706 39.9701 35.7174 40.0768C35.692 40.2446 35.8922 40.4073 35.8466 40.57C35.7858 40.7963 35.4184 40.9132 35.3956 41.0327C35.3753 41.1318 35.5425 41.3556 35.5071 41.5716C35.4767 41.7547 35.2537 41.7801 35.2562 42.0013C35.2562 42.1462 35.4108 42.2402 35.3804 42.3546C35.35 42.469 35.1777 42.4919 35.1549 42.5301C35.0915 42.6368 35.1219 42.9826 35.3221 42.9444L35.3246 42.9419ZM35.388 43.0029C35.8669 43.0639 35.692 42.8478 35.7807 42.5733C35.8745 42.2835 36.105 42.469 36.2723 42.3343C36.4775 42.1665 36.0848 41.9581 36.2393 41.8742C37.1642 41.8004 36.513 41.3047 36.5561 41.0378C36.589 40.8242 36.8272 40.7988 36.8829 40.6895C36.9944 40.4709 36.7512 40.3056 36.7284 40.1048C36.698 39.8404 36.8905 39.5175 36.5763 39.2888C36.4066 40.598 36.0544 41.8615 35.3905 43.0054L35.388 43.0029ZM2.61788 39.5913C1.66769 39.5836 2.11111 40.4505 2.13138 41.053C2.2302 40.9895 2.32142 40.7505 2.35689 40.6412C2.46332 40.3031 2.48612 39.9268 2.61535 39.5913H2.61788ZM3.35016 44.4037C4.03683 43.7376 3.88986 42.7563 4.03683 41.892C4.11284 41.4344 4.28514 41.0124 4.38396 40.5649C3.99375 40.9336 3.93294 41.5361 3.74544 42.0267C3.66435 42.2428 3.49965 42.3979 3.42871 42.6241C3.24374 43.2215 3.5402 43.7986 3.35016 44.4037ZM3.53006 44.4037C3.60354 44.4723 4.04696 43.9867 4.10271 43.9105C4.71336 43.1046 4.86539 41.6098 4.47265 40.687C3.9 41.8793 4.30035 43.3156 3.53006 44.4037ZM33.1227 42.5911C32.9758 42.4487 32.5779 42.6292 32.5475 42.2936C32.5323 42.1386 32.6894 41.9276 32.5019 41.775C32.4056 41.6962 32.2815 41.8055 32.1421 41.7165C32.1168 41.7013 31.6328 41.0963 31.7392 41.4445C31.7925 41.6174 32.1953 42.1564 32.317 42.3877C32.7021 43.1275 32.958 43.9384 33.3254 44.6655C33.3482 44.7113 33.4496 44.9223 33.5003 44.8867L33.6802 44.5613C32.991 44.1011 33.6219 44.0528 33.5636 43.641C33.5256 43.369 33.1835 43.4554 33.1151 43.2876C33.0188 43.0563 33.2849 42.7436 33.1227 42.586V42.5911ZM33.3812 45.0748C33.2342 44.6325 31.909 41.5539 31.648 41.5411C31.4479 41.5335 31.6835 41.953 31.6683 42.0445C31.643 42.2199 31.3997 42.3496 31.5517 42.5504C31.6911 42.7334 32.0686 42.6673 31.9724 43.0817C31.9344 43.247 31.6886 43.3791 31.8913 43.613C31.985 43.7198 32.2714 43.641 32.3803 43.7935C32.5349 44.0503 31.985 44.7316 32.8997 44.5511C33.0416 44.6579 32.8339 45.3011 33.3837 45.0723L33.3812 45.0748ZM2.98529 44.6477C3.44898 44.1876 3.10691 43.4427 3.18292 42.8656C3.22093 42.5758 3.36283 42.347 3.46925 42.0877C3.27668 42.408 2.48359 42.436 2.43544 42.7919C2.3797 43.2012 2.93208 44.1901 2.98529 44.6477ZM35.5704 43.308C35.3829 42.9953 35.0636 43.4122 34.7925 43.3817L34.5366 44.2842C34.9268 44.2562 34.7951 44.0198 34.8533 43.7783C34.9116 43.5368 35.3145 43.2851 35.5704 43.308ZM35.6008 43.369C35.4006 43.43 35.502 43.9588 35.7275 44.091C36.3382 44.4494 35.953 43.2622 35.6008 43.369ZM5.17199 47.8788C5.69396 46.5061 5.93974 44.7214 4.68802 43.674C4.87553 45.0519 5.2632 46.2747 5.13144 47.6831C5.12638 47.7492 5.0605 47.8916 5.17452 47.8788H5.17199ZM5.05036 47.6348V46.3866L4.5664 43.7961C4.39917 44.6248 4.36369 45.4765 4.38903 46.3205L5.0529 47.6348H5.05036ZM4.86793 48.1839C5.00982 47.4721 4.29021 46.9967 4.20406 46.3815C4.10017 45.6112 4.30288 44.7519 4.29021 43.9791C3.97855 44.396 3.5554 44.6579 3.11958 44.9197C3.59594 46.0459 4.0495 47.2687 4.86793 48.1814V48.1839ZM3.34762 47.1467C2.47598 46.051 1.81972 44.6299 0.428646 44.1011C1.18373 44.9223 1.79438 46.0052 2.64829 46.7196C2.7395 46.7959 3.27414 47.2077 3.34509 47.1467H3.34762ZM3.34762 47.2687C1.99456 46.6357 1.32056 45.179 0.309556 44.1596C0.362766 45.2909 1.29775 45.9646 1.82732 46.8747C2.2074 47.2484 2.61535 47.3475 3.13732 47.3297C3.2108 47.3297 3.36283 47.3755 3.34762 47.2687ZM30.9335 44.4215C30.9208 44.4062 30.7739 44.3376 30.7688 44.3452C30.6472 45.7536 31.6379 46.923 31.7114 48.3059C32.3018 48.222 31.8862 47.8814 31.9217 47.6094C31.947 47.4263 32.2333 47.2713 32.1624 47.0628C32.1168 46.9331 31.7139 46.9636 31.8102 46.6408C31.8482 46.5086 32.0965 46.445 31.9546 46.1705C31.8558 45.9798 31.5112 46.1298 31.4149 45.7942C31.3465 45.5527 31.5036 45.4968 31.5441 45.3341C31.6455 44.9324 31.3136 45.0672 31.1311 44.8663C31.012 44.7341 31.0196 44.5231 30.9335 44.424V44.4215ZM3.65168 47.1467L2.62295 44.5536C2.25554 44.246 1.82732 44.5943 1.40417 44.4062C2.33156 45.1994 2.82819 46.2925 3.65168 47.1467ZM30.6446 44.4062C30.2798 44.4443 30.4419 44.8485 30.3887 45.0951C30.3456 45.2883 30.0593 45.451 30.186 45.69C30.9031 45.8858 30.2646 46.3662 30.3482 46.623C30.4166 46.7501 30.5762 46.7526 30.6776 46.8442C31.0196 47.1543 30.5433 47.3679 30.6725 47.5789L31.1666 47.7568C31.3085 47.9526 30.898 48.4051 31.6176 48.3085C31.5087 46.9484 30.5889 45.7917 30.6446 44.4087V44.4062ZM36.6625 44.4672C36.2849 44.4443 36.0265 44.452 36.0265 44.8968L35.953 44.9502C35.2182 44.8028 35.3829 45.0138 35.2663 45.5985L34.6202 45.6824C34.5239 45.8197 34.6988 46.3815 34.4327 46.4679C34.2934 46.5137 34.0957 46.4196 33.9817 46.5645C33.8322 46.7501 34.0324 46.9611 33.9817 47.1111L33.5256 47.3958L33.5585 47.7009C33.6092 47.7492 33.8297 47.5585 33.8905 47.5153C34.5695 47.0247 35.4437 46.0688 35.9885 45.4129C36.067 45.3188 36.7182 44.5231 36.6574 44.4698L36.6625 44.4672ZM35.7427 47.078C35.9074 46.8594 35.6591 46.5289 35.8415 46.3535C35.9784 46.2213 36.3483 46.384 36.4547 46.0535C36.5282 45.8273 36.3762 45.662 36.4294 45.4841C36.4826 45.3061 37.1566 45.1078 36.7562 44.6502C35.8238 45.7663 34.8964 46.8874 33.746 47.7873L34.1717 47.8509C34.42 47.0628 34.6075 47.6577 35.0206 47.4823C35.3196 47.3551 35.056 47.0018 35.2359 46.9662L35.7427 47.0806V47.078ZM32.5121 45.2095C32.3068 45.2553 32.1624 45.4587 32.1193 45.657C32.3651 45.9697 32.9378 45.6392 32.8693 45.2553C32.8035 45.1663 32.6134 45.1867 32.5146 45.2095H32.5121ZM33.6751 45.451C33.4395 45.296 33.371 45.2172 33.0771 45.3188C33.1759 45.4688 33.3077 45.6544 33.3153 45.8425C33.328 46.1171 33.0391 46.2569 33.1987 46.5391C33.333 46.4247 33.7283 45.5426 33.6751 45.451ZM32.2257 48.1839L33.1785 46.6916C33.0695 46.3154 32.9301 46.4984 32.7477 46.473C32.4589 46.4323 32.3474 46.3179 32.1649 46.112C32.1903 46.3815 32.1599 46.5747 31.9825 46.7806C32.7629 46.8543 32.1092 47.4899 32.1067 47.6653C32.1041 47.7873 32.2992 48.0009 32.2257 48.1839ZM29.3068 51.0464C29.5145 49.6355 29.8718 48.2119 29.7325 46.7806C29.4335 46.8137 29.5373 47.1797 29.4132 47.3145C29.3397 47.3933 29.0737 47.406 29.0052 47.5484C28.9622 47.7288 29.4791 47.9373 29.0965 48.3669C28.9698 48.5093 28.7873 48.5093 28.7595 48.7661C28.7215 49.1042 29.1041 49.061 29.1269 49.3126C29.1497 49.5872 28.6581 49.666 28.7696 50.0295C28.8228 50.2075 29.0787 50.1719 29.1193 50.2939C29.1826 50.4744 28.8938 50.7236 29.028 50.9295L29.3042 51.049L29.3068 51.0464ZM29.4284 50.9244L29.8262 50.7439C29.5475 50.0651 29.9529 50.2711 30.1911 50.0143C30.4825 49.6991 30.0188 49.5516 30.0999 49.3177C30.2392 49.1728 30.4799 49.1855 30.5205 48.9415C30.594 48.522 30.1911 48.5856 30.1531 48.3314C30.1125 48.0619 30.3431 48.0441 30.3887 47.8966C30.4926 47.556 30.1936 47.5941 30.1252 47.4543C30.0441 47.284 30.1607 46.9891 29.9428 46.8442L29.4284 50.9269V50.9244ZM7.72609 50.9854C8.04535 50.0372 7.73116 48.5754 7.11797 47.7873C7.03942 47.6882 6.35022 47.0069 6.26914 47.0857C6.72269 48.0746 7.26493 49.0355 7.55379 50.0931L7.72862 50.9829L7.72609 50.9854ZM7.60447 50.9854C7.51832 49.8719 7.00902 48.9135 6.56306 47.917L6.14751 47.1467C6.06896 47.4314 6.05883 47.7899 6.09177 48.0848C6.12471 48.3593 6.48958 49.4626 6.6036 49.7652C6.80884 50.3143 7.24973 50.5532 7.60447 50.9854ZM28.3338 50.7414C28.3312 50.5405 28.2299 50.36 28.2121 50.1617C28.1285 49.1982 28.7569 48.25 27.3887 48.1229C25.9038 47.9831 24.5305 48.3873 22.9798 48.0924C21.1402 47.7441 19.8176 47.2102 17.8412 47.3272C16.5438 47.4034 15.3555 47.856 14.1063 48.0924C13.1181 48.2805 12.2718 48.2119 11.276 48.1839C10.7363 48.1686 8.94233 47.861 8.82071 48.6415C8.71935 49.2974 9.03355 50.055 8.75736 50.7414C8.85111 50.6981 8.94233 50.6549 9.04622 50.6346C10.151 50.4185 11.4863 50.7236 12.6164 50.7439C14.6967 50.782 16.6807 49.8135 18.8218 49.8846C20.7373 49.9507 22.5592 50.782 24.4747 50.7439C25.5947 50.721 26.9478 50.421 28.0449 50.6346C28.1488 50.6549 28.24 50.6981 28.3338 50.7414ZM31.0095 47.8788L30.5864 47.8204C30.6218 48.0212 30.3963 48.0975 30.3482 48.222C30.2671 48.4305 30.5559 48.3237 30.6573 48.5652C30.9158 49.1703 30.3735 49.2999 30.3456 49.4423C30.3203 49.5618 30.6016 49.7524 30.3583 50.1185C30.2595 50.2685 30.1353 50.1922 30.0973 50.3168L30.7054 50.2863L31.7773 48.8576C31.6455 48.4508 31.4656 48.5525 31.1894 48.461C30.8144 48.339 31.0374 47.9068 31.012 47.8788H31.0095ZM33.632 48.2525C33.4344 48.3644 33.4192 49.1474 33.8347 49.0966C34.116 48.9237 33.9234 48.0898 33.632 48.2525ZM5.35442 50.3778C4.82232 50.3753 4.67535 49.7931 4.30288 49.5719C4.11284 49.4601 3.88733 49.4296 3.69223 49.333C3.03089 49.0101 2.40757 48.5932 1.70823 48.3669C2.48105 49.427 3.83919 50.6829 5.26574 50.4998C5.34935 50.4897 5.44817 50.4643 5.35696 50.3778H5.35442ZM5.2328 50.6219C3.69729 50.6727 2.64829 49.6762 1.70823 48.611C2.12125 49.7702 3.48952 50.932 4.7615 50.7897L5.2328 50.6219ZM35.1574 49.4779C35.1067 49.5084 35.0814 49.7143 34.8787 49.694L34.5543 49.4703C34.3111 49.4042 34.3212 49.8312 34.0197 49.8338C33.7182 49.8363 33.594 49.4245 33.2748 49.5643C33.0948 49.633 33.1227 50.0956 33.0214 50.1668C32.7502 50.3575 32.3955 49.8897 32.2283 49.9762C32.061 50.0677 32.1041 50.4541 31.9876 50.5354C31.8634 50.6219 31.3516 50.2838 31.4377 50.9269C32.92 50.7337 34.3871 50.3727 35.7528 49.7677C35.7706 49.5313 35.3196 49.3813 35.1574 49.4779ZM31.496 51.049L31.8279 51.3515L32.3043 51.1151C32.4411 51.1507 32.507 51.4888 32.7553 51.5269C33.1126 51.5828 33.0467 51.1278 33.2925 51.1074C33.5104 51.0896 33.6143 51.3922 33.8829 51.3439C34.1515 51.2956 34.078 51.1074 34.1591 50.9447C34.3871 50.477 34.9065 50.9803 35.0839 50.7769C35.1777 50.6702 35.1447 50.4643 35.2334 50.3778C35.35 50.2634 35.877 50.3066 35.8137 49.8313C34.4707 50.51 32.9656 50.7693 31.4985 51.0515L31.496 51.049ZM26.1471 50.8049C25.3438 50.8354 24.4874 50.9829 23.6867 50.9269C21.9536 50.8049 20.2888 50.0524 18.4543 50.0728C16.4273 50.0931 14.537 50.9778 12.4973 50.932C12.0437 50.9219 11.5015 50.8303 11.0429 50.8049C10.9593 50.7998 10.4652 50.7897 10.4626 50.838C11.3596 51.6489 12.477 53.0802 11.8258 54.3437C11.9905 54.6131 14.4154 55.3605 14.8335 55.4139C14.9019 55.4241 15.0007 55.4902 14.9602 55.3478C14.8259 54.8953 14.0151 54.6157 13.6654 54.392C13.2068 54.0971 12.0108 52.6455 11.7143 52.1421C11.5319 51.8345 11.2937 51.3972 11.2836 51.0515C11.9196 51.5116 12.7051 51.4303 13.3765 51.8777C14.2938 52.4904 15.3276 54.3665 15.206 55.4978C15.6317 55.5334 16.0827 55.6732 16.5084 55.6859C16.6655 55.691 16.6781 55.6809 16.5185 55.6148C15.3833 55.1622 15.1426 54.4936 15.5683 53.3344C15.88 52.4828 16.3285 52.2082 17.228 52.587C18.3226 53.0497 18.4417 54.4072 18.2086 55.4343L18.2744 55.5563L18.7305 55.4978C18.5557 54.7174 18.4087 52.6683 19.6123 52.7573C19.8429 52.7751 20.4358 52.9073 20.6791 52.9683C21.7813 53.2378 21.4823 53.9013 21.5786 54.8521L21.4341 55.5588C21.9181 55.4851 21.9561 55.4215 21.8928 54.9182C21.8396 54.4886 21.5203 54.2674 22.1309 53.9979C21.9612 53.5912 21.9941 53.0827 22.5009 52.9988C22.2374 52.376 22.7745 51.9997 23.3523 52.2057C23.2002 51.9921 23.4308 51.5142 23.6538 51.4405C23.8768 51.3667 24.0212 51.4862 24.1073 51.4659C24.1834 51.4481 24.2416 51.2473 24.3607 51.1761C24.7332 50.96 25.1817 51.0617 25.4173 51.4125C25.4249 51.0668 25.8379 51.054 26.1065 50.988L26.1471 50.8049ZM4.38143 52.1446H5.87132C5.94734 52.1446 7.13571 52.498 7.34602 52.5565C7.69315 52.6505 7.95667 52.8819 8.33421 52.8158L6.47184 51.054C6.1095 51.1837 6.1095 51.7074 5.83838 51.9311C5.27081 52.4014 4.53853 51.5904 5.03516 51.1074C5.47098 50.6829 5.86879 51.1735 6.32741 50.988C6.38062 50.9117 5.97774 50.5227 5.93467 50.5176C5.87893 50.5126 5.14665 50.932 4.88566 50.9727C4.26741 51.0693 3.84172 50.7795 3.44898 50.8075C2.80285 50.8532 1.61448 51.5727 1.52326 52.2972C2.26568 52.5311 2.3721 53.2912 2.31635 53.975C2.97262 53.2022 3.95321 52.9582 4.92874 52.8768L4.38143 52.1472V52.1446ZM7.21932 50.8252C7.14584 50.7414 6.74043 50.4058 6.63147 50.4998C6.60614 50.6142 6.69735 50.6448 6.7531 50.7134C6.95327 50.9574 7.24213 51.171 7.45244 51.415C7.52085 51.2549 7.32068 50.9447 7.21932 50.8278V50.8252ZM8.57746 50.4998L7.99975 50.6219L7.69315 51.6565C7.73116 51.7328 8.91446 52.6861 9.00568 52.7243C9.34521 52.8615 10.1231 52.5209 9.88492 52.0252C9.72275 51.6871 8.9398 51.9947 8.60533 51.6642C8.27086 51.3337 8.61293 50.8888 8.57999 50.5024L8.57746 50.4998ZM28.8203 50.4973H28.5162C28.463 50.8634 28.7544 51.2752 28.5441 51.5905C28.2299 52.0633 27.1479 51.5523 27.1758 52.2311C27.1885 52.5895 27.7383 52.8158 28.0322 52.7268C28.1387 52.6938 29.1826 51.8625 29.213 51.7786L29.1902 51.204C28.8 51.0896 28.7899 50.8736 28.8228 50.4973H28.8203ZM30.4622 50.4998H29.9757C30.2443 51.1939 29.2181 50.8863 29.3676 51.5955C29.474 51.6235 29.4892 51.5523 29.55 51.504C29.6412 51.4354 30.5255 50.5456 30.4622 50.4998ZM31.2528 50.4998C31.0754 50.4693 30.9943 50.6015 30.8904 50.7134L31.2528 50.8659V50.4998ZM26.8743 50.8049H26.327L26.3194 51.0998C24.9258 51.3794 25.8937 51.7735 25.8329 52.1065C25.7923 52.3251 25.2856 52.2896 25.1969 52.5692C25.1158 52.8285 25.3996 52.8387 25.4199 53.0319C25.4452 53.2861 24.8269 53.4081 25.2729 53.7259C25.3996 53.7488 25.8227 52.9556 25.914 52.7955C26.2814 52.1574 26.6006 51.4862 26.8768 50.8049H26.8743ZM11.7397 53.7895C11.8942 53.7412 11.8613 53.581 11.8562 53.4641C11.8182 52.7955 11.2329 51.9108 10.7996 51.4125C10.7388 51.3413 10.2245 50.7947 10.1611 50.8659C10.1864 51.0668 10.1079 51.354 10.1915 51.5345C10.3359 51.8523 11.1189 52.5285 11.39 52.9531C11.5471 53.1997 11.7397 53.492 11.7422 53.7895H11.7397ZM31.5568 51.4735C31.4757 51.1252 31.0779 51.0388 30.7967 50.9269L30.0999 51.5955C30.5711 51.7887 30.4343 51.6082 30.713 51.4481C31.0272 51.2676 31.2426 51.4049 31.5593 51.4735H31.5568ZM26.9376 52.1752C26.9047 51.8142 26.9604 51.4125 26.9376 51.049L25.4781 53.7589C26.0863 53.9801 25.8785 53.3725 26.0508 53.2353C26.2231 53.1132 26.5094 53.2607 26.6386 53.0954C26.8464 52.8336 26.3498 52.3684 26.9984 52.4497C27.0415 52.3429 26.9427 52.2336 26.9376 52.1752ZM34.7773 53.9725C34.7038 53.2098 34.8331 52.6048 35.5552 52.2387C35.3956 51.6464 34.8483 51.2193 34.2934 51.049C34.2275 51.6616 33.6751 51.6413 33.29 51.293C32.8972 52.2362 32.4361 51.3922 32.2485 51.3591C32.1852 51.3489 31.8938 51.6642 31.6784 51.5396C31.9901 52.0277 31.6936 52.7039 31.0703 52.5768C31.4833 53.1615 31.5492 52.6328 31.7418 52.5438C31.9926 52.4294 32.1599 52.8031 32.3727 52.887C32.654 52.9963 33.1253 53.0065 33.4749 53.1234C34.0146 53.3064 34.382 53.5835 34.7798 53.9776L34.7773 53.9725ZM25.0525 51.2905C24.8928 51.3032 24.6977 51.2574 24.5482 51.3032C24.3987 51.3489 24.3785 51.5218 24.305 51.5752C24.0719 51.7481 23.6411 51.4074 23.4967 51.8981C23.4333 52.1167 23.7222 52.409 23.2636 52.3887C23.071 52.3811 22.848 52.2362 22.6783 52.4726C22.4831 52.7472 22.7821 52.9937 22.7441 53.1463C22.6985 53.3217 22.4654 53.0954 22.3159 53.2683C22.0955 53.5251 22.321 53.7869 22.3691 54.0564C22.3362 54.2318 21.6318 54.2801 22.1056 54.8267C22.8658 53.4793 23.9452 52.3531 25.055 51.293L25.0525 51.2905ZM25.1741 51.4125C25.0677 51.3845 25.0525 51.4557 24.9916 51.504C24.6268 51.7837 23.9781 52.4828 23.6563 52.8463C23.4713 53.0548 22.0397 54.8801 22.136 55.0072C22.4831 55.1546 22.7036 54.9411 22.6833 54.5826L23.3523 54.6157L23.5322 53.8784C23.674 53.7284 24.0415 53.9725 24.2062 53.7666C24.3709 53.5607 24.0921 53.1514 24.2315 52.8768C24.3227 52.6963 24.6876 52.7904 24.7813 52.6353C24.8523 52.5158 24.7281 52.348 24.7864 52.1599C24.8726 51.8803 25.316 51.926 25.1741 51.4176V51.4125ZM14.9602 54.7631C14.7752 53.8047 13.896 52.3226 13.0091 51.8752C12.6341 51.6845 12.2059 51.626 11.8005 51.5345L14.3546 54.0005L14.9602 54.7631ZM14.7778 54.7631C13.9492 53.5301 12.7735 52.5794 11.6789 51.5955C11.6915 51.7328 11.7828 51.8803 11.8512 52.0023C12.1426 52.526 13.3233 53.9216 13.8124 54.242L14.7803 54.7631H14.7778ZM25.6606 52.0836L25.3565 51.6591C25.3667 51.9591 25.1538 52.048 24.9562 52.2082L24.9916 52.5743L25.2374 52.2413L25.6606 52.0862V52.0836ZM30.3887 51.7938C30.3532 51.7532 30.0618 51.654 29.9782 51.6871L28.6986 52.8158C29.0838 52.9683 29.3169 52.5641 29.5804 52.5667C29.8034 52.5692 29.8262 52.77 29.9554 52.8056C30.2646 52.8946 30.2848 52.3836 30.6421 52.4472C30.6649 52.3175 30.5255 52.2819 30.4749 52.1574C30.4343 52.0582 30.4318 51.8472 30.3836 51.7913L30.3887 51.7938ZM31.3288 51.7354C31.1666 51.8828 31.1235 52.3607 31.3414 52.5082C31.6734 52.3709 31.7722 51.9997 31.6202 51.6845C31.5441 51.6311 31.3921 51.6794 31.3288 51.7354ZM11.6763 53.8505C11.5294 53.1895 10.9871 52.5361 10.5234 52.0506C10.4677 51.9921 10.1586 51.6489 10.0978 51.7176L10.0724 52.5107C10.4652 53.1183 11.1518 53.3878 11.6789 53.8479L11.6763 53.8505ZM9.06396 53.7895C8.51665 53.5607 8.12644 53.0624 7.56139 52.8285C7.25733 52.7039 6.11711 52.3862 5.79784 52.3429C5.54953 52.3099 5.30121 52.3328 5.0529 52.3277L7.83251 53.7132C8.18978 53.8378 8.51411 53.9547 8.89672 53.8937C8.94993 53.8861 9.07916 53.8683 9.06396 53.7895ZM9.06396 53.9725C8.68135 54.064 8.34181 53.9954 7.97187 53.8784C6.92793 53.5454 5.93974 52.7166 4.87046 52.3887L5.41523 53.1514C5.69396 53.4513 5.9296 53.67 6.31221 53.8352C7.06476 54.1632 8.39502 54.5928 9.06396 53.9725ZM11.6155 54.2165C11.3241 53.5124 10.2827 53.3802 9.9736 52.6328L9.36548 52.8768C9.33001 53.0166 9.39335 52.976 9.4415 53.0166C9.75063 53.2607 10.2498 53.5429 10.5995 53.7412C10.7414 53.82 11.5395 54.275 11.613 54.2165H11.6155ZM27.7282 52.8768C27.3887 52.92 27.2138 52.5667 26.8768 52.6328C26.9706 53.1742 26.6893 53.5174 26.1471 53.3649C26.2155 53.9954 25.8608 53.9725 25.3565 54.003L25.2349 54.3386C25.3286 54.4377 27.4621 53.1641 27.6496 53.0166C27.7003 52.9785 27.7611 53.0166 27.7257 52.8768H27.7282ZM32.6945 53.1971C32.5957 53.1209 32.3499 53.1514 32.2257 53.0878C32.1117 53.0268 32.0332 52.7624 31.8862 52.6963C31.7367 52.6633 31.7114 53.0853 31.344 53.0649C31.0703 53.0497 31.0982 52.8082 30.9107 52.7014C30.3507 52.376 30.3862 53.1615 30.1252 53.187C29.8287 53.2149 29.7705 52.6404 29.4436 52.798C29.2308 52.9022 29.2966 53.2022 29.1851 53.2785L28.5821 53.253L28.5137 53.609C29.9352 53.609 31.3718 53.6649 32.7705 53.3649C32.7756 53.3573 32.7097 53.2124 32.692 53.1997L32.6945 53.1971ZM25.1665 53.8581C24.7459 53.6852 24.9435 53.2429 25.2324 53.0268C24.7991 52.5489 25.0778 52.7217 24.8295 52.8641C24.7231 52.9251 24.4671 52.9099 24.4089 52.9912C24.229 53.2454 24.8726 54.2598 23.6512 54.031C23.7197 54.5724 23.4359 55.0504 22.8632 54.7631C22.8379 54.9868 22.625 55.2233 22.3995 55.2512C22.2602 55.269 22.0701 55.1063 22.0727 55.3732C23.0862 55.2766 24.0592 54.8877 24.9916 54.4911L25.1665 53.8581ZM18.0616 55.5563C18.1199 54.275 17.2634 52.859 15.8724 52.9048L15.6291 53.4844C16.8378 53.7081 17.4738 54.3182 17.9248 55.4215C17.9628 55.5131 17.8893 55.5868 18.0616 55.5563ZM9.42883 53.6064C9.09436 53.3471 8.73456 52.9327 8.2734 52.9988C8.60026 53.2861 8.94993 53.6878 9.42883 53.6064ZM20.7221 53.0726L20.1875 52.9988C20.299 53.5708 20.7019 54.9436 20.3978 55.4317C20.3066 55.5792 20.1495 55.6148 20.0659 55.7393C20.5194 55.6376 20.9223 55.7851 21.0237 55.208C21.0845 54.8648 21.0313 53.2429 20.7221 53.0726ZM28.6986 52.9988C28.4453 52.9531 28.2578 53.1005 28.0931 53.2734L28.3338 53.4259C28.3464 53.3344 28.387 53.2098 28.4529 53.1463C28.5517 53.0497 28.691 53.1056 28.7012 52.9988H28.6986ZM19.701 53.1793C19.0929 53.2988 18.9966 54.3462 18.9713 54.8546C18.9611 55.0631 18.913 55.3961 19.0625 55.5537L19.4704 54.1377C19.6047 53.7666 19.8632 53.6268 19.6985 53.1793H19.701ZM28.3338 53.8505C28.4225 53.7615 27.974 53.4259 27.8777 53.4259L27.3633 53.7615C27.604 54.0894 27.9537 53.6217 28.3338 53.853V53.8505ZM32.7731 53.4844C31.3693 53.7462 29.9402 53.7081 28.5187 53.7589L28.8 54.0869C29.583 53.5657 29.2612 54.5394 29.9681 54.392C30.1505 53.7844 30.2848 54.4225 30.4267 54.5267C30.8397 54.8318 30.9512 54.1276 31.1641 54.092C31.5061 54.036 31.5239 54.547 31.8786 54.3259C32.0357 54.2267 32.023 54.0183 32.2029 53.9191C32.4513 53.7793 32.8085 53.9318 32.7731 53.4869V53.4844ZM10.4601 54.1555L9.6366 53.7259L9.36802 54.003C9.70502 53.9598 9.92799 54.1555 10.1915 54.2115C10.2447 54.2242 10.4753 54.2623 10.4601 54.1555ZM27.4723 53.9852C27.4723 53.9852 27.2746 53.8683 27.2544 53.8632C27.1023 53.8327 26.4663 54.2725 26.2687 54.3716C25.7923 54.6131 25.2957 54.8241 24.8092 55.0402L25.0829 55.3122C25.3185 54.9004 25.544 54.8496 25.9621 55.0707C26.0761 54.5114 26.6893 54.636 26.9123 55.0656C27.153 55.0224 27.2746 54.7377 27.5458 54.7657C27.5559 54.636 27.4368 54.5521 27.4241 54.425C27.4115 54.2852 27.528 54.0767 27.4748 53.9852H27.4723ZM17.8184 55.6783C17.4231 55.0148 16.7009 54.4275 15.9332 54.2776C16.0041 55.1241 17.1089 55.5105 17.8184 55.6783ZM28.6378 54.3386C28.2121 54.2598 27.8371 54.6996 28.1235 55.0707C28.4351 54.9767 28.691 54.6868 28.6378 54.3386ZM19.3387 55.6783C19.3893 55.7292 19.815 55.4698 19.853 55.3732L19.8834 54.5826C19.7365 54.6614 19.293 55.6351 19.3361 55.6783H19.3387ZM26.7096 55.1724C26.6564 55.1292 26.6285 54.9995 26.5449 54.9436C26.2054 54.7097 26.1293 55.1978 25.9824 55.2461C25.7923 55.3097 25.4655 54.8953 25.321 55.3122L25.392 55.4266C26.8692 55.4775 28.24 56.2071 29.7299 56.1054C29.7857 55.8995 29.5906 55.6808 29.3954 55.6834C29.2789 55.6834 29.175 55.8359 29.061 55.7749C28.8912 55.6859 28.8887 55.3122 28.6986 55.2766C28.5086 55.241 28.4858 55.4114 28.3515 55.4902C27.8802 55.7597 27.8422 54.9919 27.5001 54.9614C27.2797 54.9411 27.0466 55.4546 26.7071 55.175L26.7096 55.1724ZM25.2957 56.0444C25.2653 55.5283 24.9106 55.4521 24.5888 55.1394L22.5009 55.8003L22.7137 56.1639C22.9696 55.841 23.2154 55.7673 23.5043 56.1029C23.9604 55.5436 24.2948 55.7724 24.5381 56.3494C24.8041 56.1867 24.9308 55.9681 25.2957 56.0444ZM12.3453 55.3732C11.7473 55.4088 11.2152 55.2156 10.6096 55.2487C10.2194 55.269 9.78863 55.3961 9.39589 55.4343C9.06396 55.4648 8.69908 55.4012 8.36715 55.4393C8.27593 55.4495 8.00228 55.5156 7.96681 55.6173C9.24639 55.6351 10.5209 56.0596 11.7828 55.6936C11.9829 55.6351 12.2465 55.5766 12.3453 55.3732ZM29.7325 56.1664C28.2552 56.3571 26.8337 55.5817 25.3565 55.4953L25.4756 55.8944L26.0483 55.9147C26.1217 55.9707 26.0812 56.3367 26.3118 56.4003C26.5424 56.4638 26.6184 56.1486 26.8743 56.2274C27.1986 57.346 27.4013 56.502 27.6699 56.3774C28.1691 56.1461 27.9258 56.9418 28.4757 56.8223C28.7113 56.7715 28.7443 56.474 28.9419 56.4333C29.1015 56.4003 29.664 56.7765 29.7375 56.1639L29.7325 56.1664ZM18.3707 55.6249C18.277 55.9274 18.1782 56.7359 18.6849 56.5833C18.9966 56.4893 18.9256 55.3656 18.3707 55.6249ZM12.2236 55.6783C10.868 56.2249 9.41869 55.7215 8.03015 55.7698C9.14504 56.6189 11.2177 56.7409 12.2236 55.6783ZM25.2856 56.2376C24.8903 56.0952 24.8396 56.5782 24.5381 56.535C24.1986 56.4842 24.3151 55.9783 23.9882 55.9783C23.7171 55.9783 23.6791 56.2783 23.6132 56.2935C23.3827 56.3444 23.2433 56.024 23.0837 56.0546L22.8658 56.3215C24.1758 56.9443 25.6606 57.4095 27.1201 57.5087C26.9706 57.0994 26.6361 57.3129 26.479 57.2113C26.3447 57.1223 26.3092 56.9291 26.2611 56.7867C26.0204 56.7003 25.8151 56.9774 25.5998 56.8731C25.4452 56.7969 25.3768 56.3952 25.2856 56.2401V56.2376ZM26.0863 56.591L25.9038 56.0418L25.4781 56.1639L25.6606 56.713L26.0863 56.591ZM14.5953 56.2884C13.8326 56.4206 13.0471 56.3622 12.2997 56.5757C11.7169 56.7435 11.2405 57.1477 10.7642 57.5062C11.8512 57.3968 13.0142 57.0994 14.0075 56.6443C14.1975 56.5579 14.461 56.4537 14.5928 56.2884H14.5953ZM14.8386 56.3494C14.3369 56.5986 13.8326 56.8452 13.3056 57.0358C12.4821 57.3333 11.836 57.4248 10.9947 57.5824C10.939 57.5926 10.8123 57.6078 10.8275 57.6892C11.2253 57.7756 11.5218 57.9104 11.9449 57.8646C12.4036 57.8163 12.7507 57.5367 13.1561 57.3714C13.7363 57.135 14.5928 57.0104 14.8386 56.3469V56.3494ZM27.0593 57.6282C25.6048 57.4807 24.2036 57.0358 22.8658 56.4689C22.7771 57.1909 23.2256 56.8274 23.4105 56.9214C23.6259 57.0308 23.517 57.4095 23.7754 57.4807C23.9654 57.5316 24.0997 57.2545 24.3227 57.3231L24.3962 57.7985C24.7788 58.0781 24.8979 57.5824 25.1893 57.6383C25.4807 57.6943 25.4325 58.0197 25.5364 58.0883C25.8126 58.2586 26.0077 57.8926 26.18 57.8697C26.4638 57.8315 26.8236 58.1112 27.0593 57.6282ZM17.8792 56.5325C17.8488 56.5045 17.6156 56.5757 17.5574 56.6062C17.1114 56.8477 16.858 58.3146 16.2981 58.6349C16.3842 58.8078 16.7111 58.6781 16.777 58.734L16.8454 59.0315C17.565 58.4213 17.5016 57.3434 17.8766 56.5325H17.8792ZM19.5008 56.6113C19.4273 56.5503 19.1866 56.4461 19.2145 56.624C19.2424 56.8121 19.4299 57.1528 19.4882 57.3867C19.6579 58.0451 19.7567 58.7518 19.8226 59.4281C19.848 59.7001 19.7542 60.0077 19.9138 60.2492C20.1774 59.9314 20.2306 59.9187 20.6132 60.0661C20.5321 59.0442 20.3598 57.9943 19.8328 57.0994C19.7719 56.9952 19.5718 56.6698 19.5008 56.6113Z" fill="black"/>
<path d="M28.0903 21.5513V28.0111C28.7947 27.284 29.6511 26.5798 30.3099 25.8172C30.4164 25.6926 30.8902 25.174 30.761 25.0265C30.1832 24.9731 30.0667 24.3325 29.755 23.9308C29.494 23.5927 29.076 23.1911 28.6629 23.0767C28.5489 22.9191 28.7212 22.6318 28.6883 22.5047C28.6553 22.3776 28.293 22.1513 28.6629 21.9098C28.929 21.7369 29.0151 21.9937 29.1621 22.0191C29.2964 22.042 29.5625 21.8945 29.7348 22.0013C29.8589 22.525 30.1984 22.8784 30.6216 23.1834C30.8826 23.3716 31.4426 23.58 31.5693 23.88C31.6782 24.1393 31.5439 24.363 32.0228 24.3351C32.1571 24.3274 32.3522 24.091 32.5321 24.3147C32.6993 24.5257 32.3446 24.8333 32.5828 25.1664C32.6284 25.2325 32.7728 25.2172 32.8539 25.2731C33.3784 25.6341 33.5836 26.5696 34.3717 27.0476C34.5668 27.1671 34.734 27.0196 34.7137 27.3628C34.7061 27.4823 34.6073 27.6526 34.62 27.7365C34.6301 27.8102 34.9747 28.0975 34.6935 28.3187C34.4122 28.5399 34.2399 28.2272 34.1335 28.2043C34.022 28.1814 33.7838 28.3314 33.6217 28.2221C33.5 27.767 33.196 27.4137 32.8286 27.1289C32.5118 26.8849 32.0735 26.7552 31.8328 26.4197C31.7618 26.3205 31.7289 26.0256 31.5895 26.0587C31.5338 26.0714 30.8446 26.6866 30.7356 26.7883C29.8336 27.6145 29.0177 28.5729 28.1232 29.4118L28.0852 42.4126C27.8977 43.6863 27.1097 44.7972 25.7794 44.9777L25.7364 45.0413C25.7364 45.0692 25.7845 45.0896 25.7845 45.1023V46.4115C25.673 46.3937 25.3588 46.1751 25.3588 46.0759V45.0692C25.2701 45.0769 25.2524 45.3412 25.2448 45.4124C25.2245 45.5828 25.2397 45.7531 25.2372 45.9234C24.7735 45.8675 24.8723 45.4861 24.8723 45.1328C24.6468 45.0667 24.7963 45.3895 24.7507 45.4379C24.3833 45.3438 24.4568 45.176 23.988 45.1913C22.7059 45.2345 21.2996 45.5624 20.0048 45.6489C19.4246 45.8421 18.8621 46.2819 18.6087 46.8386L18.482 46.8005C18.0842 46.0073 17.5394 45.687 16.6855 45.5675C15.6238 45.4175 14.1618 45.2268 13.1077 45.1913C12.6415 45.176 12.7125 45.3412 12.345 45.4379C12.2994 45.3921 12.4489 45.0667 12.2234 45.1328L12.193 45.7429L11.7977 45.926V45.0718H11.6761V46.137L11.3112 46.4115V45.1023C11.3112 45.0896 11.4025 45.0336 11.3721 45.0108C9.96324 44.8862 9.11187 43.6837 8.94717 42.3516L8.90917 29.4118C8.03499 28.5856 7.2419 27.6653 6.35759 26.8493C6.24104 26.74 5.50116 26.0739 5.44288 26.0612C5.30352 26.0282 5.27058 26.3231 5.19963 26.4222C4.95638 26.7603 4.57124 26.8366 4.26465 27.0679C3.90738 27.3374 3.5121 27.7772 3.41328 28.2246C3.25365 28.3212 3.02307 28.2017 2.89131 28.2195C2.75195 28.2373 2.60752 28.5119 2.34147 28.3187C1.9994 28.0695 2.40735 27.8357 2.41748 27.7365C2.42508 27.673 2.33133 27.5281 2.31866 27.4238C2.27305 27.012 2.41241 27.1849 2.57965 27.0908C3.39554 26.6408 3.63119 25.6519 4.1785 25.2731C4.25451 25.2223 4.39641 25.2248 4.42935 25.1918C4.44455 25.1765 4.55097 24.8232 4.55097 24.7977C4.55097 24.7189 4.46229 24.6528 4.44455 24.5613C4.32546 23.9537 5.02733 24.4393 5.34406 24.2817C5.3922 23.5648 6.02566 23.4834 6.47668 23.1301C6.82889 22.8555 7.19883 22.4462 7.29511 22.0013C7.46741 21.892 7.71826 22.0547 7.86269 22.0242C8.01726 21.9911 8.10087 21.7369 8.36693 21.9098C8.72673 22.1437 8.34919 22.3801 8.33399 22.5555C8.32132 22.6979 8.47081 22.9292 8.36693 23.0767C8.34412 23.1097 8.04766 23.1784 7.90577 23.2851C7.29005 23.7427 7.00626 24.6172 6.52989 24.9554C6.42601 25.0291 6.21317 24.9808 6.22837 25.1765C6.23597 25.2706 6.5451 25.629 6.62871 25.7256C7.06707 26.2315 8.27824 27.5509 8.75714 27.917C8.81795 27.9653 8.83315 28.034 8.93957 28.0085V21.4878C9.50715 21.7852 10.2293 21.7013 10.8552 21.7318C15.5884 21.9734 20.4026 21.8869 25.1384 21.7293C26.124 21.6963 27.1224 21.7522 28.0903 21.5488V21.5513ZM9.18535 21.9174V30.9677L9.27657 31.0592H15.7201L15.7505 22.1615L11.4607 22.103L9.18282 21.9174H9.18535ZM27.847 21.9174L21.2819 22.1005V31.0592H27.7558L27.847 30.9677V21.9174ZM21.0994 31.2422V22.192C21.0158 22.0522 20.9677 22.1615 20.9474 22.1615H18.5453V46.292C19.2193 45.5624 19.9846 45.2014 20.9981 45.2472L21.0716 45.1989L21.0969 36.5732C20.4229 35.6173 19.3992 34.8369 18.6974 33.9217C18.6492 33.8607 18.5808 33.8454 18.6062 33.7387H27.847V31.2397H21.0994V31.2422ZM7.42687 22.1666C7.37113 22.5301 7.10508 22.8352 6.84662 23.0767C6.4108 23.4783 5.06534 23.9029 5.75708 24.6528C6.44881 25.4028 6.94544 23.9868 7.33059 23.5622C7.57383 23.2902 7.86523 23.0665 8.18702 22.8936C8.19462 22.5021 7.83482 22.0903 7.42687 22.1691V22.1666ZM29.6055 22.1666C29.1798 22.0954 28.7871 22.5352 28.8226 22.9496C29.0988 22.9801 29.418 23.2673 29.6106 23.4682C29.9299 23.8012 30.3657 24.7927 30.7382 24.841C31.2044 24.902 31.5743 24.3783 31.3868 23.9436C31.2931 23.73 30.505 23.3639 30.2466 23.1377C29.9628 22.8911 29.6663 22.5453 29.603 22.1666H29.6055ZM6.08394 25.0265C5.75454 25.0799 5.5493 24.5918 5.41501 24.5079C5.03747 24.274 4.23931 25.1409 4.89811 25.6977C5.47075 26.1807 5.92938 25.5706 6.08394 25.0265ZM30.9485 25.0291C31.0777 25.5884 31.6174 26.1985 32.1672 25.6697C32.6715 25.1816 32.2128 24.3757 31.5667 24.4876C31.4907 24.7927 31.2424 24.9604 30.951 25.0291H30.9485ZM4.50029 25.3952C4.21904 25.1918 3.62865 26.3942 3.44115 26.6103C3.18523 26.9078 2.86597 27.1518 2.5239 27.3399C2.51377 27.7289 2.87357 28.1433 3.28405 28.0645C3.38287 27.5382 3.83136 27.1544 4.24438 26.8645C4.57631 26.6307 5.16416 26.5188 5.10588 26.0078C4.82969 25.929 4.57124 25.6824 4.50029 25.3952ZM33.7534 28.0645C34.1715 28.1407 34.4654 27.7543 34.5288 27.3781C34.1664 27.1391 33.8117 26.89 33.533 26.5493C33.3708 26.351 32.8108 25.1918 32.5346 25.3952C32.4637 25.7485 32.1318 25.9061 31.8682 26.0917C32.0177 26.5671 32.4814 26.6434 32.8311 26.89C33.2314 27.1721 33.6394 27.5789 33.7534 28.067V28.0645ZM18.4871 33.7412L15.9634 31.2422H9.18535V33.7412H18.4871ZM15.7505 36.6647H9.27657L9.18535 36.7562V41.9372C9.18535 43.1117 9.91763 44.4388 11.1288 44.6828L15.7531 45.1989V36.6673L15.7505 36.6647ZM21.2819 45.1963C23.0024 44.9294 24.809 45.0057 26.4712 44.4566C27.2972 44.0651 27.847 42.8804 27.847 41.9957V36.7562L27.7558 36.6647H21.2819V45.1963Z" fill="black"/>
<path d="M60.2515 38.0659L63.1401 46.6001L65.9678 38.0659H67.7922V48.1229H66.0287V41.9682L63.9534 48.1127L62.4382 48.0949L60.1299 41.9072V48.1229H58.4297V38.0659H60.2515Z" fill="black"/>
<path d="M18.9857 11.3623C19.0515 11.4004 19.1757 11.3623 19.2745 11.408C19.5963 11.5529 19.5659 12.1503 19.3987 12.4122C19.4696 12.4681 19.8142 12.1275 20.1588 12.4122C20.468 12.6664 20.2146 12.9588 20.2526 13.0147C20.321 13.1088 20.6403 13.1291 20.7239 13.4926C20.8404 14.0061 20.4122 14.0316 20.3235 14.1917C20.2805 14.268 20.3286 14.4434 20.2957 14.5629C20.1234 15.2213 19.31 15.0001 18.9122 14.6671C19.2695 16.2941 22.3962 16.6602 23.0449 15.0942C22.7383 15.2544 22.1124 15.5086 21.8869 15.1298C21.7425 14.8858 21.892 14.6849 21.8666 14.512C21.8464 14.3722 21.5043 14.2934 21.598 13.8587C21.669 13.5333 22.0896 13.4621 22.1631 13.3274C22.2619 13.1494 22.1099 12.852 22.4393 12.7528C22.7687 12.6537 22.9917 12.7528 23.2273 12.9613C23.1868 12.6257 23.0905 12.1859 23.2628 11.8682C23.4249 11.5707 23.5896 11.7538 23.7163 11.708C23.8608 11.6572 23.919 11.3063 24.2586 11.4665C24.3701 11.5199 24.3979 11.6775 24.4587 11.7233C24.5525 11.7919 24.6995 11.7461 24.7983 11.9012C25.0441 12.28 24.6488 12.9181 24.6843 12.9613C24.968 12.7478 25.452 12.8545 25.4799 13.2359C25.49 13.363 25.4115 13.5206 25.4267 13.5943C25.452 13.7291 25.8067 13.8638 25.6927 14.2426C25.6091 14.5222 25.2012 14.6417 25.1809 14.6773C25.0922 14.8197 25.3101 15.2366 24.8844 15.4476C24.4005 15.684 24.0229 15.3662 23.653 15.0968C23.7999 16.6882 25.8143 17.0949 26.8735 16.1009C26.4503 16.1085 25.8878 16.1289 25.8954 15.5518C25.9005 15.1934 26.1919 15.1196 26.2071 15.0637C26.2223 15.0078 26.0525 14.8425 26.0272 14.6976C25.9486 14.2273 26.1818 13.7901 26.6911 14.0011C26.6809 13.6299 27.023 13.4799 27.3473 13.6147C27.4892 13.6757 27.4715 13.8994 27.6032 13.9401C27.6666 13.5994 27.8997 13.1977 28.3026 13.2689C28.5585 13.3121 28.4647 13.5943 28.5281 13.6858C28.5686 13.7418 28.7789 13.7163 28.8752 13.8562C29.0577 14.1155 28.7536 14.6646 28.4698 14.7231C28.3254 14.7536 28.0543 14.6392 28.0289 14.7663C28.0061 14.873 28.5179 15.1781 28.1151 15.7069C27.8997 15.9891 27.6945 15.8747 27.5424 15.9865C27.4993 16.017 27.1902 16.7339 27.0559 16.8992C26.8253 17.189 26.5846 17.283 26.2679 17.4483C26.6404 17.9059 26.1792 18.2389 25.7257 18.277L25.7839 18.8999C25.7738 18.9482 25.5356 19.0448 25.4748 19.1516C25.1961 19.632 26.0627 19.5787 25.6598 20.1303C25.1581 20.8192 22.4215 21.1218 21.555 21.1955C19.2593 21.3938 16.6773 21.3709 14.3893 21.0658C13.7153 20.9769 11.7009 20.682 11.3791 20.0591C11.1612 19.6371 11.6705 19.5583 11.6832 19.3982C11.7085 19.0473 11.369 19.0473 11.3183 18.8999L11.3664 18.277C10.8039 18.2033 10.5125 17.911 10.8242 17.3568C10.3301 17.3008 10.0488 16.9119 9.80305 16.5204C9.7397 16.4212 9.5598 15.9865 9.53446 15.9662C9.40524 15.8747 9.13918 15.9789 8.93901 15.6789C8.61468 15.1908 9.10624 14.7968 8.99982 14.6722C8.61468 14.8451 8.27515 14.6137 8.21433 14.2121C8.12058 13.5969 8.49052 13.7901 8.56654 13.6909C8.60708 13.6375 8.51586 13.3528 8.75911 13.2409C9.14425 13.0655 9.4103 13.5536 9.57754 13.818C9.67129 13.607 9.83092 13.5486 10.059 13.5765C10.3858 13.6172 10.3529 13.8968 10.4086 13.9324C10.5455 14.0189 11.0142 13.7951 11.113 14.2299C11.2195 14.6925 10.9331 14.9112 10.9433 15.0637C10.9433 15.0968 11.3107 15.1883 11.1637 15.651C11.113 15.8137 10.8647 16.0018 10.7051 16.045C10.5075 16.0984 10.3985 16.0272 10.2186 16.045C11.1637 16.9907 13.4112 16.7924 13.3783 15.1629C13.0083 15.5594 12.2431 15.8416 11.9492 15.2239C11.8225 14.9544 11.934 14.7586 11.9188 14.7383C11.8985 14.7078 11.4931 14.6112 11.3968 14.3138C11.2651 13.8994 11.6299 13.8231 11.6603 13.663C11.673 13.5918 11.6021 13.4265 11.6071 13.302C11.6274 12.6664 12.3065 12.9994 12.3445 12.9664C12.2026 12.6435 11.9923 12.1148 12.3825 11.8758C12.461 11.8275 12.5903 11.83 12.6333 11.7944C12.6891 11.7487 12.6637 11.6139 12.7474 11.5606C13.0945 11.3318 13.2212 11.7105 13.358 11.7385C13.4568 11.7614 13.5506 11.6597 13.6798 11.7131C14.0219 11.858 13.9509 12.6079 13.8648 12.9028C13.9003 12.9384 14.4526 12.5164 14.8352 12.8139C15.0785 13.002 14.8834 13.2918 14.9695 13.4418C15.0227 13.5333 15.4307 13.6045 15.494 13.9884C15.5447 14.296 15.2407 14.4637 15.2255 14.5781C15.2128 14.6722 15.2812 14.84 15.2584 15.0027C15.2229 15.2595 14.9999 15.4044 14.7516 15.3967C14.5033 15.3891 14.2322 15.1857 13.9864 15.1883C14.7086 16.134 16.201 16.3094 17.2323 15.8213C17.5388 15.6764 18.0735 15.1629 18.1216 14.8247C18.1546 14.5934 17.7035 14.9391 17.5895 14.962C17.3412 15.0129 16.8724 14.9976 16.7534 14.7307C16.6773 14.5629 16.761 14.3722 16.7128 14.2222C16.6849 14.1383 16.5253 14.09 16.4518 13.9985C16.2669 13.7723 16.2593 13.5435 16.4189 13.2994C16.5076 13.1621 16.7635 13.0401 16.7787 13.0198C16.799 12.9893 16.5456 12.5723 16.9434 12.3639C17.2348 12.2139 17.3564 12.3613 17.6351 12.4147C17.5236 12.1427 17.4451 11.8402 17.6098 11.5682C17.7441 11.3445 17.9367 11.3902 18.1166 11.286C18.3243 11.1665 18.3547 10.8894 18.7272 11.047C18.8564 11.103 18.9477 11.3445 18.9857 11.3673V11.3623ZM19.1554 13.3859C19.3455 13.7418 19.0743 14.1409 18.7297 14.268C19.0541 14.5222 19.4494 14.9061 19.9029 14.7739C20.2627 14.6671 20.06 14.1892 20.1386 14.0646C20.1538 14.0417 20.3641 14.0036 20.4629 13.8714C20.7365 13.5003 20.3387 13.2232 20.0347 13.0808C19.9663 12.9791 20.3565 12.5469 19.9054 12.4808C19.794 12.4656 19.6014 12.5418 19.5026 12.6003C19.2619 12.7427 19.1909 13.0833 18.9173 13.0782C19.0262 12.6664 19.424 12.2393 19.3303 11.7843C19.2568 11.4284 18.9882 11.6216 18.864 11.5478C18.8134 11.5173 18.8032 11.1614 18.5245 11.1894C18.3421 11.1945 18.3066 11.4741 18.1875 11.5275C18.0684 11.5809 17.9088 11.5275 17.8201 11.586C17.4071 11.8504 18.1976 13.0096 18.1267 13.0808C18.0177 13.1901 17.6782 12.6842 17.5414 12.6029C17.3209 12.4707 17.0042 12.3919 16.9079 12.6867C17.1258 13.2613 16.9409 13.0172 16.6647 13.2892C16.467 13.4825 16.4493 13.6757 16.6368 13.874C16.7458 13.9909 16.9586 14.0443 16.9713 14.0595C17.0346 14.1434 16.6925 14.6722 17.141 14.7714C17.5895 14.8705 18.0279 14.5324 18.3725 14.268C18.0152 14.1714 17.7694 13.7189 17.9468 13.3859L17.2221 12.8622L17.0954 12.6537C17.1258 12.6207 17.7416 13.1265 17.8049 13.1901C17.8682 13.2537 17.9772 13.2486 17.9443 13.3859C18.0152 13.2537 18.3623 13.0833 18.5245 13.0782C18.712 13.0732 19.0769 13.2282 19.1605 13.3859L19.7382 12.7757L19.9511 12.6537L19.7686 12.9283L19.1605 13.3833L19.1554 13.3859ZM23.4097 14.6671C23.4604 14.901 23.0398 15.5671 22.865 15.7348C22.0871 16.4873 20.3615 16.3628 19.5 15.8137C18.9679 15.473 18.7247 14.9112 18.6081 14.301C18.4536 14.2782 18.5144 14.3138 18.4814 14.3875C18.3142 14.7586 18.2433 15.1222 17.9721 15.4603C16.9561 16.7339 14.108 16.4823 13.6241 14.7891H13.5024C14.0599 17.0161 10.6443 17.4737 9.85372 15.7628C9.79291 15.7399 9.67636 15.8137 9.67382 15.8543C9.66369 16.0374 10.2946 16.9043 10.5024 17.0339C10.9889 17.3364 11.1663 17.1051 11.5843 16.9831C14.6933 16.0704 19.424 16.1009 22.6496 16.4365C23.3515 16.5102 24.0483 16.6551 24.7476 16.739L24.1699 16.434C23.7062 16.0323 23.3793 15.4069 23.5314 14.7891C23.6834 14.6595 24.1826 15.4832 24.702 15.3256C25.1175 15.201 24.9224 14.6747 24.9985 14.5553C25.0314 14.5019 25.5255 14.4154 25.4748 14.1816C25.4393 14.1485 24.6843 14.3036 24.5348 14.3061C24.4131 14.3061 24.4359 14.296 24.4435 14.1816C24.6868 14.2222 24.9123 14.1333 25.1403 14.1155C25.2797 14.1053 25.5711 14.2299 25.5382 14.0875C25.4799 13.8434 25.262 13.7723 25.1125 13.5994C25.561 13.1291 25.1479 12.8876 24.6437 13.1901C24.4283 13.3198 24.3219 13.5714 24.0787 13.6299C23.9646 13.4977 24.9554 12.4503 24.6589 12.041C24.5854 11.9393 24.3929 12.0182 24.3295 11.9749C24.2408 11.919 24.2636 11.2021 23.7923 11.9266L23.468 11.886C23.1133 12.1478 23.62 13.4748 23.5618 13.5689C23.5288 13.6223 23.43 13.6782 23.4047 13.5943C23.316 13.2638 22.9638 12.8494 22.5888 12.8978C22.267 12.941 22.4342 13.2969 22.343 13.4494C22.2949 13.5282 21.8337 13.6935 21.7729 13.9197C21.6943 14.207 22.0237 14.3239 22.0592 14.4663C22.0997 14.6315 21.8464 14.9696 22.1454 15.112C22.5482 15.3027 23.202 14.657 23.4047 14.6671C23.354 14.4383 22.9562 14.3188 23.3109 13.8714C23.8 13.2537 24.7273 13.9604 24.2282 14.5476C23.9646 14.8578 23.6885 14.6824 23.4047 14.6646L23.4097 14.6671ZM13.2668 11.9749C13.2491 11.9648 13.1984 11.797 13.1097 11.736C12.8183 11.5326 12.8436 11.9241 12.7094 12.0156C12.646 12.0588 12.4965 11.98 12.4205 12.0563C12.043 12.4478 13.0666 13.5587 12.9526 13.6884C12.5624 13.5384 12.3876 13.002 11.8985 13.0859C11.6147 13.2384 11.9517 13.5969 11.9163 13.7113C11.8808 13.8358 11.4399 13.9045 11.5995 14.2807C11.7034 14.5248 12.0607 14.5603 12.0962 14.6087C12.1494 14.6849 11.9593 14.9468 12.1899 15.2162C12.5573 15.6459 13.092 15.1781 13.3783 14.8756L12.8893 14.6341C12.3774 14.1638 13.0464 13.3986 13.6519 13.8079C13.9915 14.0367 13.9636 14.4587 13.6823 14.7205C14.1182 14.9417 14.4729 15.2544 15.0101 15.14C15.1773 14.9315 14.9822 14.629 15.0278 14.4612C15.0608 14.3392 15.3268 14.2197 15.3217 14.0189C15.3167 13.8358 14.891 13.5841 14.7415 13.5028L14.7668 12.9613C14.3868 12.791 14.103 12.9155 13.8648 13.2282C13.7609 13.2816 13.7229 13.6706 13.5911 13.6223C13.472 13.5791 13.5379 13.4799 13.5531 13.4062C13.6418 12.9257 13.9535 12.3003 13.5911 11.8605C13.5075 11.9088 13.358 12.0207 13.2643 11.9673L13.2668 11.9749ZM18.4079 13.2765C18.2509 13.3121 18.0633 13.4952 18.0633 13.6604C18.1166 14.1536 18.8742 14.2222 19.0085 13.7519C19.1048 13.4164 18.7095 13.2104 18.4079 13.274V13.2765ZM9.48885 14.5451C9.47112 14.2273 9.33429 13.452 8.95928 13.396C8.85793 13.3808 8.81232 13.3909 8.76418 13.485L8.81992 13.874L8.42211 13.9299C8.29542 14.1129 8.49559 14.4892 8.68056 14.5375C8.80979 14.5705 8.89847 14.3976 9.0277 14.418C9.08597 14.4256 9.13412 14.6671 9.20253 14.7103C9.30135 14.7739 9.48632 14.7332 9.67636 14.8756C9.94241 15.0764 9.96268 15.3408 9.85626 15.6382C10.2059 15.7298 10.5936 16.0806 10.9179 15.6967C11.2701 15.2823 10.6722 15.2467 10.6468 15.0586C10.6367 14.9849 10.8926 14.84 10.9382 14.6188C11.1105 13.7824 10.3225 14.2756 10.2845 14.2375C10.3098 14.029 10.1781 13.6782 9.90187 13.757C9.60794 13.9248 9.67889 14.2578 9.67636 14.5426H9.49392L9.48885 14.5451ZM27.8465 14.6671C27.9681 14.5756 28.0112 14.4612 28.1201 14.3646L28.2519 14.5502C28.7612 14.4892 29.0146 13.7951 28.2722 13.8765C28.4749 13.302 28.0517 13.3553 27.8338 13.7723C27.7147 14.0036 27.659 14.3493 27.664 14.6087H27.4816C27.4993 14.3519 27.4157 13.6579 27.0382 13.7646C26.7823 13.8562 26.9571 14.1485 26.7823 14.3036C26.4149 13.9782 26.1361 14.1434 26.2071 14.6341C26.2476 14.9086 26.5289 14.9518 26.5086 15.2162C26.3363 15.2162 26.1083 15.3078 26.0804 15.4959C26.0804 16.0653 26.8101 15.9408 27.1395 15.6967C27.3118 15.5721 27.0965 15.3611 27.246 15.0713C27.3955 14.7815 27.6564 14.8095 27.8465 14.6671L27.735 14.5858C27.849 14.3443 27.8921 14.0494 28.001 13.8129C28.0441 13.7214 27.9909 13.663 28.1505 13.6909L27.8465 14.6646V14.6671ZM24.0635 14.4688C24.1015 14.4307 24.1927 14.2172 24.1876 14.1587C24.0179 13.6782 23.4655 13.7214 23.354 14.2095C23.354 14.5553 23.8658 14.657 24.0635 14.4688ZM13.2389 13.8841C12.7778 13.9578 12.7651 14.6315 13.3453 14.6087C13.9256 14.5858 13.7432 13.8053 13.2389 13.8841ZM9.22533 14.9188C8.85539 15.0103 9.00236 15.8289 9.43311 15.7323C9.93988 15.6204 9.69916 14.7993 9.22533 14.9188ZM27.9529 15.6255C28.1277 15.4603 28.1303 15.0815 27.9073 14.9391C27.0002 14.812 27.436 16.1136 27.9529 15.6255ZM25.9942 16.8C25.6953 16.8458 25.3025 16.767 24.9909 16.8L26.0095 17.2144C26.6911 17.3466 27.284 16.3424 27.3625 15.7628C27.099 16.1136 26.8836 16.4111 26.4731 16.6094C26.387 16.65 26.0627 16.7899 25.9942 16.8ZM25.8448 18.0152C26.4098 17.972 26.2679 17.5652 25.8853 17.3339C24.7071 16.617 21.5195 16.5458 20.098 16.4924C17.6757 16.4009 14.554 16.378 12.1975 16.9856C11.8732 17.0695 10.8799 17.3339 10.8799 17.7432C10.8698 17.9389 11.0421 18.005 11.2119 18.0228C11.6274 17.3695 12.755 17.2729 13.4796 17.1737C16.467 16.7619 21.8464 16.6678 24.7476 17.3771C25.1099 17.4661 25.7738 17.6084 25.8448 18.0152ZM25.0517 18.5669C25.3507 18.5821 25.8295 18.0381 25.561 17.8423C25.2392 17.6084 23.9951 17.4178 23.5516 17.3568C20.5744 16.9449 15.2457 16.8534 12.3546 17.5729C12.1773 17.6161 11.4652 17.7915 11.45 17.9872C11.5438 18.3126 11.6908 18.5084 12.0404 18.5669C11.9669 18.8618 11.7414 18.9584 11.858 19.2965C12.9475 18.9406 14.0903 18.7372 15.2331 18.6253C17.3159 18.422 19.7762 18.422 21.859 18.6253C23.0018 18.7372 24.142 18.9456 25.2341 19.2965C25.376 18.9609 25.115 18.8618 25.0517 18.5669ZM25.0517 20.3337C26.164 19.8227 25.2088 19.4744 24.55 19.2812C21.6893 18.4448 15.4003 18.4448 12.5421 19.2812C12.2862 19.3549 11.5286 19.5812 11.5033 19.8863C11.4754 20.0362 12.0176 20.3591 12.0404 20.3337C11.9061 19.9524 12.5295 19.7591 12.8107 19.7464C13.4188 19.7159 14.5439 19.9803 15.2356 20.0286C17.6554 20.1964 20.1715 20.1684 22.5913 19.9676C23.1412 19.9218 24.6032 19.5481 24.9934 19.9981C25.0821 20.1023 25.0542 20.2142 25.0542 20.3337H25.0517Z" fill="black"/>
<path d="M67.3067 34.3474H65.7256V29.624C65.7256 29.6037 65.6521 29.2757 65.6369 29.2274C65.3303 28.2589 64.0811 28.5283 63.3565 28.8029C63.6149 30.6257 63.4173 32.5043 63.4781 34.3474H61.8362V29.502C61.8362 29.4817 61.7475 29.169 61.7272 29.1232C61.3725 28.2462 60.1309 28.5385 59.4645 28.8614V34.3449H57.8226V27.5496C57.8226 27.5318 57.7389 27.4632 57.7618 27.3971H59.13L59.2821 28.0072C59.5937 27.8699 59.8547 27.6589 60.179 27.5343C61.1875 27.1454 62.272 27.1556 63.0296 28.0021C64.1141 27.1784 66.4249 26.8174 67.1167 28.2894C67.1547 28.3707 67.3067 28.78 67.3067 28.8309V34.3449V34.3474Z" fill="black"/>
<path d="M83.1726 38.0659V46.445C83.1726 46.6052 83.3019 47.1136 83.3475 47.3068C83.4134 47.5839 83.535 47.8432 83.5983 48.1229H82.1084L81.6219 47.4543C80.6211 48.6262 78.746 48.4533 77.7604 47.3627C76.8127 46.3128 76.6252 44.5358 77.1092 43.2342C77.7958 41.386 79.7444 40.5852 81.5307 41.4216V38.071H83.1726V38.0659ZM81.5231 42.5859C79.3947 41.658 78.2342 43.3893 78.6396 45.3849C78.969 47.0068 80.1042 47.3526 81.5206 46.6509V42.5859H81.5231Z" fill="black"/>
<path d="M47.4226 38.0659V45.6544C47.4961 46.5035 47.5595 47.3297 47.9091 48.1203H46.3584L45.9327 47.4517C44.3212 49.0635 41.9749 48.1305 41.3414 46.0815C40.4141 43.0791 42.697 40.0971 45.8415 41.4191V38.0685H47.4226V38.0659ZM45.8339 42.5859C43.6194 41.6479 42.4918 43.4655 42.953 45.5044C43.0695 46.023 43.4623 46.7907 44.0172 46.9357C44.3542 47.0246 45.7098 46.9611 45.8314 46.5569V42.5859H45.8339Z" fill="black"/>
<path d="M45.2208 24.0085C46.3332 23.95 47.6558 24.2246 48.3856 25.1271L47.5114 26.3066C46.9666 25.8338 46.5029 25.4575 45.7504 25.394C41.899 25.066 42.4893 32.5859 44.9877 33.1045C46.1381 33.3434 47.0401 32.8274 47.6964 31.9274L48.7555 32.8681C48.7834 32.9443 48.7428 32.985 48.7048 33.0409C48.4996 33.3485 47.7217 33.9841 47.3822 34.1544C46.7158 34.4925 45.7073 34.5917 44.97 34.523C39.8998 34.0527 39.7705 24.2983 45.2234 24.0059L45.2208 24.0085Z" fill="black"/>
<path d="M103.959 47.4518C102.854 48.4916 100.003 48.7611 99.7728 46.8061C99.4561 44.1419 101.825 43.7733 103.9 43.7351C103.969 42.6903 103.396 42.1107 102.35 42.2124C101.726 42.2734 101.217 42.731 100.769 43.1225L99.9527 42.1717C99.9172 41.9683 100.951 41.4472 101.149 41.3709C102.499 40.8523 105.271 40.9921 105.482 42.8479C105.616 44.0453 105.286 45.6418 105.555 46.796C105.689 47.3679 106.308 46.9993 106.46 47.1086L106.629 47.7772C105.892 48.3594 104.283 48.5933 103.964 47.4468L103.959 47.4518ZM103.898 44.5258C102.654 44.4902 101.164 44.9122 101.493 46.4782C101.704 47.4823 103.353 47.0858 103.898 46.5672V44.5258Z" fill="black"/>
<path d="M71.7265 41.1292C73.5939 40.8902 75.1522 41.5588 75.6033 43.4883C76.1835 45.9848 74.9065 48.527 72.0838 48.2956C68.0575 47.9652 68.1487 41.5842 71.7265 41.1292ZM72.3371 42.2249C70.0339 42.3469 70.381 47.7821 72.8084 47.0906C74.349 46.6508 74.6632 42.1028 72.3371 42.2249Z" fill="black"/>
<path d="M52.7624 27.2996C55.5749 27.058 56.8317 29.4528 56.2718 31.9747C55.5319 35.2999 50.7708 35.4066 49.8865 32.1577C49.2682 29.8901 50.2311 27.5182 52.7624 27.2996ZM53.9685 32.9865C54.9846 31.9874 55.0859 28.5478 53.1678 28.4359C50.7531 28.2961 50.9583 33.6347 53.2134 33.3576C53.4617 33.3271 53.7886 33.1619 53.9685 32.9865Z" fill="black"/>
<path d="M90.1632 31.2428H85.9697C86.028 32.6207 86.9149 33.6757 88.3744 33.1953C88.9065 33.0198 89.0864 32.6411 89.5171 32.3436L90.4014 33.2156C89.5627 34.296 88.2882 34.5935 86.9732 34.4714C83.0229 34.1079 83.2433 26.3161 88.2223 27.3711C90.0898 27.7677 90.5104 29.5726 90.1658 31.2428H90.1632ZM88.5213 30.2056C88.7975 27.9431 85.7873 28.0092 85.9672 30.2056H88.5213Z" fill="black"/>
<path d="M86.5143 45.0129C86.5371 47.1789 88.7466 47.85 90.0084 46.1213L91.0118 46.9933C90.4062 47.6263 89.7322 48.0992 88.8479 48.2364C86.0227 48.6737 84.6012 46.734 84.809 44.0672C84.9813 41.8504 86.8741 40.6327 88.9924 41.22C90.614 41.6699 91.0321 43.3554 90.7711 44.8604C90.7584 44.929 90.7407 44.9748 90.6799 45.0129H86.5168H86.5143ZM89.1292 43.9783C89.0481 43.419 89.0329 42.73 88.4425 42.4428C87.3758 41.9216 86.3698 42.8877 86.5143 43.9783H89.1292Z" fill="black"/>
<path d="M82.8666 34.3479H81.2247V29.5635C81.2247 29.5406 81.1107 29.2025 81.0879 29.1517C80.6343 28.1628 79.2027 28.6204 78.4273 28.9229V34.3454H76.7854L76.7246 27.3976H78.2449L78.3665 28.0687C79.6334 26.8815 82.0786 27.0112 82.7121 28.8009C82.7425 28.8848 82.8666 29.3296 82.8666 29.3779V34.3454V34.3479Z" fill="black"/>
<path d="M98.4897 48.1209H96.8477V43.3365C96.8477 43.2221 96.6096 42.7314 96.5158 42.6323C95.9888 42.073 94.623 42.3933 94.0504 42.7874V48.1184H92.4085L92.3477 41.1705H93.868L93.9896 41.8417C95.254 40.7231 97.58 40.7841 98.2971 42.4899C98.3326 42.5713 98.4871 43.0467 98.4871 43.0924V48.1209H98.4897Z" fill="black"/>
<path d="M70.5242 27.4014V32.4908C70.5242 32.5061 70.6306 32.7451 70.6559 32.7857C71.1145 33.5535 72.7767 33.1061 73.3823 32.6739V27.4039H74.9634C75.047 29.275 74.8519 31.2426 74.9609 33.1035C74.9837 33.5077 75.0724 33.9526 75.1459 34.3492H73.5648L73.4127 33.617C72.1559 34.6797 69.6221 34.9873 69.0241 33.0832C68.9912 32.9815 68.8848 32.562 68.8848 32.4908V27.4014H70.5267H70.5242Z" fill="black"/>
<path d="M51.1927 48.1231H49.5508V41.1753H51.1015L51.1927 41.2668V48.1231Z" fill="black"/>
<path d="M50.0829 38.1426C51.4284 37.8629 51.6438 39.706 50.5897 39.9297C49.3329 40.1967 49.1023 38.3459 50.0829 38.1426Z" fill="black"/>
<path d="M10.8285 46.8418C10.7829 46.2775 10.5676 45.5555 11.1934 45.2581C11.2238 45.4767 11.1301 45.6826 11.1275 45.8987C11.1275 46.2622 11.3632 46.6817 10.8285 46.8418Z" fill="black"/>
<path d="M26.2692 46.8418C26.1475 46.8749 25.9043 46.6563 25.9043 46.5673V45.2581C25.998 45.2936 26.2692 45.5885 26.2692 45.6546V46.8418Z" fill="black"/>
<path d="M26.7555 47.2067C26.6541 47.2677 26.3906 47.0389 26.3906 46.9932V46.017L26.4818 45.928C26.5224 45.9839 26.7555 46.1771 26.7555 46.2V47.2067Z" fill="black"/>
<path d="M10.3418 47.2067V46.2C10.3418 46.1059 10.6256 45.8974 10.6459 45.9254C10.5369 46.3525 11.0031 47.1431 10.3418 47.2041V47.2067Z" fill="black"/>
<path d="M10.2193 46.4763C10.1737 46.8602 10.3992 47.3712 9.91522 47.511C9.87722 47.117 9.71252 46.6187 10.2193 46.4763Z" fill="black"/>
<path d="M27.1772 47.511C26.6223 47.3635 26.9339 46.8983 26.8731 46.4763C27.3545 46.6187 27.1316 47.1271 27.1772 47.511Z" fill="black"/>
<path d="M9.78469 47.625C9.76695 47.653 9.40968 47.7877 9.36914 47.7572L9.6732 47.0886C9.8303 47.114 9.82776 47.5538 9.78469 47.6276V47.625Z" fill="black"/>
<path d="M27.7256 47.7572C27.604 47.7648 27.3177 47.686 27.2695 47.5793L27.2999 47.0886L27.7256 47.7572Z" fill="black"/>
<path d="M21.1678 48.9805V49.1102C21.335 49.339 21.4262 49.6186 21.6137 49.8296C21.6897 49.916 21.819 49.9135 21.8291 50.0076C21.0892 50.0584 21.2919 49.0237 20.6154 48.9729C20.5749 49.2246 20.4608 49.5271 20.5546 49.7661L20.1289 49.705C20.1568 49.5932 20.248 49.6567 20.3139 49.494C20.3595 49.3771 20.5749 48.0526 20.5597 47.9763C20.5445 47.9052 20.4076 47.9763 20.4355 47.8772C21.1652 47.8899 22.0901 48.3475 21.1728 48.9805H21.1678ZM21.2083 48.8992C21.4921 48.6068 21.2438 47.8899 20.737 48.0602L20.6407 48.8509C20.7573 48.9856 21.0892 49.0212 21.2083 48.8966V48.8992Z" fill="black"/>
<path d="M12.5289 50.3773L12.1058 50.4358L11.9284 49.7443L11.3101 49.7367C11.2316 49.935 11.0593 50.1688 11.1302 50.3773H10.8262L11.7079 48.552C11.8169 48.552 12.1944 50.029 12.2983 50.2146C12.3541 50.3137 12.4098 50.3722 12.5289 50.3798V50.3773ZM11.86 49.5841C11.8068 49.4062 11.7688 49.213 11.7079 49.0376C11.6877 48.9791 11.7003 48.8977 11.6193 48.9155L11.376 49.5841H11.8625H11.86Z" fill="black"/>
<path d="M16.9678 49.6456L16.5446 49.7677C16.494 49.5211 16.3394 49.0762 16.0455 49.1092C15.5463 49.1652 15.597 49.3457 15.5666 49.8007L15.6933 49.9482L15.2676 50.0092C15.6071 49.4321 15.5463 48.6466 15.7541 47.9983L16.7245 49.4906L16.9678 49.6431V49.6456ZM16.1164 49.0355C16.1646 48.9847 15.8681 48.4203 15.7515 48.3644L15.6907 49.0965L16.1164 49.0355Z" fill="black"/>
<path d="M26.3305 50.3167C26.3254 50.4235 25.8693 50.3854 25.8516 50.3701L25.5906 49.6557C24.9774 49.5235 24.8735 49.821 24.8634 50.3701L24.4453 50.4362C24.4554 50.3167 24.5897 50.4209 24.6784 50.276C24.9166 49.8947 25.0053 48.9338 25.2359 48.4863L26.0568 50.1921L26.328 50.3167H26.3305ZM25.2967 48.9134C25.1396 48.8956 25.2004 48.9134 25.1751 49.0024C25.1497 49.0863 25.0332 49.5642 25.056 49.5846H25.5425L25.2992 48.9134H25.2967Z" fill="black"/>
<path d="M22.4382 49.8279C22.7473 49.4262 23.1249 48.9127 23.2288 48.4272L23.5936 48.4882L23.3808 48.6102L22.3166 50.194L21.8301 48.1831L22.1671 48.2416L22.4382 49.8279Z" fill="black"/>
<path d="M14.047 48.3657L13.857 48.4623L13.2261 50.3766L12.2227 48.6403C12.6458 48.381 12.5343 48.5945 12.6331 48.836L13.2539 50.0105C13.3502 49.4945 13.6771 48.9479 13.6188 48.4267L14.0445 48.3657H14.047Z" fill="black"/>
<path d="M18.5164 47.7576C18.8053 47.8186 18.8433 48.2127 18.7217 48.4516C18.6811 48.5279 18.4962 48.744 18.4252 48.6423C18.823 48.2787 18.5114 47.7169 17.9995 47.8186V49.4329C17.9995 49.5295 18.258 49.4761 18.2428 49.5854H17.6955C17.9337 49.255 17.7816 48.8711 17.7563 48.5177C17.7436 48.3245 17.7943 48.0118 17.7563 47.8567C17.7386 47.7856 17.6068 47.8567 17.6321 47.7576C17.8906 47.7957 18.2757 47.7068 18.5139 47.7576H18.5164Z" fill="black"/>
<path d="M19.9479 47.817V48.0611C19.7578 47.8704 19.6058 47.8501 19.3397 47.878L19.2789 48.6102L19.8871 48.5797L19.8237 48.8517C19.7274 48.8746 19.7958 48.7627 19.7198 48.7322C19.6615 48.7093 19.2941 48.6534 19.2789 48.6687C19.2561 49.2534 19.0737 49.8126 19.8871 49.4618V49.6449L18.9141 49.5838C19.056 49.3474 19.0864 48.8797 19.099 48.5822C19.1066 48.417 19.1294 47.9848 19.099 47.8577C19.0813 47.7865 18.9495 47.8577 18.9774 47.7585L19.9504 47.8196L19.9479 47.817Z" fill="black"/>
<path d="M24.0797 50.3777C24.0975 50.3955 24.3432 50.3345 24.2317 50.4388L23.7148 50.3752C23.8542 50.1667 23.8821 49.76 23.8973 49.4905C23.915 49.1905 23.9302 48.8245 23.8365 48.5474H24.2622C24.2875 48.6491 24.1583 48.5728 24.1405 48.649C24.1304 48.6923 24.0797 48.9872 24.0797 49.005C24.0797 49.1905 24.029 50.3294 24.0797 50.3752V50.3777Z" fill="black"/>
<path d="M14.5948 48.3066C14.5466 48.7058 14.6454 49.2473 14.7341 49.6591C14.7696 49.8269 14.8051 49.987 14.8988 50.1345L14.4731 50.1955C14.4959 50.1141 14.5821 50.0887 14.5897 49.987C14.6024 49.8091 14.425 48.9142 14.3743 48.6803C14.3515 48.5736 14.3211 48.4719 14.2324 48.3982L14.5948 48.3066Z" fill="black"/>
<path d="M16.4012 17.4194C17.0879 17.2135 17.2804 18.2812 16.6191 18.3702C16.0515 18.4464 15.9324 17.5617 16.4012 17.4194Z" fill="black"/>
<path d="M12.5449 17.9133C13.077 17.382 13.6978 18.4523 13.0745 18.7166C12.5322 18.9454 12.2003 18.2565 12.5449 17.9133Z" fill="black"/>
<path d="M24.0622 17.7844C24.7692 17.5734 24.792 18.6717 24.2269 18.7454C23.5859 18.8293 23.6137 17.9192 24.0622 17.7844Z" fill="black"/>
<path d="M20.3558 17.4233C21.2173 17.225 21.1514 18.5749 20.3076 18.2978C19.9605 18.1834 19.9706 17.5123 20.3558 17.4233Z" fill="black"/>
<path d="M22.4227 17.5393C22.5925 17.4986 22.8991 17.8952 22.9726 18.0503L22.3543 18.4341L21.8906 17.9257C21.8906 17.8927 22.3822 17.5495 22.4202 17.5393H22.4227Z" fill="black"/>
<path d="M15.204 17.8999C15.1254 18.032 14.8417 18.449 14.6871 18.449L14.1094 18.0524L14.5731 17.5439L15.2015 17.9024L15.204 17.8999Z" fill="black"/>
<path d="M19.0946 17.8967C18.9046 17.8789 18.6639 18.3441 18.5245 18.3213L18 17.8103L18.5676 17.3552L19.0921 17.8993L19.0946 17.8967Z" fill="black"/>
<path d="M23.8979 13.5678C23.7914 13.5627 23.7712 13.6085 23.7889 13.4916C23.8649 13.0314 23.9283 12.4696 24.0372 12.0323C24.0524 11.9713 24.055 11.8493 24.1411 11.862L23.8979 13.5678Z" fill="black"/>
<path d="M23.1069 14.1196C23.1069 14.2238 23.1423 14.2518 23.0207 14.2365C22.7217 14.1984 22.3999 14.1755 22.1035 14.117C22.0148 14.0992 21.916 14.117 21.8906 13.9976L23.1069 14.1196Z" fill="black"/>
<path d="M23.2888 13.811C23.2178 13.8745 22.744 13.3686 22.6807 13.2949C22.6249 13.2263 22.5337 13.1958 22.559 13.0814C22.6427 12.9975 23.3395 13.7652 23.2888 13.811Z" fill="black"/>
<path d="M23.1676 14.4827C22.9344 14.7572 22.4961 14.7826 22.1946 14.9708C22.1667 14.836 22.2579 14.8309 22.3441 14.7852C22.5594 14.6657 22.9243 14.5488 23.1676 14.4827Z" fill="black"/>
<path d="M25.1122 13.2034C25.0945 13.3534 24.8563 13.5084 24.7423 13.5923C24.6156 13.6864 24.4965 13.8313 24.3242 13.811L25.1148 13.2034H25.1122Z" fill="black"/>
<path d="M23.5925 19.6059L22.2243 19.7864C19.2977 19.9593 16.3534 19.9618 13.4395 19.6338C13.4395 19.5652 14.681 19.433 14.8077 19.4203C15.3297 19.3669 15.9251 19.3161 16.4446 19.2957C18.801 19.2042 21.2614 19.2856 23.59 19.6033L23.5925 19.6059Z" fill="black"/>
<path d="M18.6099 11.4338H18.4883V13.0176H18.6099V11.4338Z" fill="black"/>
<path d="M17.8196 13.6899C17.8196 13.7941 17.5535 13.756 17.4826 13.7535C17.2621 13.7407 16.9733 13.7153 16.7553 13.6899C16.6641 13.6797 16.5678 13.6416 16.6667 13.5679L17.8221 13.6899H17.8196Z" fill="black"/>
<path d="M18.0001 14.117C17.7492 14.3789 17.3362 14.4755 17.0271 14.6636C16.9942 14.5213 17.1918 14.4679 17.2906 14.4094C17.4908 14.2899 17.7644 14.1425 18.0001 14.1145V14.117Z" fill="black"/>
<path d="M20.3699 13.5683C20.3775 13.6623 20.2153 13.6725 20.1519 13.6827C19.8834 13.731 19.5514 13.7437 19.2778 13.7488C19.2676 13.6573 19.4399 13.6598 19.5084 13.6445C19.7845 13.5912 20.0911 13.5607 20.3724 13.5657L20.3699 13.5683Z" fill="black"/>
<path d="M19.9451 14.6652C19.6512 14.5585 19.2965 14.3475 19.0938 14.1187C19.3953 14.1797 19.7373 14.4364 19.9451 14.6652Z" fill="black"/>
<path d="M13.0138 11.8622L13.3179 13.629C13.1456 13.657 13.2165 13.5934 13.1887 13.4892C13.067 13.0392 12.9859 12.4164 12.9074 11.9385C12.8871 11.8215 12.9074 11.8647 13.0138 11.8622Z" fill="black"/>
<path d="M15.2036 14.0559C15.1934 14.1423 14.935 14.1601 14.8615 14.1703C14.5828 14.2059 14.2711 14.2059 13.9873 14.2389C13.8911 14.1652 13.9873 14.1271 14.076 14.1169C14.4434 14.0737 14.8311 14.0559 15.201 14.0559H15.2036Z" fill="black"/>
<path d="M14.5364 13.082L13.8066 13.8726C13.8142 13.6362 14.1436 13.3514 14.3235 13.2014C14.392 13.143 14.4224 13.054 14.5364 13.0794V13.082Z" fill="black"/>
<path d="M12.649 14.177C12.6541 14.2863 12.6794 14.3067 12.5578 14.2991C12.2639 14.2813 11.9016 14.2152 11.6152 14.1465C11.9142 13.9991 12.3272 14.2126 12.649 14.177Z" fill="black"/>
<path d="M14.8988 15.0292C14.5998 14.8284 14.1513 14.7547 13.9258 14.4827C14.1665 14.5945 14.5415 14.7089 14.7594 14.836C14.843 14.8843 14.9241 14.9098 14.8988 15.0318V15.0292Z" fill="black"/>
<path d="M12.7105 13.9349L11.9199 13.3274C12.0415 13.2969 12.0846 13.3655 12.1657 13.4163C12.2468 13.4672 12.7916 13.8485 12.7105 13.9375V13.9349Z" fill="black"/>
<path d="M9.36904 14.6681C9.27783 14.7825 9.23728 14.5867 9.21955 14.5461C9.09792 14.2842 8.9687 13.9156 8.94336 13.6309C9.02951 13.6309 9.06245 13.8037 9.09286 13.8775C9.1334 13.9817 9.39438 14.635 9.36904 14.6681Z" fill="black"/>
<path d="M10.7648 14.3008L10.2809 14.8194L9.91602 15.0304C9.99203 14.9084 10.1137 14.7914 10.2201 14.6948C10.362 14.5652 10.59 14.3694 10.7674 14.3008H10.7648Z" fill="black"/>
<path d="M10.886 15.5822C10.8961 15.7016 10.701 15.6305 10.6402 15.6152C10.4958 15.5822 10.2297 15.4881 10.0954 15.4271C10.0042 15.3839 9.94593 15.4373 9.9738 15.2771L10.886 15.5822Z" fill="black"/>
<path d="M10.0367 13.8731C9.94046 14.1247 9.92019 14.4171 9.82137 14.6637C9.78336 14.7628 9.82644 14.8137 9.67188 14.7857C9.77323 14.534 9.79857 14.2595 9.89992 14.0053C9.93793 13.9137 9.86445 13.84 10.0367 13.8705V13.8731Z" fill="black"/>
<path d="M27.1181 15.0909L26.4568 14.5672L26.3301 14.3613L26.999 14.8774L27.1181 15.0909Z" fill="black"/>
<path d="M27.0577 15.3372C27.0881 15.51 27.0172 15.4363 26.9234 15.4744C26.703 15.5609 26.4395 15.6575 26.2064 15.7032C26.1759 15.5304 26.2469 15.6041 26.3406 15.566C26.5712 15.4744 26.8195 15.4083 27.0577 15.3372Z" fill="black"/>
<path d="M27.3601 14.8495C27.1371 14.6461 27.1295 14.2191 27.0586 13.9343C27.2816 14.1377 27.2892 14.5648 27.3601 14.8495Z" fill="black"/>
</g>
<defs>
<clipPath id="clip0_121_2013">
<rect width="106.63" height="70" fill="white"/>
</clipPath>
</defs>
</svg>
