<svg width="250" height="250" viewBox="0 0 250 250" fill="none" xmlns="http://www.w3.org/2000/svg">
<path d="M24.0685 105.6C21.5743 105.6 19.2598 105.778 17.125 106.158C17.0891 106.158 17.0532 106.166 17.0173 106.174C16.6405 106.247 16.2726 106.319 15.9138 106.4C17.0891 108.292 16.9905 110.637 15.627 112.44C14.1289 114.421 11.3838 115.343 8.80038 114.753C8.89884 114.995 10.029 117.914 8.11827 120.292C6.44998 122.345 3.18447 123.162 0.179686 122.143C0.0538512 123.13 0 124.148 0 125.216C0 129.372 0.941757 132.857 2.81657 135.662C4.70045 138.468 7.49944 140.595 11.2222 142.018C14.9361 143.449 19.5833 144.169 25.1628 144.169C27.3786 144.169 29.397 144.047 31.218 143.813C31.5948 143.732 31.9714 143.643 32.3306 143.554C34.8155 142.915 37.1028 141.953 39.1751 140.676V130.544C39.0853 130.585 38.9421 130.649 38.7537 130.754C37.8023 131.434 36.5645 132.024 35.0305 132.517C33.4877 133.018 31.6305 133.269 29.4596 133.269C27.235 133.269 25.3689 132.946 23.8529 132.307C22.3371 131.668 21.2157 130.738 20.4803 129.533C19.7443 128.329 19.3768 126.817 19.3768 125.005C19.3768 123.227 19.7356 121.739 20.4444 120.55C21.1531 119.362 22.2564 118.448 23.7452 117.809C25.2346 117.162 27.1366 116.847 29.4596 116.847C31.5859 116.847 33.4877 117.081 35.1741 117.567C36.8517 118.044 38.1882 118.626 39.1751 119.297V108.85C37.381 107.815 35.1828 107.023 32.5815 106.449C29.9802 105.883 27.1366 105.6 24.0685 105.6Z" fill="white"/>
<path d="M81.5053 126.23C83.2825 125.488 84.701 124.408 85.7685 122.991C86.8325 121.576 87.3641 119.857 87.3641 117.838C87.3641 115.466 86.6553 113.449 85.2326 111.784C83.8141 110.119 81.6826 108.826 78.8417 107.905C75.9969 106.984 72.4225 106.523 68.1109 106.523H43.8164V143.707H61.72V125.975L68.9651 143.707H88.1461L79.8618 126.794C80.4249 126.638 80.974 126.453 81.5053 126.23ZM67.6878 121.901C66.7368 122.487 65.27 122.778 63.2793 122.778H61.72V115.766H63.5654C65.5078 115.766 66.9141 116.05 67.7925 116.617C68.667 117.183 69.1061 118.016 69.1061 119.114C69.1061 120.388 68.6347 121.317 67.6878 121.901Z" fill="white"/>
<path d="M109.793 106.523H91.752V143.707H109.793V106.523Z" fill="white"/>
<path d="M151.084 123.644C148.884 122.067 145.562 120.996 141.122 120.428L136.086 119.844C134.764 119.666 133.887 119.455 133.464 119.205C133.038 118.957 132.825 118.587 132.825 118.089C132.825 117.487 133.227 117.037 134.031 116.734C134.832 116.434 136.13 116.282 137.928 116.282C140.812 116.282 143.483 116.566 145.945 117.132C148.402 117.7 150.433 118.408 152.041 119.259V109.214C150.151 108.222 147.847 107.37 145.128 106.661C142.409 105.954 139.087 105.6 135.166 105.6C130.436 105.6 126.514 106.131 123.393 107.193C120.272 108.257 117.956 109.745 116.443 111.659C114.931 113.571 114.176 115.769 114.176 118.248C114.176 121.367 115.285 123.776 117.51 125.478C119.729 127.178 123.084 128.367 127.576 129.038L132.539 129.729C132.729 129.765 132.869 129.801 132.965 129.835C133.062 129.871 133.154 129.871 133.251 129.835C134.245 130.049 134.904 130.306 135.234 130.606C135.563 130.908 135.733 131.29 135.733 131.749C135.733 132.388 135.379 132.858 134.666 133.158C133.959 133.46 132.825 133.61 131.265 133.61C129.374 133.61 127.375 133.424 125.272 133.051C123.168 132.679 121.193 132.174 119.351 131.537C117.51 130.899 115.924 130.208 114.602 129.465V140.147C116.962 141.388 119.79 142.406 123.076 143.204C126.358 144 129.965 144.4 133.887 144.4C137.952 144.4 141.52 143.868 144.597 142.804C147.669 141.742 150.066 140.209 151.792 138.206C153.517 136.206 154.382 133.822 154.382 131.058C154.382 127.692 153.28 125.221 151.084 123.644Z" fill="white"/>
<path d="M192.716 108.038C189.891 107.03 186.416 106.523 182.292 106.523H158.246V143.707H176.244V131.33H181.51C185.682 131.33 189.266 130.826 192.252 129.817C195.242 128.806 197.494 127.355 199.011 125.46C200.528 123.566 201.287 121.344 201.287 118.794C201.287 116.281 200.565 114.112 199.12 112.288C197.671 110.464 195.537 109.047 192.716 108.038ZM182.183 122.087C181.307 122.725 179.992 123.044 178.236 123.044H176.244V115.873H178.52C180.324 115.873 181.602 116.166 182.361 116.749C183.12 117.333 183.503 118.246 183.503 119.484C183.503 120.583 183.063 121.451 182.183 122.087Z" fill="white"/>
<path d="M229.795 106.523L224.672 118.632L219.549 106.523H199.484L215.634 132.02V143.707H233.709V131.968L250 106.523H229.795Z" fill="white"/>
</svg>
