<svg width="77" height="70" viewBox="0 0 77 70" fill="none" xmlns="http://www.w3.org/2000/svg">
<g clip-path="url(#clip0_121_1879)">
<rect width="76.99" height="70"/>
<path d="M17.9121 23.0781C20.1951 23.0781 22.3113 23.3129 24.2471 23.7812C26.1831 24.2563 27.8192 24.912 29.1543 25.7686V34.415C28.4199 33.8597 27.4252 33.3772 26.1768 32.9824C24.922 32.5809 23.5061 32.3867 21.9238 32.3867C20.1952 32.3868 18.7801 32.6483 17.6719 33.1836C16.5639 33.7121 15.7423 34.4684 15.2148 35.4521C14.6875 36.4358 14.4209 37.6675 14.4209 39.1396C14.4209 40.6384 14.6947 41.8897 15.2422 42.8867C15.7896 43.8837 16.6239 44.654 17.752 45.1826C18.8801 45.7113 20.2685 45.9785 21.9238 45.9785C23.5395 45.9785 24.9222 45.7712 26.0703 45.3564C27.2118 44.9483 28.1328 44.4596 28.8408 43.8975C28.9808 43.8106 29.0874 43.7571 29.1543 43.7236V52.1094C27.6122 53.1666 25.9097 53.9627 24.0605 54.4912C23.7936 54.5648 23.5133 54.6382 23.2334 54.7051C21.8783 54.8992 20.3756 55 18.7266 55C14.5742 55 11.1156 54.4044 8.35156 53.2197C5.58108 52.042 3.49773 50.2819 2.0957 47.96C0.700529 45.6376 3.32416e-05 42.7532 0 39.3135C1.38818e-07 38.4303 0.0402469 37.5869 0.133789 36.7705C2.36993 37.6136 4.80035 36.9378 6.04199 35.2383C7.46392 33.2707 6.62318 30.8542 6.5498 30.6533C8.47236 31.1417 10.5151 30.3788 11.6299 28.7393C12.6445 27.2469 12.7173 25.3061 11.8428 23.7402C12.1096 23.6733 12.3839 23.613 12.6641 23.5527C12.6907 23.5461 12.7176 23.5402 12.7441 23.54C14.333 23.2255 16.056 23.0781 17.9121 23.0781ZM37.8281 44.999C38.3236 44.999 38.7771 45.0645 39.1875 45.1943C39.5977 45.3245 39.9205 45.4913 40.1562 45.6943V47.791C39.9775 47.6124 39.7481 47.46 39.4678 47.334C39.1874 47.2081 38.8645 47.1446 38.499 47.1445C38.1009 47.1445 37.7697 47.2283 37.5059 47.3945C37.2418 47.5611 37.0404 47.8088 36.9023 48.1377C36.7641 48.4667 36.6944 48.8795 36.6943 49.375C36.6943 49.8789 36.7641 50.2996 36.9023 50.6367C37.0404 50.974 37.2437 51.2262 37.5117 51.3926C37.7797 51.5591 38.1127 51.6425 38.5107 51.6426C38.8764 51.6426 39.1919 51.5773 39.4561 51.4473C39.7198 51.3173 39.9332 51.1587 40.0957 50.9717C40.12 50.9394 40.1446 50.9112 40.1689 50.8867V52.9834C39.8927 53.2435 39.5507 53.4439 39.1445 53.5859C38.7381 53.7281 38.2794 53.7998 37.7676 53.7998C36.9632 53.7998 36.2741 53.6214 35.7012 53.2637C35.1285 52.9062 34.6939 52.4002 34.3975 51.7461C34.1007 51.0922 33.9522 50.3222 33.9521 49.4365C33.9521 48.5428 34.1046 47.7602 34.4092 47.0898C34.7139 46.4193 35.1573 45.9037 35.7383 45.542C36.3191 45.1807 37.0157 44.9991 37.8281 44.999ZM49.8223 50.6553C49.8223 50.8907 49.8522 51.0796 49.9131 51.2217C49.9741 51.3638 50.0637 51.4702 50.1816 51.5391C50.2992 51.6082 50.4474 51.6425 50.626 51.6426C50.8859 51.6426 51.0837 51.5628 51.2178 51.4043C51.3517 51.2459 51.4189 50.9962 51.4189 50.6553V45.1338H54.0518V50.6553C54.0517 51.4027 53.9274 52.0077 53.6797 52.4707C53.4316 52.9338 53.0582 53.2713 52.5586 53.4824C52.0587 53.6937 51.4141 53.7998 50.626 53.7998C49.838 53.7998 49.1939 53.6937 48.6943 53.4824C48.1947 53.2713 47.821 52.9337 47.5732 52.4707C47.3253 52.0077 47.2012 51.4027 47.2012 50.6553V45.1338H49.8223V50.6553ZM43.7402 51.6299H46.6406V53.666H41.1191V45.1338H43.7402V51.6299ZM58.9277 45.1338C59.5612 45.1338 60.0873 45.2291 60.5059 45.4199C60.924 45.6109 61.2308 45.8749 61.4258 46.2119C61.6208 46.5491 61.7188 46.9419 61.7188 47.3887C61.7187 47.7787 61.6107 48.126 61.3955 48.4307C61.18 48.7354 60.8971 48.9532 60.5479 49.083C61.0109 49.2535 61.3745 49.5176 61.6387 49.875C61.9026 50.2326 62.0352 50.6633 62.0352 51.167C62.0352 51.6221 61.9271 52.0381 61.7119 52.416C61.4966 52.7938 61.1639 53.0969 60.7129 53.3242C60.262 53.5517 59.6951 53.666 59.0127 53.666H55.1973V45.1338H58.9277ZM57.8301 50.0576V51.8125H58.1592C58.5655 51.8125 58.8583 51.7383 59.0371 51.5879C59.2158 51.4376 59.3047 51.2072 59.3047 50.8984C59.3046 50.6062 59.2239 50.3928 59.0615 50.2588C58.8989 50.1246 58.626 50.0576 58.2441 50.0576H57.8301ZM57.8301 46.9736V48.5098H58.415C58.6912 48.5098 58.9089 48.4426 59.0674 48.3086C59.2257 48.1746 59.3046 47.9858 59.3047 47.7422C59.3047 47.4903 59.2258 47.2991 59.0674 47.1689C58.9089 47.0391 58.6832 46.9736 58.3906 46.9736H57.8301ZM37.8281 34.6387C38.3236 34.6387 38.7771 34.7041 39.1875 34.834C39.5977 34.9641 39.9205 35.131 40.1562 35.334V37.4297C39.9775 37.2511 39.748 37.0986 39.4678 36.9727C39.1875 36.8468 38.8645 36.7842 38.499 36.7842C38.1009 36.7842 37.7697 36.8679 37.5059 37.0342C37.2418 37.2008 37.0404 37.4484 36.9023 37.7773C36.7641 38.1064 36.6943 38.5191 36.6943 39.0146C36.6943 39.5185 36.7641 39.9393 36.9023 40.2764C37.0404 40.6136 37.2437 40.8659 37.5117 41.0322C37.7797 41.1987 38.1128 41.2822 38.5107 41.2822C38.8764 41.2822 39.1919 41.2169 39.4561 41.0869C39.7198 40.957 39.9332 40.7983 40.0957 40.6113C40.12 40.579 40.1446 40.5508 40.1689 40.5264V42.623C39.8927 42.8831 39.5507 43.0836 39.1445 43.2256C38.7381 43.3677 38.2794 43.4394 37.7676 43.4395C36.9632 43.4395 36.2741 43.2611 35.7012 42.9033C35.1285 42.5459 34.6939 42.0398 34.3975 41.3857C34.1007 40.7317 33.9521 39.961 33.9521 39.0752C33.9522 38.1817 34.1047 37.3997 34.4092 36.7295C34.7139 36.059 35.1573 35.5433 35.7383 35.1816C36.3191 34.8203 37.0156 34.6387 37.8281 34.6387ZM64.2822 39.6641L65.1426 34.7734H68.6406L69.043 43.3047H66.6787L66.4463 37.1455L65.3262 43.3047H63.0957L62.0283 37.0977L61.8154 43.3174H59.585L59.9141 34.7734H63.4854L64.2822 39.6641ZM43.7402 43.3047H41.1191V34.7734H43.7402V43.3047ZM49.5537 39.4951V34.7734H51.7715V43.3047H48.8955L47.1279 37.8965V43.3047H44.9336V34.7734H48.1641L49.5537 39.4951ZM58.6719 36.8086H55.5879V37.9902H58.3418V39.8555H55.5879V41.2695H58.8662V43.3047H52.9668V34.7734H58.6719V36.8086ZM76.9902 43.3047H74.1621L73.9551 41.8184H72.4434L72.2363 43.3047H69.5674L71.4199 34.7734H75.0645L76.9902 43.3047ZM72.6875 40.0869H73.7119L73.1992 36.4668L72.6875 40.0869ZM37.8281 24.2783C38.3236 24.2783 38.7771 24.3438 39.1875 24.4736C39.5977 24.6037 39.9205 24.7706 40.1562 24.9736V27.0693C39.9775 26.8908 39.748 26.7383 39.4678 26.6123C39.1875 26.4864 38.8645 26.4239 38.499 26.4238C38.1009 26.4238 37.7697 26.5075 37.5059 26.6738C37.2417 26.8404 37.0404 27.088 36.9023 27.417C36.7641 27.7461 36.6943 28.1587 36.6943 28.6543C36.6943 29.1581 36.7641 29.5789 36.9023 29.916C37.0404 30.2532 37.2437 30.5056 37.5117 30.6719C37.7797 30.8384 38.1128 30.9209 38.5107 30.9209C38.8764 30.9209 39.1919 30.8566 39.4561 30.7266C39.7198 30.5966 39.9332 30.438 40.0957 30.251C40.12 30.2187 40.1446 30.1905 40.1689 30.166V32.2617C39.8927 32.5218 39.5507 32.7232 39.1445 32.8652C38.7382 33.0073 38.2794 33.0791 37.7676 33.0791C36.9632 33.0791 36.2741 32.8998 35.7012 32.542C35.1285 32.1845 34.6939 31.6785 34.3975 31.0244C34.1008 30.3705 33.9521 29.6005 33.9521 28.7148C33.9522 27.8213 34.1047 27.0394 34.4092 26.3691C34.7139 25.6986 35.1573 25.182 35.7383 24.8203C36.3191 24.4591 37.0158 24.2784 37.8281 24.2783ZM55.6357 24.2783C56.237 24.2783 56.7556 24.36 57.1904 24.5225C57.6247 24.685 57.9889 24.8801 58.2812 25.1074V27.1309C58.0211 26.9196 57.6856 26.7364 57.2754 26.582C56.865 26.4277 56.4198 26.3506 55.9404 26.3506C55.6237 26.3506 55.3939 26.3979 55.252 26.4912C55.1099 26.5847 55.0391 26.7244 55.0391 26.9111C55.0391 27.0572 55.0855 27.1689 55.1787 27.2461C55.272 27.3233 55.4734 27.3985 55.7822 27.4717L56.5254 27.6543C57.2646 27.8413 57.8052 28.1261 58.1465 28.5078C58.4877 28.8899 58.6592 29.4546 58.6592 30.2021C58.6592 30.7871 58.5265 31.295 58.2627 31.7256C57.9985 32.1564 57.6268 32.49 57.1475 32.7256C56.6679 32.9612 56.1113 33.0791 55.4775 33.0791C54.8763 33.0791 54.3158 32.991 53.7959 32.8164C53.2759 32.6418 52.8288 32.4125 52.4551 32.1279V29.9219C52.7067 30.1251 52.9808 30.3039 53.2773 30.458C53.5738 30.6124 53.8868 30.7322 54.2158 30.8174C54.5449 30.9027 54.8721 30.9453 55.1973 30.9453C55.4734 30.9453 55.6765 30.8992 55.8066 30.8057C55.9365 30.7123 56.002 30.5718 56.002 30.3848C56.0019 30.2307 55.9647 30.1107 55.8916 30.0254C55.8185 29.9401 55.6805 29.8612 55.4775 29.7881L55.3311 29.7393L54.5635 29.5195C53.808 29.3002 53.2574 28.9955 52.9121 28.6055C52.5667 28.2155 52.3936 27.6834 52.3936 27.0088C52.3936 26.4645 52.5132 25.9867 52.7529 25.5762C52.9926 25.166 53.3546 24.8476 53.8379 24.6201C54.3213 24.3926 54.9207 24.2783 55.6357 24.2783ZM44.8125 24.4121C45.4868 24.4121 46.0535 24.5166 46.5127 24.7236C46.9716 24.9308 47.3155 25.2228 47.543 25.6006C47.7703 25.9784 47.8838 26.4283 47.8838 26.9482C47.8837 27.4112 47.7904 27.8115 47.6035 28.1484C47.4166 28.4856 47.1465 28.7478 46.793 28.9346C46.6865 28.9909 46.5722 29.0378 46.4521 29.0771L48.1035 32.9443H45.251L43.7402 28.8008V32.9443H41.1191V24.4121H44.8125ZM51.4434 32.9443H48.8223V24.4121H51.4434V32.9443ZM63.168 24.4121C63.818 24.4121 64.3709 24.5246 64.8262 24.748C65.281 24.9716 65.6249 25.2882 65.8564 25.6982C66.088 26.1088 66.2031 26.5946 66.2031 27.1553C66.2031 27.7079 66.0798 28.1894 65.832 28.5996C65.584 29.01 65.2096 29.3293 64.71 29.5566C64.2102 29.784 63.595 29.8974 62.8643 29.8975H62.1318V32.9443H59.5117V24.4121H63.168ZM69.915 27.6055L70.9326 24.4121H73.8213L71.2246 30.2871V32.9443H68.6406V30.2871L66.0693 24.4121H68.9219L69.915 27.6055ZM62.1318 28.2158H62.5342C62.8591 28.2158 63.1094 28.128 63.2842 27.9531C63.4588 27.7786 63.5458 27.5451 63.5459 27.2529C63.5459 26.928 63.4687 26.6877 63.3145 26.5332C63.16 26.3792 62.9242 26.3018 62.6074 26.3018H62.1318V28.2158ZM43.7402 28.1426H43.9834C44.3977 28.1426 44.7006 28.0627 44.8916 27.9043C45.0824 27.7458 45.1777 27.5045 45.1777 27.1797C45.1777 26.871 45.0906 26.6433 44.916 26.4971C44.7411 26.3507 44.4547 26.2773 44.0566 26.2773H43.7402V28.1426Z" fill="black"/>
</g>
<defs>
<clipPath id="clip0_121_1879">
<rect width="76.99" height="70"/>
</clipPath>
</defs>
</svg>
