<svg width="99" height="70" viewBox="0 0 99 70" fill="none" xmlns="http://www.w3.org/2000/svg">
<rect width="99" height="70" fill="white"/>
<path d="M14.6456 7.98151C14.6664 7.9704 16.8513 6.92633 19.4825 6.92633C22.1004 6.92633 24.2992 7.97109 24.3221 7.98221L24.8404 8.23368L25.911 6.31087C25.9907 6.16778 26.0101 6.00244 25.9651 5.84544C25.9207 5.68847 25.8175 5.55856 25.6747 5.47798C25.5846 5.42797 25.4828 5.40088 25.3795 5.40088C25.1585 5.40088 24.954 5.52105 24.8459 5.71486L24.3234 6.65265C23.5044 6.32754 21.6452 5.70306 19.4825 5.70306C17.3211 5.70306 15.4612 6.32755 14.6415 6.65265L14.1197 5.71486C14.0115 5.52106 13.8071 5.40088 13.5861 5.40088C13.4828 5.40088 13.3803 5.42727 13.2902 5.47868C12.9957 5.64331 12.8897 6.01703 13.0539 6.31017L14.1245 8.23368L14.6456 7.98151Z" fill="black"/>
<path d="M18.1469 2.56257C18.4837 2.56257 18.7567 2.28819 18.7567 1.95058C18.7567 1.54976 19.0831 1.2226 19.4829 1.2226C19.8835 1.2226 20.2098 1.54977 20.2098 1.95058C20.2098 2.28819 20.4829 2.56257 20.8196 2.56257C21.1557 2.56257 21.4294 2.28819 21.4294 1.95058C21.4294 0.875271 20.5563 0 19.4829 0C18.4102 0 17.5371 0.875271 17.5371 1.95058C17.5371 2.28819 17.8101 2.56257 18.1469 2.56257Z" fill="black"/>
<path d="M9.81868 3.97791C9.92609 4.05989 10.0543 4.10364 10.1887 4.10364H10.1894C10.38 4.10364 10.5567 4.01611 10.6745 3.86469C10.8463 3.63892 11.1152 3.51666 11.4007 3.5389C11.7125 3.56252 11.9821 3.75702 12.1048 4.04599C12.2011 4.27246 12.4214 4.41833 12.6661 4.41833C12.7485 4.41833 12.8282 4.40234 12.9044 4.3697C13.2135 4.23771 13.3583 3.87787 13.2267 3.56737C12.9259 2.85673 12.2621 2.37811 11.4929 2.31908C10.793 2.26697 10.1298 2.56569 9.70505 3.12003C9.50132 3.38745 9.55189 3.7723 9.81868 3.97791Z" fill="black"/>
<path d="M26.0626 4.36952C26.1381 4.40217 26.2185 4.41885 26.301 4.41885C26.5463 4.41885 26.7666 4.27226 26.8623 4.04581C26.9849 3.75614 27.2552 3.56234 27.567 3.5387C27.8518 3.51509 28.12 3.63805 28.2939 3.86451C28.4096 4.01594 28.5863 4.10346 28.7783 4.10346C28.9127 4.10346 29.0409 4.05969 29.1483 3.97773C29.4151 3.77212 29.4657 3.38727 29.2613 3.11982C28.8372 2.56618 28.1754 2.26609 27.4741 2.31959C26.7057 2.37793 26.0411 2.85655 25.7397 3.56718C25.6087 3.87769 25.7535 4.23754 26.0626 4.36952Z" fill="black"/>
<path d="M13.8488 3.15998C14.1849 3.15998 14.4586 2.8856 14.4586 2.54869C14.4586 2.14718 14.7836 1.82001 15.1848 1.82001C15.5853 1.82001 15.9117 2.14718 15.9117 2.54869C15.9117 2.88561 16.1847 3.15998 16.5215 3.15998C16.8569 3.15998 17.1306 2.8856 17.1306 2.54869C17.1306 1.47268 16.2575 0.597412 15.1848 0.597412C14.1114 0.597412 13.2383 1.47268 13.2383 2.54869C13.2383 2.88561 13.512 3.15998 13.8488 3.15998Z" fill="black"/>
<path d="M22.4457 3.15998C22.7818 3.15998 23.0555 2.8856 23.0555 2.54869C23.0555 2.14718 23.3812 1.82001 23.7825 1.82001C24.183 1.82001 24.5087 2.14718 24.5087 2.54869C24.5087 2.88561 24.7824 3.15998 25.1185 3.15998C25.4546 3.15998 25.7283 2.8856 25.7283 2.54869C25.7283 1.47268 24.8552 0.597412 23.7825 0.597412C22.7091 0.597412 21.8359 1.47268 21.8359 2.54869C21.8359 2.88561 22.1097 3.15998 22.4457 3.15998Z" fill="black"/>
<path d="M14.4234 28.7499C14.255 28.5811 13.9827 28.5811 13.8143 28.7499L12.8885 29.6793C12.7194 29.8474 12.7194 30.1211 12.8885 30.2893C12.9717 30.3726 13.0826 30.4157 13.1927 30.4157C13.3029 30.4157 13.4131 30.3726 13.4969 30.2893L14.4234 29.3605C14.5925 29.1917 14.5925 28.918 14.4234 28.7499Z" fill="black"/>
<path d="M17.1407 30.2893C17.2252 30.3733 17.3354 30.4157 17.4449 30.4157C17.5551 30.4157 17.6659 30.3733 17.7498 30.2893C17.9182 30.1211 17.9182 29.8475 17.7498 29.6793L16.8233 28.7499C16.6549 28.5811 16.3819 28.5811 16.2142 28.7499C16.0458 28.9187 16.0458 29.1917 16.2142 29.3605L17.1407 30.2893Z" fill="black"/>
<path d="M15.8702 27.7927C15.8702 27.487 15.6228 27.239 15.3179 27.239C15.013 27.239 14.7656 27.487 14.7656 27.7927C14.7656 28.0983 15.013 28.3463 15.3179 28.3463C15.6228 28.3463 15.8702 28.0983 15.8702 27.7927Z" fill="black"/>
<path d="M15.8651 30.1009C15.8651 29.3924 15.3177 28.8179 15.3177 28.8179C15.3177 28.8179 14.7695 29.3924 14.7695 30.1009C14.7695 30.8094 15.3177 31.3832 15.3177 31.3832C15.3177 31.3832 15.8651 30.8094 15.8651 30.1009Z" fill="black"/>
<path d="M22.7535 28.7499C22.5851 28.5811 22.3128 28.5811 22.1444 28.7499L21.2186 29.6793C21.0495 29.8474 21.0495 30.1211 21.2186 30.2893C21.3018 30.3726 21.4126 30.4157 21.5228 30.4157C21.633 30.4157 21.7432 30.3726 21.827 30.2893L22.7535 29.3605C22.9226 29.1917 22.9226 28.918 22.7535 28.7499Z" fill="black"/>
<path d="M25.4708 30.2893C25.5553 30.3733 25.6655 30.4157 25.775 30.4157C25.8851 30.4157 25.996 30.3733 26.0799 30.2893C26.2482 30.1211 26.2482 29.8475 26.0799 29.6793L25.1534 28.7499C24.985 28.5811 24.712 28.5811 24.5443 28.7499C24.3759 28.9187 24.3759 29.1917 24.5443 29.3605L25.4708 30.2893Z" fill="black"/>
<path d="M24.2003 27.7927C24.2003 27.487 23.9529 27.239 23.648 27.239C23.3431 27.239 23.0957 27.487 23.0957 27.7927C23.0957 28.0983 23.3431 28.3463 23.648 28.3463C23.9529 28.3463 24.2003 28.0983 24.2003 27.7927Z" fill="black"/>
<path d="M24.1952 30.1009C24.1952 29.3924 23.6477 28.8179 23.6477 28.8179C23.6477 28.8179 23.0996 29.3924 23.0996 30.1009C23.0996 30.8094 23.6477 31.3832 23.6477 31.3832C23.6477 31.3832 24.1952 30.8094 24.1952 30.1009Z" fill="black"/>
<path d="M14.4234 38.2667C14.255 38.0979 13.9827 38.0979 13.8143 38.2667L12.8885 39.1955C12.7194 39.3643 12.7194 39.638 12.8885 39.8061C12.9717 39.8895 13.0826 39.9325 13.1927 39.9325C13.3029 39.9325 13.4131 39.8895 13.4969 39.8061L14.4234 38.8773C14.5925 38.7085 14.5925 38.4349 14.4234 38.2667Z" fill="black"/>
<path d="M17.1407 39.8059C17.2252 39.8906 17.3354 39.9323 17.4449 39.9323C17.5551 39.9323 17.6659 39.8906 17.7498 39.8059C17.9182 39.6377 17.9182 39.3634 17.7498 39.1953L16.8233 38.2665C16.6549 38.0977 16.3819 38.0977 16.2142 38.2665C16.0458 38.4353 16.0458 38.7083 16.2142 38.8771L17.1407 39.8059Z" fill="black"/>
<path d="M15.8702 37.3095C15.8702 37.0038 15.6228 36.7551 15.3179 36.7551C15.013 36.7551 14.7656 37.0038 14.7656 37.3095C14.7656 37.6151 15.013 37.8631 15.3179 37.8631C15.6228 37.8631 15.8702 37.6151 15.8702 37.3095Z" fill="black"/>
<path d="M15.8651 39.6178C15.8651 38.9092 15.3177 38.3354 15.3177 38.3354C15.3177 38.3354 14.7695 38.9092 14.7695 39.6178C14.7695 40.3263 15.3177 40.9001 15.3177 40.9001C15.3177 40.9001 15.8651 40.3263 15.8651 39.6178Z" fill="black"/>
<path d="M22.7535 38.2667C22.5851 38.0979 22.3128 38.0979 22.1444 38.2667L21.2186 39.1955C21.0495 39.3643 21.0495 39.638 21.2186 39.8061C21.3018 39.8895 21.4126 39.9325 21.5228 39.9325C21.633 39.9325 21.7432 39.8895 21.827 39.8061L22.7535 38.8773C22.9226 38.7085 22.9226 38.4349 22.7535 38.2667Z" fill="black"/>
<path d="M25.4708 39.8059C25.5553 39.8906 25.6655 39.9323 25.775 39.9323C25.8851 39.9323 25.996 39.8906 26.0799 39.8059C26.2482 39.6377 26.2482 39.3634 26.0799 39.1953L25.1534 38.2665C24.985 38.0977 24.712 38.0977 24.5443 38.2665C24.3759 38.4353 24.3759 38.7083 24.5443 38.8771L25.4708 39.8059Z" fill="black"/>
<path d="M24.2003 37.3095C24.2003 37.0038 23.9529 36.7551 23.648 36.7551C23.3431 36.7551 23.0957 37.0038 23.0957 37.3095C23.0957 37.6151 23.3431 37.8631 23.648 37.8631C23.9529 37.8631 24.2003 37.6151 24.2003 37.3095Z" fill="black"/>
<path d="M24.1952 39.6178C24.1952 38.9092 23.6477 38.3354 23.6477 38.3354C23.6477 38.3354 23.0996 38.9092 23.0996 39.6178C23.0996 40.3263 23.6477 40.9001 23.6477 40.9001C23.6477 40.9001 24.1952 40.3263 24.1952 39.6178Z" fill="black"/>
<path d="M14.4234 47.7833C14.255 47.6145 13.9827 47.6145 13.8143 47.7833L12.8885 48.7121C12.7194 48.8809 12.7194 49.1539 12.8885 49.3227C12.9717 49.4061 13.0826 49.4484 13.1927 49.4484C13.3029 49.4484 13.4131 49.4061 13.4969 49.3227L14.4234 48.3939C14.5925 48.2244 14.5925 47.9515 14.4234 47.7833Z" fill="black"/>
<path d="M17.1407 49.3227C17.2252 49.4074 17.3354 49.4484 17.4449 49.4484C17.5551 49.4484 17.6659 49.4074 17.7498 49.3227C17.9182 49.1539 17.9182 48.8802 17.7498 48.7121L16.8233 47.7833C16.6549 47.6145 16.3819 47.6145 16.2142 47.7833C16.0458 47.9521 16.0458 48.2251 16.2142 48.3939L17.1407 49.3227Z" fill="black"/>
<path d="M15.8702 46.8261C15.8702 46.5198 15.6228 46.2725 15.3179 46.2725C15.013 46.2725 14.7656 46.5198 14.7656 46.8261C14.7656 47.1318 15.013 47.3797 15.3179 47.3797C15.6228 47.3797 15.8702 47.1318 15.8702 46.8261Z" fill="black"/>
<path d="M15.8651 49.1341C15.8651 48.4256 15.3177 47.8518 15.3177 47.8518C15.3177 47.8518 14.7695 48.4256 14.7695 49.1341C14.7695 49.8427 15.3177 50.4172 15.3177 50.4172C15.3177 50.4172 15.8651 49.8427 15.8651 49.1341Z" fill="black"/>
<path d="M22.7535 47.7833C22.5851 47.6145 22.3128 47.6145 22.1444 47.7833L21.2186 48.7121C21.0495 48.8809 21.0495 49.1539 21.2186 49.3227C21.3018 49.4061 21.4126 49.4484 21.5228 49.4484C21.633 49.4484 21.7432 49.4061 21.827 49.3227L22.7535 48.3939C22.9226 48.2244 22.9226 47.9515 22.7535 47.7833Z" fill="black"/>
<path d="M25.4708 49.3227C25.5553 49.4074 25.6655 49.4484 25.775 49.4484C25.8851 49.4484 25.996 49.4074 26.0799 49.3227C26.2482 49.1539 26.2482 48.8802 26.0799 48.7121L25.1534 47.7833C24.985 47.6145 24.712 47.6145 24.5443 47.7833C24.3759 47.9521 24.3759 48.2251 24.5443 48.3939L25.4708 49.3227Z" fill="black"/>
<path d="M24.2003 46.8261C24.2003 46.5198 23.9529 46.2725 23.648 46.2725C23.3431 46.2725 23.0957 46.5198 23.0957 46.8261C23.0957 47.1318 23.3431 47.3797 23.648 47.3797C23.9529 47.3797 24.2003 47.1318 24.2003 46.8261Z" fill="black"/>
<path d="M24.1952 49.1341C24.1952 48.4256 23.6477 47.8518 23.6477 47.8518C23.6477 47.8518 23.0996 48.4256 23.0996 49.1341C23.0996 49.8427 23.6477 50.4172 23.6477 50.4172C23.6477 50.4172 24.1952 49.8427 24.1952 49.1341Z" fill="black"/>
<path d="M26.8975 43.0248C26.7298 42.856 26.4568 42.856 26.2891 43.0248L25.3626 43.9536C25.1942 44.1224 25.1942 44.396 25.3626 44.5642C25.4458 44.6475 25.5566 44.6906 25.6668 44.6906C25.777 44.6906 25.8879 44.6475 25.971 44.5642L26.8975 43.6354C27.0666 43.4666 27.0666 43.1929 26.8975 43.0248Z" fill="black"/>
<path d="M29.6153 44.5642C29.6998 44.6489 29.81 44.6906 29.9202 44.6906C30.0297 44.6906 30.1405 44.6489 30.2251 44.5642C30.3928 44.396 30.3928 44.1217 30.2251 43.9536L29.2979 43.0248C29.1295 42.856 28.8572 42.856 28.6888 43.0248C28.5204 43.1936 28.5204 43.4666 28.6888 43.6354L29.6153 44.5642Z" fill="black"/>
<path d="M28.3455 42.0676C28.3455 41.7619 28.0981 41.5139 27.7932 41.5139C27.4876 41.5139 27.2402 41.7619 27.2402 42.0676C27.2402 42.3732 27.4876 42.6219 27.7932 42.6219C28.0981 42.6219 28.3455 42.3732 28.3455 42.0676Z" fill="black"/>
<path d="M28.3417 44.376C28.3417 43.6675 27.7935 43.093 27.7935 43.093C27.7935 43.093 27.2461 43.6675 27.2461 44.376C27.2461 45.0846 27.7935 45.6584 27.7935 45.6584C27.7935 45.6584 28.3417 45.0846 28.3417 44.376Z" fill="black"/>
<path d="M18.587 43.0248C18.4193 42.856 18.1463 42.856 17.9786 43.0248L17.0521 43.9536C16.8837 44.1224 16.8837 44.396 17.0521 44.5642C17.1359 44.6475 17.2461 44.6906 17.357 44.6906C17.4665 44.6906 17.5766 44.6475 17.6612 44.5642L18.587 43.6354C18.756 43.4666 18.7561 43.1929 18.587 43.0248Z" fill="black"/>
<path d="M21.3028 44.5642C21.3873 44.6489 21.4982 44.6906 21.6077 44.6906C21.7172 44.6906 21.828 44.6489 21.9126 44.5642C22.0803 44.396 22.0803 44.1217 21.9126 43.9536L20.9854 43.0248C20.817 42.856 20.5447 42.856 20.3763 43.0248C20.2079 43.1936 20.2079 43.4666 20.3763 43.6354L21.3028 44.5642Z" fill="black"/>
<path d="M20.0343 42.0676C20.0343 41.7619 19.7869 41.5139 19.482 41.5139C19.1771 41.5139 18.9297 41.7619 18.9297 42.0676C18.9297 42.3732 19.1771 42.6219 19.482 42.6219C19.7869 42.6219 20.0343 42.3732 20.0343 42.0676Z" fill="black"/>
<path d="M20.0292 44.376C20.0292 43.6675 19.481 43.093 19.481 43.093C19.481 43.093 18.9336 43.6675 18.9336 44.376C18.9336 45.0846 19.481 45.6584 19.481 45.6584C19.481 45.6584 20.0292 45.0846 20.0292 44.376Z" fill="black"/>
<path d="M10.2784 43.0248C10.1107 42.856 9.83766 42.856 9.66996 43.0248L8.74348 43.9536C8.57509 44.1224 8.57509 44.396 8.74348 44.5642C8.82663 44.6475 8.93751 44.6906 9.04769 44.6906C9.15787 44.6906 9.26805 44.6475 9.3519 44.5642L10.2784 43.6354C10.4475 43.4666 10.4475 43.1929 10.2784 43.0248Z" fill="black"/>
<path d="M12.9942 44.5642C13.0787 44.6489 13.1889 44.6906 13.2991 44.6906C13.4086 44.6906 13.5194 44.6489 13.604 44.5642C13.7717 44.396 13.7717 44.1217 13.604 43.9536L12.6768 43.0248C12.5084 42.856 12.2361 42.856 12.0677 43.0248C11.8993 43.1936 11.8993 43.4666 12.0677 43.6354L12.9942 44.5642Z" fill="black"/>
<path d="M11.7264 42.0676C11.7264 41.7619 11.479 41.5139 11.1734 41.5139C10.8685 41.5139 10.6211 41.7619 10.6211 42.0676C10.6211 42.3732 10.8685 42.6219 11.1734 42.6219C11.479 42.6219 11.7264 42.3732 11.7264 42.0676Z" fill="black"/>
<path d="M11.7206 44.376C11.7206 43.6675 11.1724 43.093 11.1724 43.093C11.1724 43.093 10.625 43.6675 10.625 44.376C10.625 45.0846 11.1724 45.6584 11.1724 45.6584C11.1724 45.6584 11.7206 45.0846 11.7206 44.376Z" fill="black"/>
<path d="M26.8975 33.5082C26.7298 33.3394 26.4568 33.3394 26.2891 33.5082L25.3626 34.4376C25.1942 34.6057 25.1942 34.8794 25.3626 35.0476C25.4458 35.1316 25.5566 35.174 25.6668 35.174C25.777 35.174 25.8879 35.1316 25.971 35.0476L26.8975 34.1188C27.0666 33.95 27.0666 33.6763 26.8975 33.5082Z" fill="black"/>
<path d="M29.6153 35.0473C29.6998 35.132 29.81 35.1737 29.9202 35.1737C30.0297 35.1737 30.1405 35.1321 30.2251 35.0473C30.3928 34.8792 30.3928 34.6048 30.2251 34.4374L29.2979 33.5079C29.1295 33.3391 28.8572 33.3391 28.6888 33.5079C28.5204 33.6767 28.5204 33.9497 28.6888 34.1185L29.6153 35.0473Z" fill="black"/>
<path d="M28.3455 32.5507C28.3455 32.2451 28.0981 31.9971 27.7932 31.9971C27.4876 31.9971 27.2402 32.2451 27.2402 32.5507C27.2402 32.857 27.4876 33.105 27.7932 33.105C28.0981 33.105 28.3455 32.857 28.3455 32.5507Z" fill="black"/>
<path d="M28.3417 34.8594C28.3417 34.1509 27.7935 33.5764 27.7935 33.5764C27.7935 33.5764 27.2461 34.1509 27.2461 34.8594C27.2461 35.568 27.7935 36.1425 27.7935 36.1425C27.7935 36.1425 28.3417 35.568 28.3417 34.8594Z" fill="black"/>
<path d="M18.587 33.5082C18.4193 33.3394 18.1463 33.3394 17.9786 33.5082L17.0521 34.4376C16.8837 34.6057 16.8837 34.8794 17.0521 35.0476C17.1359 35.1316 17.2461 35.174 17.357 35.174C17.4665 35.174 17.5766 35.1316 17.6612 35.0476L18.587 34.1188C18.756 33.95 18.7561 33.6763 18.587 33.5082Z" fill="black"/>
<path d="M21.3028 35.0473C21.3873 35.132 21.4982 35.1737 21.6077 35.1737C21.7172 35.1737 21.828 35.1321 21.9126 35.0473C22.0803 34.8792 22.0803 34.6048 21.9126 34.4374L20.9854 33.5079C20.817 33.3391 20.5447 33.3391 20.3763 33.5079C20.2079 33.6767 20.2079 33.9497 20.3763 34.1185L21.3028 35.0473Z" fill="black"/>
<path d="M20.0343 32.5507C20.0343 32.2451 19.7869 31.9971 19.482 31.9971C19.1771 31.9971 18.9297 32.2451 18.9297 32.5507C18.9297 32.857 19.1771 33.105 19.482 33.105C19.7869 33.105 20.0343 32.857 20.0343 32.5507Z" fill="black"/>
<path d="M20.0292 34.8594C20.0292 34.1509 19.481 33.5764 19.481 33.5764C19.481 33.5764 18.9336 34.1509 18.9336 34.8594C18.9336 35.568 19.481 36.1425 19.481 36.1425C19.481 36.1425 20.0292 35.568 20.0292 34.8594Z" fill="black"/>
<path d="M10.2784 33.5082C10.1107 33.3394 9.83766 33.3394 9.66996 33.5082L8.74348 34.4376C8.57509 34.6057 8.57509 34.8794 8.74348 35.0476C8.82663 35.1316 8.93751 35.174 9.04769 35.174C9.15787 35.174 9.26805 35.1316 9.3519 35.0476L10.2784 34.1188C10.4475 33.95 10.4475 33.6763 10.2784 33.5082Z" fill="black"/>
<path d="M12.9942 35.0473C13.0787 35.132 13.1889 35.1737 13.2991 35.1737C13.4086 35.1737 13.5194 35.1321 13.604 35.0473C13.7717 34.8792 13.7717 34.6048 13.604 34.4374L12.6768 33.5079C12.5084 33.3391 12.2361 33.3391 12.0677 33.5079C11.8993 33.6767 11.8993 33.9497 12.0677 34.1185L12.9942 35.0473Z" fill="black"/>
<path d="M11.7264 32.5507C11.7264 32.2451 11.479 31.9971 11.1734 31.9971C10.8685 31.9971 10.6211 32.2451 10.6211 32.5507C10.6211 32.857 10.8685 33.105 11.1734 33.105C11.479 33.105 11.7264 32.857 11.7264 32.5507Z" fill="black"/>
<path d="M11.7206 34.8594C11.7206 34.1509 11.1724 33.5764 11.1724 33.5764C11.1724 33.5764 10.625 34.1509 10.625 34.8594C10.625 35.568 11.1724 36.1425 11.1724 36.1425C11.1724 36.1425 11.7206 35.568 11.7206 34.8594Z" fill="black"/>
<path d="M18.5875 52.5416C18.4191 52.3735 18.1468 52.3735 17.9784 52.5416L17.0526 53.4704C16.8835 53.6392 16.8835 53.9122 17.0526 54.0803C17.1357 54.1643 17.2466 54.2074 17.3568 54.2074C17.467 54.2074 17.5772 54.1643 17.661 54.0803L18.5875 53.1522C18.7566 52.9834 18.7566 52.7097 18.5875 52.5416Z" fill="black"/>
<path d="M21.3047 54.0805C21.3893 54.1653 21.4995 54.207 21.6089 54.207C21.7191 54.207 21.83 54.1653 21.9138 54.0805C22.0822 53.9124 22.0822 53.6387 21.9138 53.4699L20.9874 52.5419C20.819 52.3731 20.5459 52.3731 20.3782 52.5419C20.2099 52.7107 20.2099 52.9837 20.3782 53.1518L21.3047 54.0805Z" fill="black"/>
<path d="M20.0362 51.5844C20.0362 51.2781 19.7888 51.0308 19.4839 51.0308C19.179 51.0308 18.9316 51.2781 18.9316 51.5844C18.9316 51.8901 19.179 52.138 19.4839 52.138C19.7888 52.138 20.0362 51.8901 20.0362 51.5844Z" fill="black"/>
<path d="M20.0311 53.8924C20.0311 53.1839 19.4837 52.6101 19.4837 52.6101C19.4837 52.6101 18.9355 53.1839 18.9355 53.8924C18.9355 54.601 19.4837 55.1748 19.4837 55.1748C19.4837 55.1748 20.0311 54.601 20.0311 53.8924Z" fill="black"/>
<path d="M14.2862 65.0325C14.1718 65.0325 14.0589 65.0652 13.9612 65.127C13.323 65.5299 12.549 65.6633 11.813 65.4952C11.0709 65.3264 10.4396 64.8776 10.0342 64.2323C9.92125 64.0538 9.72792 63.9468 9.51656 63.9468C9.40223 63.9468 9.28997 63.9794 9.19227 64.0413C8.90815 64.2212 8.82292 64.5998 9.0017 64.8846C9.58102 65.8064 10.4826 66.4468 11.5428 66.6879C11.8414 66.756 12.1477 66.79 12.4512 66.79C13.2135 66.79 13.9605 66.5733 14.6112 66.162C14.896 65.9828 14.9819 65.6035 14.8024 65.318C14.6902 65.1395 14.4968 65.0325 14.2862 65.0325Z" fill="black"/>
<path d="M22.3883 64.8647C22.0515 64.8647 21.7785 65.1398 21.7785 65.4774C21.7785 66.7452 20.7488 67.7774 19.4827 67.7774C18.2181 67.7774 17.1884 66.7452 17.1884 65.4774C17.1884 65.1398 16.9146 64.8647 16.5779 64.8647C16.2418 64.8647 15.9688 65.1398 15.9688 65.4774C15.9688 67.4197 17.5452 69 19.4827 69C21.4209 69 22.9981 67.4197 22.9981 65.4774C22.9981 65.1398 22.7244 64.8647 22.3883 64.8647Z" fill="black"/>
<path d="M19.4834 59.4067C17.5459 59.4067 15.9688 60.9878 15.9688 62.9307C15.9688 63.2676 16.2425 63.5413 16.5786 63.5413C16.9153 63.5413 17.1884 63.2676 17.1884 62.9307C17.1884 61.6623 18.2181 60.63 19.4834 60.63C20.7495 60.63 21.7785 61.6623 21.7785 62.9307C21.7785 63.2676 22.0522 63.5413 22.389 63.5413C22.7251 63.5413 22.9981 63.2676 22.9981 62.9307C22.9981 60.9878 21.4216 59.4067 19.4834 59.4067Z" fill="black"/>
<path d="M13.3796 59.0202C13.469 58.6958 13.2784 58.3582 12.9541 58.2672C12.9007 58.2526 12.846 58.245 12.7913 58.245C12.5189 58.245 12.2771 58.4297 12.2036 58.693C11.9029 59.7808 11.1975 60.6874 10.2169 61.2445C9.24609 61.7953 8.08677 61.9391 7.012 61.6397C4.77028 61.0166 3.45158 58.6819 4.07386 56.4354C4.16325 56.1103 3.97199 55.7727 3.64769 55.6824C3.59433 55.6678 3.53959 55.6602 3.48415 55.6602C3.21182 55.6602 2.96998 55.8442 2.89791 56.1082C2.50985 57.51 2.69141 58.9806 3.40793 60.249C4.12444 61.5182 5.28861 62.4303 6.68561 62.8186C7.16375 62.9512 7.65505 63.0186 8.14705 63.0186C9.07561 63.0186 9.99933 62.7734 10.817 62.3094C12.0824 61.5918 12.9922 60.4234 13.3796 59.0202Z" fill="black"/>
<path d="M29.733 64.0408C29.6353 63.9797 29.5238 63.947 29.4087 63.947C29.1974 63.947 29.004 64.054 28.8918 64.2325C28.4871 64.8779 27.8551 65.3259 27.113 65.4947C26.3777 65.6628 25.6037 65.5294 24.9648 65.1265C24.8671 65.0654 24.7541 65.0328 24.6391 65.0328C24.4284 65.0328 24.2351 65.1397 24.1235 65.3183C24.0369 65.4565 24.0085 65.6204 24.0445 65.7802C24.0813 65.9393 24.1769 66.0754 24.3148 66.1623C24.9662 66.5735 25.7132 66.7902 26.4741 66.7902C26.779 66.7902 27.0845 66.7555 27.3839 66.6881C28.4421 66.4464 29.3443 65.8066 29.9243 64.8848C30.1031 64.5986 30.0171 64.2207 29.733 64.0408Z" fill="black"/>
<path d="M35.4422 55.6606C35.3874 55.6606 35.3327 55.6683 35.2793 55.6822C34.9557 55.7725 34.7645 56.1101 34.8532 56.4359C35.1546 57.5244 35.0146 58.6657 34.4596 59.648C33.9052 60.6302 33.0016 61.3381 31.915 61.6395C31.5471 61.7424 31.1687 61.7945 30.789 61.7945C28.9 61.7945 27.2278 60.5198 26.7234 58.6935C26.6354 58.3768 26.2951 58.1788 25.9722 58.267C25.6486 58.358 25.458 58.6956 25.5474 59.02C26.1974 61.3735 28.3532 63.0177 30.7904 63.0177C31.2789 63.0177 31.7674 62.951 32.2407 62.8184C33.6412 62.4294 34.806 61.5173 35.5219 60.2502C36.237 58.9832 36.4179 57.5126 36.0298 56.108C35.957 55.8447 35.7152 55.6606 35.4422 55.6606Z" fill="black"/>
<path d="M12.6406 17.2643C12.7446 17.3901 12.8915 17.4672 13.055 17.4824C13.0731 17.4845 13.0911 17.4852 13.1091 17.4852C13.4209 17.4852 13.6884 17.2414 13.7175 16.9295C14.0203 13.65 15.9564 10.9388 18.4261 10.3372C18.7699 10.2532 19.1253 10.2101 19.4836 10.2101C22.4162 10.2101 24.8949 13.0992 25.2497 16.9309C25.2795 17.247 25.54 17.4852 25.8567 17.4852C25.8761 17.4852 25.8948 17.4845 25.9135 17.4824C26.0764 17.4672 26.2226 17.3901 26.3265 17.265C26.4312 17.1393 26.4804 16.9802 26.4651 16.8177C26.0514 12.3538 23.0503 8.98682 19.4836 8.98682C19.0304 8.98682 18.5772 9.041 18.1379 9.14937C15.1235 9.88363 12.8589 12.9651 12.5027 16.817C12.4875 16.9795 12.536 17.1379 12.6406 17.2643Z" fill="black"/>
<path d="M8.82065 58.4768C8.93014 58.5671 9.06804 58.6171 9.2094 58.6171C9.39165 58.6171 9.56281 58.5365 9.67922 58.3962C9.78317 58.2712 9.83237 58.1121 9.81713 57.9496C9.80188 57.787 9.72497 57.6397 9.59885 57.5355C4.35247 53.1655 1.2203 45.7577 1.2203 37.7198C1.2203 29.3819 4.69271 21.5816 10.2828 17.3616C10.4131 17.2637 10.4969 17.1199 10.5198 16.9587C10.542 16.7969 10.5011 16.6357 10.4027 16.5058C10.2863 16.3509 10.1089 16.262 9.91552 16.262C9.78247 16.262 9.65566 16.3043 9.54895 16.3849C3.65882 20.8307 0 29.0061 0 37.7198C0 46.1175 3.29709 53.8768 8.82065 58.4768Z" fill="black"/>
<path d="M29.0061 16.2288C28.8148 16.2288 28.6319 16.3204 28.5168 16.4747C28.3166 16.7449 28.372 17.1283 28.6402 17.3298C34.2566 21.5436 37.7456 29.3563 37.7456 37.72C37.7456 45.7578 34.6128 53.1656 29.365 57.5357C29.1072 57.751 29.0719 58.1372 29.2867 58.397C29.4017 58.5367 29.5736 58.6172 29.7558 58.6172C29.8972 58.6172 30.0351 58.5672 30.146 58.4762C35.6682 53.8762 38.9652 46.1169 38.9652 37.72C38.9652 28.9791 35.2891 20.7906 29.372 16.351C29.2652 16.2711 29.1384 16.2288 29.0061 16.2288Z" fill="black"/>
<path d="M3.01172 37.7198C3.01172 49.2615 10.4007 58.6511 19.4833 58.6511C28.5659 58.6511 35.9549 49.2615 35.9549 37.7198C35.9549 32.2439 34.2966 27.0617 31.2844 23.1293C28.3081 19.2413 24.3382 16.999 20.0938 16.8024V12.0232C20.0938 11.6863 19.8194 11.4119 19.4833 11.4119C19.1465 11.4119 18.8728 11.6863 18.8728 12.0232V16.8031C17.6026 16.8621 16.3449 17.1046 15.1315 17.5248C14.9777 17.5783 14.853 17.6881 14.7816 17.836C14.7102 17.9826 14.7005 18.1486 14.7546 18.3028C14.8391 18.5487 15.0705 18.7148 15.3304 18.7148C15.3983 18.7148 15.4648 18.703 15.53 18.6807C16.6145 18.3042 17.7377 18.0847 18.8728 18.0264V23.6975C18.8728 24.0351 19.1465 24.3095 19.4833 24.3095C19.8194 24.3095 20.0938 24.0351 20.0938 23.6975V18.0264C23.9958 18.2264 27.6477 20.3291 30.3925 23.9629C33.1928 27.6696 34.7346 32.5551 34.7346 37.7198C34.7346 48.587 27.893 57.4285 19.4833 57.4285C11.0736 57.4285 4.23201 48.587 4.23201 37.7198C4.23201 30.7434 7.1355 24.2171 11.8088 20.689C12.0874 20.4785 12.3791 20.275 12.6778 20.0818C13.4712 23.9511 16.3026 26.7339 19.4833 26.7339C22.1401 26.7339 24.5398 24.8819 25.7462 21.9011C25.8717 21.5892 25.7206 21.2322 25.4102 21.1044C25.3367 21.0752 25.2598 21.0599 25.1815 21.0599C24.9306 21.0599 24.7089 21.21 24.6153 21.442C23.5995 23.9525 21.6329 25.5113 19.4833 25.5113C16.6449 25.5113 14.1773 22.7278 13.7435 19.0433C13.7373 18.9544 13.7124 18.8718 13.6708 18.7974C13.5634 18.6022 13.359 18.48 13.1358 18.48C13.034 18.48 12.9328 18.5057 12.8413 18.5564L12.7297 18.6196C12.1643 18.9419 11.6072 19.3094 11.0757 19.7116C6.10161 23.4662 3.01172 30.3669 3.01172 37.7198Z" fill="black"/>
<path d="M43.2109 36.3236V29.4473H47.1636V30.1808H44.0785V32.5093H46.6924V33.2422H44.0785V36.3236H43.2109Z" fill="black"/>
<path d="M50.6752 36.4491C50.2414 36.4491 49.8464 36.3637 49.4875 36.197C49.1279 36.0309 48.8195 35.7913 48.5624 35.4794C48.3039 35.1682 48.1037 34.7903 47.9609 34.3478C47.8175 33.9039 47.7461 33.4065 47.7461 32.8543C47.7461 32.3021 47.8175 31.8075 47.9609 31.3698C48.1037 30.9336 48.3039 30.5633 48.5624 30.2591C48.8195 29.9548 49.1279 29.7228 49.4875 29.5623C49.8465 29.4026 50.2414 29.3213 50.6752 29.3213C51.1062 29.3213 51.5019 29.404 51.8616 29.5679C52.2212 29.7318 52.531 29.9652 52.7929 30.2702C53.0541 30.5738 53.2551 30.944 53.3985 31.3802C53.5399 31.8179 53.6127 32.3083 53.6127 32.8543C53.6127 33.4065 53.5399 33.9039 53.3985 34.3478C53.2551 34.7903 53.0541 35.1682 52.7929 35.4794C52.531 35.7913 52.2212 36.031 51.8616 36.197C51.5019 36.3637 51.1062 36.4491 50.6752 36.4491ZM50.6752 35.6836C50.9822 35.6836 51.2587 35.6176 51.5054 35.4849C51.7528 35.3523 51.9662 35.1619 52.145 34.9132C52.321 34.6652 52.4582 34.3686 52.5566 34.0227C52.6536 33.6761 52.7021 33.2871 52.7021 32.8543C52.7021 32.4278 52.6536 32.0429 52.5566 31.6998C52.4582 31.358 52.321 31.0697 52.145 30.8315C51.9662 30.5939 51.7528 30.4098 51.5054 30.2806C51.2587 30.1507 50.9822 30.0854 50.6752 30.0854C50.3676 30.0854 50.0904 30.1507 49.843 30.2806C49.5956 30.4098 49.3829 30.5939 49.2055 30.8315C49.0267 31.0697 48.8895 31.358 48.7925 31.6998C48.6948 32.0429 48.6456 32.4278 48.6456 32.8543C48.6456 33.2871 48.6948 33.6761 48.7925 34.0227C48.8895 34.3686 49.0267 34.6652 49.2055 34.9132C49.3829 35.1619 49.5956 35.3523 49.843 35.4849C50.0904 35.6176 50.3676 35.6836 50.6752 35.6836Z" fill="black"/>
<path d="M54.9297 36.3236V29.4473H55.8278L58.3079 33.7652L58.9876 35.0712V29.4473H59.813V36.3236H58.9135L56.4244 31.9946L55.7564 30.7199V36.3236H54.9297Z" fill="black"/>
<path d="M88.291 36.3236V29.4473H89.1905L91.6692 33.7652L92.349 35.0712V29.4473H93.175V36.3236H92.2755L89.7864 31.9946L89.1177 30.7199V36.3236H88.291Z" fill="black"/>
<path d="M61.5 36.3234V29.447H63.2158C64.2753 29.447 65.0798 29.7395 65.63 30.3271C66.1809 30.9148 66.4567 31.7567 66.4567 32.8543C66.4567 33.3989 66.3867 33.8859 66.2468 34.3158C66.1082 34.7451 65.9031 35.1085 65.63 35.4058C65.3584 35.7038 65.0251 35.9302 64.6266 36.0879C64.2296 36.2442 63.7722 36.3234 63.256 36.3234H61.5ZM62.3669 35.6114H63.152C63.9531 35.6114 64.5553 35.3696 64.9558 34.8882C65.3563 34.4062 65.5566 33.7275 65.5566 32.8543C65.5566 31.9804 65.3563 31.3129 64.9558 30.8516C64.5553 30.3911 63.9531 30.159 63.152 30.159H62.3669V35.6114Z" fill="black"/>
<path d="M66.7441 36.3236L69.0656 29.4473H70.0482L72.3696 36.3236H71.4382L70.791 34.2272H68.2915L67.6325 36.3236H66.7441ZM68.8355 32.4767L68.5112 33.5249H70.5714L70.2471 32.4767C70.1216 32.0918 70.0031 31.7091 69.8909 31.3291C69.7793 30.947 69.6677 30.558 69.5576 30.1593H69.5146C69.41 30.558 69.3012 30.947 69.191 31.3291C69.0794 31.7091 68.9609 32.0918 68.8355 32.4767Z" fill="black"/>
<path d="M73.0625 36.3236V35.8006L76.6707 30.1808H73.3868V29.4473H77.758V29.9613L74.1387 35.579H77.7892V36.3236H73.0625Z" fill="black"/>
<path d="M79.755 29.4473H78.8867V36.3236H79.755V29.4473Z" fill="black"/>
<path d="M84.0352 36.4491C83.6042 36.4491 83.2085 36.3637 82.8481 36.197C82.4892 36.0309 82.1815 35.7913 81.923 35.4794C81.6653 35.1682 81.4643 34.7903 81.3216 34.3478C81.1788 33.9039 81.1074 33.4065 81.1074 32.8543C81.1074 32.3021 81.1788 31.8075 81.3216 31.3698C81.4643 30.9336 81.6653 30.5633 81.923 30.2591C82.1815 29.9548 82.4892 29.7228 82.8481 29.5623C83.2085 29.4026 83.6042 29.3213 84.0352 29.3213C84.4676 29.3213 84.8626 29.404 85.2222 29.5679C85.5812 29.7318 85.8916 29.9652 86.1536 30.2702C86.4148 30.5738 86.6165 30.944 86.7585 31.3802C86.9026 31.8179 86.974 32.3083 86.974 32.8543C86.974 33.4065 86.9026 33.9039 86.7585 34.3478C86.6165 34.7903 86.4148 35.1682 86.1536 35.4794C85.8916 35.7913 85.5812 36.031 85.2222 36.197C84.8626 36.3637 84.4676 36.4491 84.0352 36.4491ZM84.0352 35.6836C84.3422 35.6836 84.6193 35.6176 84.8667 35.4849C85.1141 35.3523 85.3275 35.1619 85.5042 34.9132C85.6823 34.6652 85.8202 34.3686 85.9179 34.0227C86.015 33.6761 86.0655 33.2871 86.0655 32.8543C86.0655 32.4278 86.015 32.0429 85.9179 31.6998C85.8202 31.358 85.6823 31.0697 85.5042 30.8315C85.3275 30.5939 85.1141 30.4098 84.8667 30.2806C84.6193 30.1507 84.3422 30.0854 84.0352 30.0854C83.7296 30.0854 83.4517 30.1507 83.2043 30.2806C82.9569 30.4098 82.7435 30.5939 82.5661 30.8315C82.3887 31.0697 82.2508 31.358 82.1538 31.6998C82.0561 32.0429 82.0069 32.4278 82.0069 32.8543C82.0069 33.2871 82.0561 33.6761 82.1538 34.0227C82.2508 34.3686 82.3887 34.6652 82.5661 34.9132C82.7435 35.1619 82.9569 35.3523 83.2043 35.4849C83.4517 35.6176 83.7296 35.6836 84.0352 35.6836Z" fill="black"/>
<path d="M94.8613 36.3236V29.4473H98.8146V30.1808H95.7303V32.3405H98.3317V33.0852H95.7303V35.579H98.9186V36.3236H94.8613Z" fill="black"/>
<path d="M43.209 46.0068V39.1318H44.9234C45.9836 39.1318 46.7888 39.4243 47.339 40.0127C47.8906 40.5996 48.1657 41.4409 48.1657 42.5377C48.1657 43.0837 48.0964 43.5707 47.9564 44.0007C47.8171 44.4293 47.6113 44.7933 47.339 45.0913C47.0674 45.3872 46.7341 45.6143 46.3356 45.772C45.9385 45.929 45.4819 46.0068 44.9656 46.0068H43.209ZM44.0766 45.2955H44.8617C45.6628 45.2955 46.2642 45.0538 46.6648 44.571C47.066 44.0903 47.2663 43.4123 47.2663 42.5377C47.2663 41.6645 47.066 40.997 46.6648 40.5357C46.2642 40.0745 45.6628 39.8445 44.8617 39.8445H44.0766V45.2955Z" fill="black"/>
<path d="M50.882 39.1321H50.0137V46.0064H50.882V39.1321Z" fill="black"/>
<path d="M60.4634 41.932C60.4011 42.1189 60.3415 42.3155 60.2867 42.5148C60.2507 42.6433 60.2126 42.7739 60.1759 42.9052C60.1364 42.7739 60.0983 42.6433 60.0629 42.5148C60.0061 42.3113 59.9479 42.1161 59.8848 41.9299L58.8572 39.1277H56.8164V46.0068H58.5737V42.6392L58.756 43.1859L59.5986 45.4602H60.6672L61.5126 43.1845L61.7149 42.6003V46.0068H63.4923V39.1277H61.4516L60.4634 41.932Z" fill="black"/>
<path d="M70.4497 39.9294C70.1705 39.6251 69.8288 39.3931 69.4345 39.2361C69.0409 39.0812 68.6044 39.0034 68.1366 39.0034C67.662 39.0034 67.224 39.0812 66.8332 39.2361C66.443 39.3931 66.1028 39.6237 65.8242 39.9238C65.5457 40.2239 65.3267 40.5997 65.1735 41.0374C65.019 41.475 64.9414 41.9793 64.9414 42.5364C64.9414 43.0942 65.019 43.6013 65.1735 44.0466C65.3267 44.4912 65.5457 44.8733 65.8228 45.1796C66.1021 45.488 66.4423 45.7263 66.8325 45.8881C67.2219 46.0493 67.6606 46.1327 68.1366 46.1327C68.6058 46.1327 69.0423 46.0493 69.4352 45.8881C69.8288 45.7263 70.1704 45.488 70.4497 45.1796C70.7269 44.8733 70.9459 44.4912 71.0997 44.0466C71.2542 43.6013 71.3312 43.0942 71.3312 42.5364C71.3312 41.9793 71.2542 41.4771 71.0997 41.0436C70.9459 40.6074 70.7269 40.2323 70.4497 39.9294ZM68.1366 44.4294C67.761 44.4294 67.4721 44.2689 67.258 43.9389C67.0383 43.6007 66.926 43.129 66.926 42.5364C66.926 41.946 67.0383 41.4847 67.2566 41.1673C67.47 40.8554 67.759 40.7053 68.1366 40.7053C68.515 40.7053 68.8026 40.8554 69.0167 41.1673C69.2364 41.4847 69.3472 41.946 69.3472 42.5364C69.3472 43.129 69.2363 43.6007 69.016 43.9389C68.8012 44.2689 68.5143 44.4294 68.1366 44.4294Z" fill="black"/>
<path d="M77.3713 39.9226C77.0616 39.6482 76.6853 39.444 76.2529 39.3176C75.824 39.1918 75.3472 39.1279 74.833 39.1279H72.7715V46.0064H74.9363C75.4234 46.0064 75.8808 45.9411 76.2959 45.8077C76.7137 45.6737 77.081 45.4632 77.388 45.1798C77.6942 44.8977 77.9368 44.5317 78.1045 44.0954C78.2715 43.6606 78.3567 43.1361 78.3567 42.5366C78.3567 41.9378 78.2701 41.4168 78.0996 40.9882C77.9271 40.5575 77.6825 40.1991 77.3713 39.9226ZM74.7145 40.7256H74.7312C74.9626 40.7256 75.1851 40.75 75.3895 40.8007C75.587 40.8479 75.7602 40.9375 75.903 41.0646C76.045 41.1924 76.16 41.3744 76.2446 41.6072C76.3298 41.844 76.3735 42.1566 76.3735 42.5366C76.3735 42.9173 76.3298 43.234 76.2446 43.4772C76.1601 43.7182 76.0443 43.9072 75.9002 44.0419C75.7581 44.1746 75.5849 44.2712 75.386 44.3253C75.1823 44.3816 74.9619 44.4108 74.7312 44.4108H74.7146L74.7145 40.7256Z" fill="black"/>
<path d="M81.7302 43.3257H83.9109V41.6655H81.7302V40.7875H84.2823V39.1279H79.7871V46.0064H84.3849V44.3483H81.7302V43.3257Z" fill="black"/>
<path d="M89.6921 42.8471L89.4032 42.1663L87.9216 39.1765L87.8967 39.1272H85.9453V46.0064H87.8059V42.2823L88.0956 42.9568L89.6013 46.0064H91.5527V39.1272H89.6921V42.8471Z" fill="black"/>
<path d="M96.9082 39.1274H94.6395L92.5488 46.0066H94.5459L94.8751 44.584H96.6109L96.9394 46.0066H98.9996L96.9082 39.1274ZM96.2499 43.0377H95.2361L95.3227 42.682C95.4038 42.3618 95.4863 42.0075 95.5653 41.631C95.6228 41.3573 95.6796 41.0912 95.7357 40.8335C95.7953 41.0864 95.8556 41.351 95.9159 41.6275C95.9977 42.004 96.0815 42.359 96.164 42.6806L96.2499 43.0377Z" fill="black"/>
</svg>
