<svg width="250" height="250" viewBox="0 0 250 250" fill="none" xmlns="http://www.w3.org/2000/svg">
<path d="M108.141 150.976C107.359 150.869 106.577 150.793 105.812 150.64C101.24 149.938 97.381 147.221 95.5111 143.404C95.2561 142.869 95.0862 142.289 95.0012 141.709C94.8482 141.007 95.3751 140.32 96.1571 140.182C96.1911 140.182 96.2251 140.182 96.2591 140.182C96.4801 140.152 96.684 140.121 96.905 140.121C98.7069 140.121 100.509 140.137 102.328 140.121C103.195 140.045 103.994 140.503 104.283 141.236C104.435 141.587 104.622 141.923 104.758 142.274C105.183 143.557 106.424 144.488 107.903 144.656C109.246 144.869 110.64 144.824 111.966 144.534C113.904 144.198 115.315 142.702 115.349 140.931C115.536 139.007 115.553 137.068 115.638 135.007C115.485 135.068 115.349 135.144 115.213 135.236C113.088 137.022 110.283 138.015 107.376 137.999C105.098 138.121 102.804 137.786 100.696 137.022C97.483 135.724 95.1372 133.175 94.3382 130.091C93.7603 128.152 93.4543 126.152 93.4543 124.137C93.3013 121.495 93.7263 118.869 94.6952 116.381C95.6641 113.526 97.993 111.19 101.07 110.045C104.826 108.579 109.11 108.717 112.731 110.427C113.785 111.053 114.771 111.77 115.655 112.579C115.825 112.732 115.978 112.885 116.131 113.053C116.165 112.9 116.182 112.732 116.199 112.579C116.199 112.015 116.199 111.434 116.233 110.869C116.25 110.198 116.879 109.663 117.627 109.663C119.445 109.648 121.281 109.648 123.1 109.663C123.831 109.663 124.443 110.152 124.545 110.793C124.596 111.022 124.613 111.251 124.596 111.48C124.596 120.335 124.613 129.19 124.596 138.045C124.732 140.808 123.882 143.541 122.148 145.831C119.921 148.518 116.59 150.305 112.901 150.793L111.456 151.022H108.107L108.141 150.976ZM115.281 123.602C115.213 122.717 115.213 121.816 115.06 120.946C114.635 118.335 113.173 115.923 109.467 115.724C106.203 115.541 104.113 116.518 103.093 119.328C102.668 120.702 102.464 122.121 102.498 123.541C102.396 125.328 102.736 127.098 103.467 128.763C104.045 130.121 105.37 131.114 106.968 131.389C107.546 131.48 108.141 131.541 108.736 131.541C111.439 131.77 113.938 130.228 114.652 127.862C115.111 126.473 115.332 125.037 115.298 123.587" fill="white"/>
<path d="M67.0692 114.228C67.3751 113.877 67.6981 113.526 68.0041 113.16C71.1319 109.129 77.3024 108.152 81.7901 110.961C82.674 111.511 83.439 112.183 84.0849 112.961C85.8018 114.854 86.8217 117.175 87.0427 119.602C87.1447 120.595 87.1787 121.587 87.1787 122.595C87.1787 127.511 87.1787 132.427 87.1787 137.358C87.1787 138.564 86.6858 138.992 85.3429 138.992H80.0392C78.7473 138.992 78.1864 138.503 78.1694 137.343C78.1694 135.358 78.1694 133.389 78.1694 131.404C78.1694 128.106 78.2374 124.808 78.1184 121.511C78.2034 119.144 76.1465 117.175 73.5117 117.099C73.2567 117.099 72.9847 117.099 72.7297 117.129C69.9929 117.053 67.7151 118.992 67.6301 121.45C67.6301 121.511 67.6301 121.572 67.6301 121.618C67.5621 125.495 67.5961 129.389 67.5791 133.266V137.328C67.5791 138.473 67.0182 138.961 65.7772 138.961C63.9584 138.961 62.1225 138.961 60.3036 138.961C59.4537 139.022 58.6888 138.457 58.6208 137.694C58.6208 137.602 58.6208 137.526 58.6208 137.434V111.465C58.5188 110.717 59.1137 110.045 59.9467 109.954C60.0657 109.954 60.2016 109.954 60.3206 109.954C61.9865 109.954 63.6524 109.954 65.3183 109.954C66.1172 109.862 66.8312 110.381 66.9332 111.083C66.9332 111.19 66.9332 111.297 66.9332 111.404V114.183L67.0522 114.244" fill="white"/>
<path d="M36.9827 138.655C27.9053 138.64 20.5618 131.999 20.5958 123.861C20.6298 115.724 28.0073 109.113 37.0676 109.144C46.128 109.159 53.4545 115.77 53.4545 123.907C53.4545 132.044 46.111 138.655 37.0507 138.67C37.0337 138.67 36.9997 138.67 36.9827 138.67M36.9827 115.953C32.104 115.968 28.1603 119.556 28.1943 123.938C28.2283 128.319 32.206 131.861 37.0846 131.831C41.9633 131.815 45.89 128.243 45.873 123.861C45.873 119.495 41.9293 115.953 37.0676 115.953C37.0507 115.953 37.0167 115.953 36.9997 115.953" fill="white"/>
<path d="M5.99414 118.837L5.99414 100.608C5.99414 99.3712 6.41911 98.9895 7.81301 98.9895H13.8306C14.5615 98.8979 15.2245 99.3407 15.3265 99.9972C15.3265 100.089 15.3435 100.18 15.3265 100.272C15.3265 100.409 15.3265 100.562 15.3265 100.699C15.3265 112.761 15.3265 124.822 15.3265 136.883C15.3265 137.127 15.3265 137.386 15.2585 137.631C15.1735 138.241 14.5615 138.684 13.8646 138.638H7.50703C6.75909 138.715 6.07913 138.211 5.99414 137.539C5.99414 137.448 5.99414 137.371 5.99414 137.28V118.837Z" fill="white"/>
<path d="M175.828 135.205C175.25 135.663 174.621 136.137 173.975 136.625C171.935 138.152 169.385 139.038 166.733 139.144C163.827 139.48 160.869 138.946 158.319 137.633C156.126 136.58 154.511 134.732 153.899 132.564C153.049 129.663 154.29 126.595 157.01 124.854C159.288 123.312 161.974 122.335 164.795 122.03C168.263 121.541 171.731 121.144 175.199 120.717C175.607 120.671 175.845 120.564 175.811 120.122C175.743 119.129 175.811 118.122 175.641 117.144C175.369 115.022 173.652 113.282 171.357 112.747C168.807 111.999 166.07 111.999 163.521 112.778C161.6 113.267 160.053 114.58 159.407 116.274C158.846 117.205 157.537 117.557 156.5 117.053C156.432 117.022 156.364 116.976 156.296 116.946C155.803 116.518 155.667 115.877 155.939 115.312C156.449 113.663 157.588 112.228 159.152 111.267C161.243 109.892 163.759 109.114 166.359 109.083C168.416 108.976 170.49 109.16 172.479 109.618C175.981 110.457 178.633 113.038 179.261 116.259C179.448 117.038 179.55 117.831 179.533 118.641C179.55 124.824 179.533 131.007 179.533 137.19C179.533 138.32 179.159 138.61 177.919 138.671C175.862 138.763 175.743 138.045 175.777 136.763C175.777 136.198 175.777 135.633 175.777 135.221M175.777 123.679C175.131 123.755 174.57 123.816 174.009 123.892C171.068 124.289 168.127 124.625 165.203 125.083C163.181 125.373 161.243 126.06 159.56 127.099C157.299 128.503 156.738 131.297 158.302 133.328C158.71 133.862 159.254 134.305 159.866 134.641C161.209 135.373 162.705 135.831 164.269 135.969C168.637 136.518 172.904 134.427 174.74 130.824C175.692 128.549 176.049 126.091 175.76 123.679" fill="white"/>
<path d="M220.419 125.511C220.351 126.671 220.504 127.831 220.878 128.946C221.541 131.694 223.546 134.014 226.351 135.266C230.737 136.992 235.871 135.862 238.845 132.488C239.576 131.495 240.953 131.068 242.211 131.45C242.721 131.511 243.095 131.923 243.044 132.396C243.044 132.427 243.044 132.442 243.044 132.472C242.891 133.114 242.619 133.724 242.245 134.274C241.14 135.724 239.627 136.885 237.842 137.617C233.61 139.709 228.527 139.846 224.158 137.999C220.827 136.488 218.396 133.755 217.478 130.503C216.713 127.938 216.424 125.266 216.628 122.625C216.628 120.304 217.206 118.014 218.277 115.908C219.875 112.335 223.478 109.801 227.728 109.266C231.825 108.488 236.075 109.465 239.253 111.892C241.446 113.724 242.925 116.152 243.486 118.793C243.911 120.64 244.081 122.533 243.979 124.427C243.979 125.007 243.469 125.48 242.823 125.511C242.619 125.526 242.432 125.511 242.228 125.511H220.419ZM220.436 122.381C220.436 122.381 220.572 122.411 220.64 122.427C227.031 122.427 233.406 122.427 239.797 122.427C240.137 122.427 240.256 122.304 240.239 122.014C240.188 121.388 240.188 120.762 240.086 120.152C239.61 115.312 234.851 111.755 229.462 112.182C228.561 112.259 227.66 112.442 226.827 112.732C222.323 114.03 220.181 118.503 220.436 122.366" fill="white"/>
<path d="M193.339 125.267V137.038C193.339 138.32 192.965 138.641 191.537 138.641C191.282 138.641 191.027 138.641 190.773 138.641C190.127 138.641 189.6 138.167 189.6 137.587C189.6 137.572 189.6 137.557 189.6 137.541V100.442C189.6 100.274 189.6 100.122 189.6 99.9688C189.634 99.465 190.076 99.0681 190.637 99.0375C191.096 99.007 191.554 99.007 191.996 99.0375C192.625 98.9765 193.203 99.3887 193.271 99.9536C193.271 100.03 193.271 100.122 193.271 100.198C193.271 101.725 193.271 103.267 193.271 104.793C193.271 109.618 193.271 114.457 193.271 119.282V120.03C193.56 119.862 193.73 119.77 193.9 119.648C198.286 116.671 202.689 113.725 207.023 110.686C208.196 109.847 209.692 109.465 211.171 109.633C211.817 109.664 212.31 110.152 212.276 110.732C212.276 110.915 212.208 111.099 212.089 111.251C211.919 111.48 211.698 111.694 211.426 111.862C206.36 115.328 201.295 118.778 196.229 122.244C196.076 122.351 195.923 122.457 195.719 122.61C196.365 123.144 196.977 123.633 197.606 124.137C202.587 128.137 207.584 132.137 212.565 136.137C212.922 136.427 213.262 136.732 213.568 137.053C213.891 137.343 213.942 137.801 213.67 138.137C213.398 138.396 213.058 138.595 212.667 138.671C212.276 138.717 211.868 138.717 211.477 138.702C210.644 138.747 209.811 138.473 209.216 137.938C206.241 135.541 203.267 133.175 200.292 130.793L193.798 125.602C193.696 125.526 193.594 125.45 193.356 125.297" fill="white"/>
<path d="M136.171 109.618V100.457C136.171 99.358 136.562 99.0068 137.769 99.0068C139.758 99.0068 139.928 99.1595 139.928 100.961C139.928 103.648 139.928 106.335 139.928 109.037C139.928 109.495 140.047 109.648 140.59 109.648C142.902 109.618 145.231 109.648 147.56 109.648C148.58 109.648 149.039 110.06 149.056 110.992C149.056 111.205 149.056 111.419 149.056 111.633C149.107 112.243 148.614 112.793 147.917 112.839C147.832 112.839 147.747 112.839 147.662 112.839C145.316 112.839 142.987 112.854 140.641 112.839C140.08 112.839 139.945 112.992 139.945 113.48C139.945 118.839 139.945 124.213 139.979 129.572C139.979 130.534 140.148 131.48 140.42 132.411C140.794 134.35 142.783 135.709 144.959 135.511C146.064 135.511 147.186 135.511 148.291 135.511C148.988 135.45 149.6 135.892 149.668 136.518C149.668 136.595 149.668 136.656 149.668 136.732V137.221C149.668 138.32 149.226 138.717 148.019 138.701C146.387 138.686 144.755 138.701 143.14 138.61C140.25 138.534 137.735 136.763 136.97 134.259C136.426 132.793 136.154 131.251 136.171 129.694C136.154 124.335 136.171 118.976 136.171 113.602C136.171 113.114 135.887 112.864 135.321 112.854H131.394C130.391 112.854 129.966 112.442 129.949 111.541C129.949 109.908 130.187 109.679 131.989 109.679H136.171" fill="white"/>
<path d="M32.4437 120.472C32.2228 121.708 33.0897 122.899 34.4496 123.189C35.7245 123.418 36.9994 122.777 37.4244 121.663C37.8833 120.426 37.2544 119.388 35.5715 118.64C38.1893 117.998 40.9431 119.098 42.167 121.266C43.6289 123.815 42.524 126.96 39.6852 128.273C36.8464 129.586 33.3447 128.594 31.8828 126.044C30.8458 124.243 31.0668 122.075 32.4437 120.472Z" fill="white"/>
</svg>
