<svg width="83" height="70" viewBox="0 0 83 70" fill="none" xmlns="http://www.w3.org/2000/svg">
<g clip-path="url(#clip0_121_1880)">
<rect width="82.36" height="70"/>
<path d="M35.3456 48.9596C35.0751 48.9202 34.8045 48.8921 34.5398 48.8358C32.9575 48.5771 31.6222 47.5758 30.9752 46.1694C30.887 45.9725 30.8282 45.7588 30.7987 45.545C30.7458 45.2862 30.9282 45.0331 31.1987 44.9825C31.2105 44.9825 31.2223 44.9825 31.234 44.9825C31.3105 44.9712 31.3811 44.96 31.4575 44.96C32.0811 44.96 32.7046 44.9656 33.334 44.96C33.6339 44.9318 33.9104 45.1006 34.0104 45.3706C34.0633 45.5 34.128 45.6238 34.1751 45.7531C34.3222 46.2257 34.7516 46.5688 35.2633 46.6307C35.728 46.7094 36.2103 46.6926 36.6691 46.5857C37.3397 46.4619 37.8279 45.9106 37.8397 45.2581C37.9044 44.5493 37.9103 43.8349 37.9397 43.0755C37.8867 43.098 37.8397 43.1261 37.7926 43.1598C37.0574 43.818 36.0868 44.1837 35.081 44.178C34.2927 44.223 33.4987 44.0993 32.7693 43.818C31.6575 43.3399 30.8458 42.4004 30.5693 41.2641C30.3693 40.5497 30.2635 39.8127 30.2635 39.0702C30.2105 38.097 30.3576 37.1294 30.6929 36.2125C31.0281 35.1606 31.834 34.2999 32.8987 33.878C34.1986 33.3379 35.6809 33.3886 36.9338 34.0186C37.2985 34.2493 37.6397 34.5137 37.9456 34.8118C38.0044 34.868 38.0573 34.9243 38.1103 34.9862C38.122 34.9299 38.1279 34.868 38.1338 34.8118C38.1338 34.6037 38.1338 34.3899 38.1456 34.1818C38.1514 33.9342 38.3691 33.7373 38.6279 33.7373C39.2573 33.7317 39.8926 33.7317 40.5219 33.7373C40.7749 33.7373 40.9866 33.9174 41.0219 34.1536C41.0396 34.238 41.0455 34.3224 41.0396 34.4068C41.0396 37.6695 41.0455 40.9322 41.0396 44.1949C41.0866 45.2131 40.7925 46.22 40.1925 47.0638C39.422 48.0539 38.2691 48.7121 36.9927 48.8921L36.4927 48.9765H35.3339L35.3456 48.9596ZM37.8162 38.8733C37.7926 38.547 37.7926 38.2151 37.7397 37.8945C37.5926 36.9326 37.0868 36.0438 35.8045 35.9706C34.6751 35.9031 33.9516 36.2631 33.5986 37.2982C33.4516 37.8045 33.381 38.3276 33.3928 38.8508C33.3575 39.509 33.4751 40.1615 33.7281 40.7747C33.928 41.2753 34.3869 41.641 34.9398 41.7422C35.1398 41.776 35.3456 41.7985 35.5515 41.7985C36.4868 41.8829 37.3515 41.3147 37.5985 40.4428C37.7573 39.9309 37.8338 39.4021 37.822 38.8677" fill="black"/>
<path d="M21.1344 35.4191C21.2403 35.2898 21.352 35.1604 21.4579 35.0254C22.5402 33.5403 24.6755 33.1802 26.2283 34.2153C26.5342 34.4178 26.7989 34.6653 27.0224 34.9522C27.6165 35.6498 27.9695 36.5048 28.0459 37.3993C28.0812 37.7649 28.093 38.1306 28.093 38.5018C28.093 40.3132 28.093 42.1246 28.093 43.9416C28.093 44.386 27.9224 44.5435 27.4577 44.5435H25.6225C25.1754 44.5435 24.9813 44.3635 24.9754 43.9359C24.9754 43.2046 24.9754 42.479 24.9754 41.7477C24.9754 40.5326 24.999 39.3175 24.9578 38.1024C24.9872 37.2305 24.2755 36.5048 23.3637 36.4767C23.2755 36.4767 23.1814 36.4767 23.0932 36.488C22.1461 36.4598 21.3579 37.1742 21.3285 38.0799C21.3285 38.1024 21.3285 38.1249 21.3285 38.1418C21.305 39.5707 21.3167 41.0051 21.3109 42.434V43.9303C21.3109 44.3522 21.1168 44.5322 20.6874 44.5322C20.058 44.5322 19.4227 44.5322 18.7933 44.5322C18.4992 44.5547 18.2345 44.3466 18.211 44.0653C18.211 44.0316 18.211 44.0034 18.211 43.9697V34.4009C18.1757 34.1253 18.3816 33.8778 18.6698 33.844C18.711 33.844 18.758 33.844 18.7992 33.844C19.3756 33.844 19.9521 33.844 20.5285 33.844C20.805 33.8103 21.0521 34.0015 21.0873 34.2603C21.0873 34.2997 21.0873 34.3391 21.0873 34.3784V35.4023L21.1285 35.4248" fill="black"/>
<path d="M10.7232 44.4198C7.5821 44.4141 5.04101 41.9671 5.05278 38.9688C5.06454 35.9705 7.6174 33.5347 10.7526 33.5459C13.8878 33.5516 16.423 35.9873 16.423 38.9857C16.423 41.984 13.8819 44.4198 10.7467 44.4254C10.7408 44.4254 10.7291 44.4254 10.7232 44.4254M10.7232 36.0549C9.035 36.0605 7.67034 37.3824 7.6821 38.9969C7.69386 40.6114 9.07029 41.9165 10.7585 41.9052C12.4466 41.8996 13.8054 40.5833 13.7995 38.9688C13.7995 37.3599 12.4349 36.0549 10.7526 36.0549C10.7467 36.0549 10.7349 36.0549 10.7291 36.0549" fill="black"/>
<path d="M0 37.1174V30.4008C0 29.9451 0.147054 29.8045 0.629391 29.8045H2.71167C2.96461 29.7707 3.19401 29.9338 3.2293 30.1757C3.2293 30.2095 3.23519 30.2432 3.2293 30.277C3.2293 30.3276 3.2293 30.3839 3.2293 30.4345C3.2293 34.8785 3.2293 39.3226 3.2293 43.7666C3.2293 43.8566 3.2293 43.9523 3.20578 44.0423C3.17637 44.2673 2.96461 44.4304 2.72344 44.4135H0.523512C0.264697 44.4417 0.0294108 44.256 0 44.0085C0 43.9748 0 43.9466 0 43.9129V37.1174Z" fill="black"/>
<path d="M58.7684 43.1486C58.5684 43.3174 58.3507 43.4918 58.1272 43.6718C57.4214 44.2343 56.539 44.5606 55.6214 44.6C54.6156 44.7237 53.5921 44.5268 52.7098 44.043C51.951 43.6549 51.3922 42.9742 51.1804 42.1754C50.8863 41.1066 51.3157 39.9759 52.2568 39.3346C53.045 38.7665 53.9744 38.4064 54.9509 38.2939C56.1508 38.1139 57.3508 37.9677 58.5507 37.8101C58.6919 37.7933 58.7743 37.7539 58.7625 37.5908C58.739 37.2251 58.7625 36.8538 58.7037 36.4938C58.6096 35.7119 58.0155 35.0706 57.2214 34.8737C56.339 34.5981 55.392 34.5981 54.5097 34.8849C53.845 35.065 53.3097 35.5487 53.0862 36.1732C52.8921 36.5163 52.4392 36.6457 52.0804 36.4601C52.0568 36.4488 52.0333 36.4319 52.0098 36.4207C51.8392 36.2632 51.7921 36.0269 51.8863 35.8188C52.0627 35.2112 52.4568 34.6824 52.998 34.328C53.7215 33.8218 54.592 33.5349 55.492 33.5236C56.2038 33.4842 56.9214 33.5517 57.6096 33.7205C58.8213 34.0299 59.7389 34.9806 59.9566 36.1675C60.0213 36.4544 60.0566 36.7469 60.0507 37.0451C60.0566 39.3234 60.0507 41.6016 60.0507 43.8799C60.0507 44.2962 59.9213 44.4031 59.4919 44.4256C58.7801 44.4593 58.739 44.1949 58.7507 43.7224C58.7507 43.5143 58.7507 43.3061 58.7507 43.1542M58.7507 38.9015C58.5272 38.9296 58.3331 38.9521 58.139 38.9802C57.1214 39.1265 56.1038 39.2502 55.092 39.419C54.3921 39.5259 53.7215 39.779 53.1392 40.1615C52.3568 40.6791 52.1627 41.7085 52.7039 42.4567C52.845 42.6536 53.0333 42.8167 53.245 42.9405C53.7097 43.2105 54.2274 43.3793 54.7685 43.4299C56.2802 43.6324 57.7566 42.8617 58.3919 41.5341C58.7213 40.696 58.8448 39.7903 58.7449 38.9015" fill="black"/>
<path d="M74.197 39.5765C74.1734 40.004 74.2264 40.4315 74.3558 40.8422C74.5852 41.8547 75.2793 42.7098 76.2498 43.1711C77.7674 43.8067 79.5438 43.3905 80.5732 42.1473C80.8261 41.7816 81.3026 41.6241 81.7379 41.7647C81.9144 41.7872 82.0438 41.9391 82.0261 42.1135C82.0261 42.1248 82.0261 42.1304 82.0261 42.1416C81.9732 42.3779 81.8791 42.6029 81.7496 42.8054C81.3673 43.3398 80.8438 43.7674 80.2262 44.0374C78.7615 44.8081 77.0027 44.8587 75.491 44.178C74.3381 43.6211 73.497 42.6142 73.1793 41.416C72.9147 40.4709 72.8147 39.4865 72.8852 38.5133C72.8852 37.6582 73.0852 36.8144 73.4558 36.0381C74.0087 34.7218 75.2557 33.788 76.7263 33.5911C78.1439 33.3042 79.6144 33.6642 80.7144 34.5586C81.4732 35.2337 81.9849 36.1281 82.179 37.1013C82.3261 37.782 82.3849 38.4795 82.3496 39.1771C82.3496 39.3908 82.1732 39.5652 81.9496 39.5765C81.8791 39.5821 81.8144 39.5765 81.7438 39.5765H74.197ZM74.2028 38.4233C74.2028 38.4233 74.2499 38.4345 74.2734 38.4401C76.4851 38.4401 78.6909 38.4401 80.9026 38.4401C81.0203 38.4401 81.0614 38.3951 81.0556 38.2883C81.0379 38.0576 81.0379 37.827 81.0026 37.602C80.8379 35.8187 79.1909 34.508 77.3263 34.6655C77.0145 34.6936 76.7028 34.7611 76.4145 34.868C74.8558 35.3462 74.1146 36.9944 74.2028 38.4176" fill="black"/>
<path d="M64.8273 39.4863V43.8235C64.8273 44.296 64.6979 44.4141 64.2038 44.4141C64.1155 44.4141 64.0273 44.4141 63.9391 44.4141C63.7155 44.4141 63.5332 44.2397 63.5332 44.026C63.5332 44.0203 63.5332 44.0147 63.5332 44.0091V30.3394C63.5332 30.2776 63.5332 30.2213 63.5332 30.1651C63.545 29.9794 63.6979 29.8332 63.892 29.8219C64.0508 29.8107 64.2096 29.8107 64.3626 29.8219C64.5802 29.7994 64.7802 29.9513 64.8037 30.1594C64.8037 30.1876 64.8037 30.2213 64.8037 30.2494C64.8037 30.812 64.8037 31.3801 64.8037 31.9427C64.8037 33.7203 64.8037 35.5035 64.8037 37.2812V37.5568C64.9037 37.4949 64.9626 37.4612 65.0214 37.4162C66.539 36.3192 68.0625 35.2335 69.5624 34.1141C69.9683 33.8047 70.4859 33.664 70.9977 33.7259C71.2212 33.7372 71.3918 33.9172 71.38 34.1309C71.38 34.1984 71.3565 34.266 71.3153 34.3222C71.2565 34.4066 71.18 34.4853 71.0859 34.5472C69.333 35.8242 67.5801 37.0955 65.8272 38.3725C65.7743 38.4118 65.7214 38.4512 65.6508 38.5075C65.8743 38.7044 66.0861 38.8844 66.3037 39.07C68.0272 40.5439 69.7565 42.0177 71.48 43.4916C71.6035 43.5984 71.7212 43.7109 71.827 43.8291C71.9388 43.936 71.9564 44.1047 71.8623 44.2285C71.7682 44.3241 71.6506 44.3972 71.5153 44.4254C71.38 44.4422 71.2388 44.4422 71.1035 44.4366C70.8153 44.4535 70.5271 44.3522 70.3212 44.1553C69.2918 43.2722 68.2625 42.4002 67.2331 41.5227L64.9861 39.6101C64.9508 39.5819 64.9155 39.5538 64.8332 39.4975" fill="black"/>
<path d="M45.0445 33.7204V30.3452C45.0445 29.9402 45.1798 29.8108 45.5974 29.8108C46.2856 29.8108 46.3444 29.867 46.3444 30.5308C46.3444 31.5209 46.3444 32.511 46.3444 33.5067C46.3444 33.6754 46.3856 33.7317 46.5738 33.7317C47.3738 33.7204 48.1797 33.7317 48.9855 33.7317C49.3384 33.7317 49.4973 33.8836 49.5031 34.2267C49.5031 34.3055 49.5031 34.3842 49.5031 34.463C49.5208 34.688 49.3502 34.8905 49.109 34.9074C49.0796 34.9074 49.0502 34.9074 49.0208 34.9074C48.2091 34.9074 47.4032 34.913 46.5915 34.9074C46.3974 34.9074 46.3503 34.9636 46.3503 35.1436C46.3503 37.1181 46.3503 39.0983 46.3621 41.0728C46.3621 41.4272 46.4209 41.7759 46.515 42.1191C46.6444 42.8335 47.3326 43.3342 48.0855 43.261C48.4679 43.261 48.8561 43.261 49.2384 43.261C49.4796 43.2385 49.6914 43.4017 49.7149 43.6323C49.7149 43.6604 49.7149 43.6829 49.7149 43.7111V43.8911C49.7149 44.2961 49.562 44.4424 49.1443 44.4367C48.5796 44.4311 48.015 44.4367 47.4562 44.403C46.4562 44.3749 45.5856 43.7223 45.3209 42.7998C45.1327 42.2597 45.0386 41.6916 45.0445 41.1178C45.0386 39.1433 45.0445 37.1688 45.0445 35.1886C45.0445 35.0086 44.9464 34.9167 44.7504 34.913H43.3916C43.0445 34.913 42.8975 34.7611 42.8916 34.4292C42.8916 33.8273 42.974 33.7429 43.5975 33.7429H45.0445" fill="black"/>
<path d="M9.15285 37.72C9.07639 38.1756 9.37638 38.6144 9.84695 38.7213C10.2881 38.8057 10.7293 38.5694 10.8763 38.1588C11.0351 37.7031 10.8175 37.3206 10.2352 37.0449C11.141 36.8087 12.0939 37.2137 12.5174 38.0125C13.0233 38.9519 12.641 40.1108 11.6587 40.5946C10.6763 41.0783 9.46461 40.7127 8.95874 39.7732C8.59993 39.1095 8.6764 38.3107 9.15285 37.72Z" fill="black"/>
</g>
<defs>
<clipPath id="clip0_121_1880">
<rect width="82.36" height="70"/>
</clipPath>
</defs>
</svg>
