<svg width="100" height="70" viewBox="0 0 100 70" fill="none" xmlns="http://www.w3.org/2000/svg">
<g clip-path="url(#clip0_1020_2438)">
<g clip-path="url(#clip1_1020_2438)">
<path d="M42.9895 49.6931C42.6733 49.8632 42.2972 49.9569 41.9125 49.9569C40.7332 49.9569 39.9297 49.1487 39.9297 47.9662C39.9297 46.7497 40.7673 45.8906 41.9554 45.8906C42.1519 45.8906 42.3399 45.9161 42.528 45.9673C42.7844 46.0352 42.9039 46.0947 43.1689 46.282L42.8015 46.8009C42.5024 46.5542 42.2801 46.469 41.9296 46.469C41.152 46.469 40.6306 47.0646 40.6306 47.9322C40.6306 48.8168 41.152 49.3698 41.981 49.3698C42.3569 49.3698 42.5963 49.2848 42.9124 49.0466L43.2459 49.5485C43.1347 49.6165 43.0494 49.6677 42.9895 49.6931Z" fill="black"/>
<path d="M44.4158 45.0661C44.185 45.0661 43.9971 44.879 43.9971 44.6492C43.9971 44.4195 44.185 44.2324 44.4158 44.2324C44.6465 44.2324 44.8346 44.4195 44.8346 44.6492C44.8346 44.879 44.6465 45.0661 44.4158 45.0661ZM44.091 49.8468V45.9933H44.732V49.8468H44.091Z" fill="black"/>
<path d="M46.9888 49.9563C46.5444 49.9563 46.2453 49.6074 46.2453 49.097V46.5281H45.5957V46.1538L46.2453 45.9922V44.8691H46.8862V45.9922H48.1765L48.5526 46.5281H46.8862V48.7228L46.8947 48.8929C46.9034 49.012 46.9034 49.0885 46.912 49.1311C46.9205 49.2587 46.9973 49.3182 47.1341 49.3182C47.2964 49.3182 47.4246 49.2503 47.6981 49.046L47.9631 49.4713C47.5102 49.8457 47.2964 49.9563 46.9888 49.9563Z" fill="black"/>
<path d="M49.9706 50.0584C49.791 50.5347 49.6457 50.8494 49.4321 51.1898C49.2783 51.4365 49.1672 51.5981 48.8508 51.9979L48.3381 51.6066C48.7228 51.1813 48.8508 51.0112 49.0731 50.6113C49.2868 50.237 49.3893 50.0073 49.6115 49.4204L48.1758 45.9922H48.8937L49.8253 48.3485L49.9533 48.7228L50.0389 48.3485L50.8337 45.9922H51.4919L49.9706 50.0584Z" fill="black"/>
<path d="M55.8901 49.9569C54.8387 49.9569 53.9756 49.0296 53.9756 47.9237C53.9756 46.8094 54.8388 45.8906 55.8901 45.8906C56.9326 45.8906 57.796 46.8094 57.796 47.9237C57.796 49.0296 56.9326 49.9569 55.8901 49.9569ZM55.8901 46.4605C55.2063 46.4605 54.6764 47.1071 54.6764 47.9237C54.6764 48.7404 55.2063 49.3869 55.8901 49.3869C56.5653 49.3869 57.0952 48.7404 57.0952 47.9237C57.0952 47.1071 56.5653 46.4605 55.8901 46.4605Z" fill="black"/>
<path d="M61.2838 44.2836C61.0103 44.1899 60.8479 44.1559 60.6512 44.1559C59.9931 44.1559 59.6684 44.5982 59.6684 45.517V45.9935H60.583V46.5294H59.6684V49.847H59.0273V46.5294H58.3779V46.1551L59.0273 45.9935V45.3554C59.0273 44.2581 59.6769 43.5605 60.6939 43.5605C61.0188 43.5605 61.2496 43.6115 61.5487 43.7476L61.2838 44.2836Z" fill="black"/>
<path d="M68.51 49.8462V47.1156C68.51 46.8349 68.51 46.7839 68.4502 46.6648C68.3903 46.5372 68.2365 46.4605 68.057 46.4605C67.698 46.4605 67.3219 46.7073 66.7493 47.3027L66.5699 47.4899V49.8462H65.9288V47.1156C65.9288 46.8349 65.9288 46.7839 65.8691 46.6648C65.8091 46.5372 65.6553 46.4605 65.4759 46.4605C65.0827 46.4605 64.6639 46.7497 63.9887 47.4899V49.8462H63.3477V45.9928H63.9887V46.8009C64.2537 46.503 64.3307 46.4266 64.5187 46.2735C64.8092 46.0267 65.1939 45.8906 65.5527 45.8906C66.1938 45.8906 66.5187 46.1883 66.5613 46.8094C66.8348 46.503 66.9117 46.4266 67.0998 46.2735C67.3904 46.0267 67.775 45.8906 68.1338 45.8906C68.8176 45.8906 69.151 46.2395 69.151 46.9625V49.8462L68.51 49.8462Z" fill="black"/>
<path d="M70.894 47.8641C70.894 48.7999 71.3725 49.3698 72.1588 49.3698C72.5006 49.3698 72.7485 49.2763 73.1673 48.9871L73.4237 49.4889C72.8511 49.8462 72.5264 49.9569 72.0221 49.9569C70.9452 49.9569 70.2188 49.1402 70.2188 47.9237C70.2188 46.6988 70.9452 45.8906 72.0477 45.8906C72.9537 45.8906 73.5434 46.5287 73.5434 47.4899V47.8641H70.894ZM72.005 46.469C71.4666 46.469 71.0904 46.7924 70.9452 47.3878H72.8426C72.834 46.7924 72.5349 46.469 72.005 46.469Z" fill="black"/>
<path d="M77.1239 49.846V49.361C76.7819 49.7439 76.329 49.9566 75.8419 49.9566C74.8932 49.9566 74.2266 49.1655 74.2266 48.0256C74.2266 46.7837 75.0556 45.8904 76.2008 45.8904C76.611 45.8904 76.876 45.967 77.1239 46.1541V43.6445H77.7735V49.846L77.1239 49.846ZM77.1239 47.3366C77.1239 47.0387 77.1153 46.9538 77.0469 46.8262C76.9359 46.6134 76.6624 46.5028 76.2693 46.5028C75.4488 46.5028 74.9188 47.0899 74.9188 48.0171C74.9188 48.7911 75.3547 49.3525 75.9529 49.3525C76.1837 49.3525 76.4657 49.2591 76.7051 49.0888C76.8504 48.9869 76.9445 48.8933 77.1239 48.672V47.3366Z" fill="black"/>
<path d="M79.5252 45.0661C79.2944 45.0661 79.1064 44.879 79.1064 44.6492C79.1064 44.4195 79.2944 44.2324 79.5252 44.2324C79.7559 44.2324 79.944 44.4195 79.944 44.6492C79.944 44.879 79.7559 45.0661 79.5252 45.0661ZM79.2003 49.8468V45.9933H79.8414V49.8468H79.2003Z" fill="black"/>
<path d="M84.0551 49.9569C83.5253 49.9229 83.3372 49.7868 83.3031 49.4209C83.1066 49.591 83.021 49.6592 82.8928 49.7271C82.6535 49.8632 82.3458 49.9484 82.0723 49.9484C81.4483 49.9484 81.0381 49.5485 81.0381 48.936C81.0381 48.3745 81.3374 48.0002 81.9014 47.8641L83.2431 47.5494V46.8519C83.2431 46.5372 83.004 46.3754 82.5082 46.3754C82.1065 46.3754 81.9185 46.486 81.9185 46.7073C81.9185 46.7497 81.927 46.7839 81.9526 46.8519L81.303 46.988C81.2433 46.8859 81.2348 46.8434 81.2348 46.7497C81.2348 46.2395 81.7988 45.8906 82.6279 45.8906C83.4057 45.8906 83.8927 46.2565 83.8927 46.8519V49.2167C83.9098 49.3188 84.0124 49.3869 84.2091 49.4209L84.0551 49.9569ZM83.2431 48.0853L81.7903 48.4597C81.6962 48.6383 81.6792 48.7234 81.6792 48.8765C81.6792 49.1827 81.8844 49.3784 82.2005 49.3784C82.4911 49.3784 82.6876 49.2848 83.2431 48.885V48.0853Z" fill="black"/>
<path d="M90.1615 49.9569C89.6318 49.9229 89.4436 49.7868 89.4095 49.4209C89.213 49.591 89.1275 49.6592 88.9993 49.7271C88.7599 49.8632 88.4523 49.9484 88.1788 49.9484C87.5548 49.9484 87.1445 49.5485 87.1445 48.936C87.1445 48.3745 87.4438 48.0002 88.0079 47.8641L89.3496 47.5494V46.8519C89.3496 46.5372 89.1104 46.3754 88.6146 46.3754C88.2129 46.3754 88.025 46.486 88.025 46.7073C88.025 46.7497 88.0335 46.7839 88.0591 46.8519L87.4095 46.988C87.3497 46.8859 87.3412 46.8434 87.3412 46.7497C87.3412 46.2395 87.9053 45.8906 88.7343 45.8906C89.5121 45.8906 89.9992 46.2565 89.9992 46.8519V49.2167C90.0162 49.3188 90.1189 49.3869 90.3155 49.4209L90.1615 49.9569ZM89.3496 48.0853L87.8967 48.4597C87.8027 48.6383 87.7856 48.7234 87.7856 48.8765C87.7856 49.1827 87.9908 49.3784 88.307 49.3784C88.5976 49.3784 88.794 49.2848 89.3496 48.885V48.0853Z" fill="black"/>
<path d="M93.042 46.5372C92.8026 46.5372 92.495 46.8858 92.1274 47.5494V49.8462H91.4863V45.9928H92.1274V46.6903C92.6061 46.0777 92.8453 45.8906 93.1358 45.8906C93.2813 45.8906 93.5886 45.9843 93.7595 46.1543C93.7595 46.1543 93.1188 46.5372 93.042 46.5372Z" fill="black"/>
<path d="M95.1526 49.9563C94.7082 49.9563 94.4091 49.6074 94.4091 49.097V46.5281L93.042 46.5366L93.7595 46.1538L94.4091 45.9922V44.8691H95.05V45.9922H96.0757V46.5281H95.05V48.7228L95.0585 48.8929C95.0672 49.012 95.0672 49.0885 95.0758 49.1311C95.0843 49.2587 95.1611 49.3182 95.2979 49.3182C95.4602 49.3182 95.5884 49.2503 95.8619 49.046L96.1269 49.4713C95.674 49.8457 95.4602 49.9563 95.1526 49.9563Z" fill="black"/>
<path d="M98.2292 49.9569C98.0668 49.9569 97.8874 49.9399 97.6907 49.9057C97.3234 49.8377 97.1608 49.7783 96.7764 49.5825L97.0413 49.0466C97.1695 49.1147 97.2634 49.1657 97.3319 49.1997C97.6054 49.3273 97.9472 49.4124 98.2207 49.4124C98.6138 49.4124 98.9044 49.1997 98.9044 48.902C98.9044 48.8083 98.8703 48.6979 98.8276 48.6383C98.6738 48.4172 98.4942 48.3066 97.8019 48.0259C97.0499 47.711 96.7934 47.4473 96.7934 46.9795C96.7934 46.3074 97.3575 45.8906 98.2635 45.8906C98.4259 45.8906 98.5968 45.8991 98.7591 45.9331C99.0497 45.9843 99.1864 46.0437 99.5113 46.2223L99.195 46.7412C98.9473 46.5882 98.8361 46.5372 98.6394 46.486C98.4856 46.4435 98.3403 46.4181 98.1951 46.4181C97.7592 46.4181 97.4772 46.6136 97.4772 46.9028C97.4772 46.9965 97.5113 47.0816 97.5713 47.1411C97.7251 47.2942 97.8275 47.3538 98.5283 47.643C99.3488 47.9832 99.5796 48.2469 99.5796 48.851C99.5796 49.54 99.0753 49.9569 98.2292 49.9569Z" fill="black"/>
<path d="M32.8188 22.7852V38.2497H25.8756V30.5174L23.3818 22.7852H32.8188Z" fill="black"/>
<path d="M25.8753 38.2487V41.5775L7.29073 44.7419L0.318359 29.8592L5.83605 18.545L21.5326 17.0469L23.3816 22.7842H14.6496V38.2487H25.8753Z" fill="black"/>
<path d="M100.269 37.0137L99.8732 38.45C99.8732 38.45 97.6397 38.2393 97.6397 36.8881V31.5489L93.5437 32.1037L93.3242 30.6133C93.3242 30.6133 95.5868 30.2422 96.523 30.2422C97.7368 30.2422 99.0886 30.6501 99.2808 31.953C99.3352 32.3086 99.3352 32.7184 99.3352 33.2172V36.7489L100.269 37.0137Z" fill="black"/>
<path d="M94.2014 36.8885H97.2514C97.2514 36.8885 97.1368 38.5259 95.0004 38.5259C93.5632 38.5259 92.8271 37.6035 92.8271 35.9839C92.8271 33.391 96.1807 33.824 96.1807 33.824L94.2014 36.8885Z" fill="black"/>
<path d="M90.8195 32.757V38.2488H88.9861L88.9997 31.8871H85.4844C85.4844 31.8871 86.0962 30.2285 88.3122 30.2285C89.7999 30.2285 90.8195 31.3613 90.8195 32.757Z" fill="black"/>
<path d="M83.0827 30.3145C83.0827 30.3145 85.4832 30.6411 85.4832 31.886V38.2478H83.6207V32.0156L82.6865 31.7507L83.0827 30.3145Z" fill="black"/>
<path d="M76.1829 37.0503H81.2015C81.2015 37.0503 81.1005 38.5252 78.0455 38.5252C75.2138 38.5252 73.9902 37.4988 73.9902 34.3633C73.9902 31.9006 75.173 30.2285 78.1134 30.2285C80.2226 30.2285 81.3608 31.0481 81.3608 32.7686C81.3608 35.9581 77.8318 34.8775 77.8318 34.8775L80.2518 31.6764H76.1829V37.0503Z" fill="black"/>
<path d="M72.2943 38.0303L70.4551 38.4924C70.4551 38.4924 70.2104 37.868 70.1366 36.8821C70.123 36.7062 70.1152 36.5187 70.1152 36.3215V26.6504H72.0322V36.308C72.0322 37.2629 72.2943 38.0303 72.2943 38.0303Z" fill="black"/>
<path d="M67.8624 30.5176C69.1364 30.5176 70.1153 31.6678 70.1153 31.6678V32.151H66.3281V36.918H69.6297C69.6297 36.918 69.4996 38.5243 67.5963 38.5243C65.3492 38.5243 64.4131 37.1151 64.4131 34.3895C64.4131 31.8205 65.5395 30.5176 67.8624 30.5176Z" fill="black"/>
<path d="M58.9053 30.2285C61.8749 30.2285 62.7702 31.918 62.7702 34.3575C62.7702 37.4968 61.8574 38.5252 58.9053 38.5252C55.8853 38.5252 54.7607 37.4988 54.7607 34.3633C54.7607 31.9006 55.8814 30.2285 58.9053 30.2285ZM60.8261 37.0503V31.6764H56.9534V37.0503H60.8261Z" fill="black"/>
<path d="M52.6763 32.757V38.2488H50.8429V31.862H47.4131L47.4092 31.8542C47.4441 31.7324 47.9258 30.2285 50.1535 30.2285C51.6431 30.2285 52.6763 31.3613 52.6763 32.757Z" fill="black"/>
<path d="M47.4095 31.8542L47.4134 31.862C47.5183 32.1403 47.5765 32.4419 47.5765 32.757V38.2488H45.7567V31.862H42.4473C42.4473 31.862 43.1717 30.2285 45.0808 30.2285C46.1354 30.2285 47.0502 30.9032 47.4095 31.8542Z" fill="black"/>
<path d="M42.4471 31.8609V38.2478H40.5865V32.0156L39.6523 31.7507L40.0485 30.3145C40.0485 30.3145 42.4471 30.616 42.4471 31.8609Z" fill="black"/>
</g>
</g>
<defs>
<clipPath id="clip0_1020_2438">
<rect width="100" height="70" fill="white"/>
</clipPath>
<clipPath id="clip1_1020_2438">
<rect width="100" height="35" fill="white" transform="translate(0.269531 17)"/>
</clipPath>
</defs>
</svg>
