<svg width="139" height="70" viewBox="0 0 139 70" fill="none" xmlns="http://www.w3.org/2000/svg">
<g clip-path="url(#clip0_1020_2648)">
<g clip-path="url(#clip1_1020_2648)">
<path d="M139 26H18.5664V28.7144H139V26Z" fill="black"/>
<path d="M136.863 42.287C137.081 42.4452 137.367 42.5244 137.721 42.5244C138.161 42.5244 138.485 42.3902 138.691 42.1218C138.897 41.8537 139 41.4238 139 40.8323V40.3508H138.418C138.418 40.4102 138.421 40.4896 138.426 40.5879C138.43 40.6866 138.433 40.7589 138.433 40.8045C138.433 41.1074 138.411 41.3194 138.367 41.4408C138.324 41.5625 138.251 41.6233 138.149 41.6233C138.067 41.6233 138.009 41.6004 137.975 41.5544C137.941 41.5085 137.924 41.4123 137.924 41.2655V37.1248C137.924 36.3406 137.732 35.7551 137.347 35.3674C136.961 34.9798 136.376 34.7861 135.592 34.7861C134.889 34.7861 134.316 34.9696 133.873 35.3364C133.43 35.7032 133.208 36.1687 133.208 36.7328C133.208 37.063 133.302 37.322 133.488 37.5101C133.674 37.6981 133.928 37.792 134.247 37.792C134.514 37.792 134.727 37.7207 134.887 37.5789C135.047 37.4367 135.126 37.2486 135.126 37.0146C135.126 36.7626 135.066 36.5699 134.945 36.4368C134.824 36.304 134.647 36.2373 134.415 36.2373C134.337 36.2373 134.278 36.2398 134.236 36.2443C134.195 36.2491 134.155 36.2558 134.116 36.2652C134.199 36.0541 134.337 35.889 134.531 35.7696C134.724 35.6505 134.952 35.5909 135.214 35.5909C135.577 35.5909 135.864 35.6998 136.075 35.9177C136.286 36.1354 136.391 36.4299 136.391 36.8015C136.391 37.104 136.304 37.3679 136.129 37.5925C135.955 37.8171 135.657 38.0419 135.235 38.2666C135.143 38.3125 135 38.3813 134.807 38.4731C134.265 38.7251 133.86 38.9661 133.593 39.1952C133.4 39.3648 133.254 39.5724 133.157 39.8176C133.06 40.063 133.012 40.3438 133.012 40.6602C133.012 41.238 133.165 41.6931 133.47 42.0255C133.775 42.3579 134.189 42.5244 134.713 42.5244C135.081 42.5244 135.398 42.4473 135.664 42.2939C135.931 42.1403 136.173 41.8962 136.391 41.5613C136.488 41.8868 136.645 42.1287 136.863 42.287ZM136.318 39.7178C136.318 40.259 136.244 40.6546 136.097 40.9043C135.949 41.1543 135.715 41.2794 135.395 41.2794C135.177 41.2794 134.992 41.2047 134.84 41.0559C134.687 40.9068 134.611 40.7246 134.611 40.509C134.611 40.1053 134.923 39.6559 135.548 39.1607C135.887 38.8949 136.144 38.6724 136.318 38.4935V39.7178ZM128.958 37.6888C128.958 37.1203 129.042 36.6994 129.209 36.4266C129.376 36.1539 129.632 36.0173 129.976 36.0173C130.174 36.0173 130.326 36.084 130.43 36.2168C130.534 36.3499 130.586 36.5495 130.586 36.8151V40.8459C130.586 41.1119 130.545 41.2815 130.463 41.3549C130.38 41.4282 130.213 41.465 129.961 41.465V42.3109H132.89V41.465C132.599 41.465 132.41 41.4296 132.323 41.3584C132.236 41.2874 132.192 41.1166 132.192 40.8459V37.0146C132.192 36.2216 132.071 35.6518 131.829 35.3056C131.587 34.9592 131.192 34.7861 130.644 34.7861C130.29 34.7861 129.971 34.8756 129.685 35.0546C129.399 35.2333 129.133 35.5107 128.886 35.8865V34.9993H126.655V35.859C126.946 35.859 127.132 35.8935 127.214 35.9623C127.297 36.0311 127.338 36.1987 127.338 36.4643V40.8459C127.338 41.1166 127.296 41.2874 127.211 41.3584C127.126 41.4296 126.941 41.465 126.655 41.465V42.3109H129.583V41.465C129.322 41.4561 129.152 41.4167 129.075 41.3479C128.997 41.2794 128.958 41.1119 128.958 40.8459V37.6888ZM120.767 40.33C120.593 40.5869 120.506 40.8758 120.506 41.1967C120.506 41.504 120.586 41.7676 120.746 41.9876C120.906 42.2077 121.153 42.3958 121.487 42.5519C121.109 42.6937 120.829 42.8544 120.648 43.0333C120.466 43.2122 120.375 43.4138 120.375 43.6386C120.375 44.0466 120.626 44.3757 121.127 44.6257C121.629 44.8754 122.305 45.0004 123.158 45.0004C124.19 45.0004 124.978 44.8125 125.523 44.4365C126.068 44.0604 126.341 43.5169 126.341 42.8063C126.341 42.4761 126.278 42.1885 126.152 41.9431C126.026 41.6977 125.839 41.5019 125.592 41.3549C125.404 41.2405 124.88 41.1553 124.023 41.1004C123.751 41.0822 123.543 41.0684 123.398 41.059C122.661 41.0041 122.189 40.9401 121.981 40.8664C121.773 40.7933 121.668 40.6787 121.668 40.5226C121.668 40.4492 121.7 40.3692 121.763 40.2819C121.826 40.1947 121.928 40.0918 122.068 39.9722C122.252 40.0411 122.43 40.0938 122.602 40.1307C122.774 40.1673 122.938 40.1857 123.093 40.1857C123.853 40.1857 124.428 39.9448 124.818 39.4633C125.208 38.982 125.404 38.2735 125.404 37.3379C125.404 36.843 125.325 36.4198 125.167 36.069C125.01 35.7182 124.776 35.4418 124.466 35.2402C124.582 35.0156 124.712 34.8469 124.855 34.7347C124.998 34.6224 125.149 34.5661 125.309 34.5661C125.348 34.5661 125.404 34.573 125.476 34.5867C125.486 34.5867 125.495 34.589 125.505 34.5936C125.379 34.6258 125.284 34.6842 125.218 34.7688C125.153 34.854 125.12 34.9582 125.12 35.082C125.12 35.2471 125.172 35.3776 125.276 35.4739C125.38 35.5701 125.522 35.6184 125.701 35.6184C125.905 35.6184 126.067 35.5566 126.188 35.4328C126.309 35.3091 126.37 35.1414 126.37 34.9304C126.37 34.6418 126.271 34.4124 126.072 34.2428C125.873 34.0731 125.609 33.9883 125.28 33.9883C125.014 33.9883 124.754 34.0662 124.502 34.2222C124.25 34.378 124.011 34.6096 123.783 34.9169C123.638 34.871 123.496 34.8377 123.358 34.8171C123.22 34.7965 123.078 34.7861 122.933 34.7861C122.264 34.7861 121.728 35.0441 121.323 35.5601C120.919 36.076 120.717 36.7671 120.717 37.6339C120.717 38.106 120.783 38.5072 120.916 38.8374C121.049 39.1677 121.259 39.4427 121.545 39.6628C121.201 39.8509 120.942 40.0734 120.767 40.33ZM124.524 42.937C124.621 42.9416 124.679 42.9437 124.699 42.9437C124.95 42.9714 125.121 43.017 125.211 43.0814C125.3 43.1457 125.345 43.251 125.345 43.3978C125.345 43.6546 125.179 43.8574 124.848 44.0064C124.516 44.1556 124.062 44.2301 123.485 44.2301C122.87 44.2301 122.397 44.1532 122.068 43.9995C121.739 43.846 121.574 43.6271 121.574 43.3428C121.574 43.2097 121.607 43.0928 121.672 42.992C121.737 42.8912 121.836 42.8039 121.966 42.7306C122.853 42.8223 123.705 42.8912 124.524 42.937ZM122.468 38.9303C122.351 38.6668 122.293 38.1887 122.293 37.4962C122.293 36.7992 122.351 36.3166 122.468 36.0481C122.584 35.7801 122.783 35.6459 123.064 35.6459C123.34 35.6459 123.536 35.7801 123.652 36.0481C123.769 36.3166 123.827 36.7992 123.827 37.4962C123.827 38.1839 123.769 38.6612 123.652 38.9268C123.536 39.1928 123.34 39.3259 123.064 39.3259C122.783 39.3259 122.584 39.1941 122.468 38.9303ZM118.098 42.287C118.316 42.4452 118.602 42.5244 118.956 42.5244C119.397 42.5244 119.72 42.3902 119.926 42.1218C120.132 41.8537 120.235 41.4238 120.235 40.8323V40.3508H119.653C119.653 40.4102 119.655 40.4896 119.661 40.5879C119.665 40.6866 119.668 40.7589 119.668 40.8045C119.668 41.1074 119.646 41.3194 119.602 41.4408C119.559 41.5625 119.486 41.6233 119.384 41.6233C119.302 41.6233 119.244 41.6004 119.21 41.5544C119.176 41.5085 119.159 41.4123 119.159 41.2655V37.1248C119.159 36.3406 118.967 35.7551 118.582 35.3674C118.196 34.9798 117.611 34.7861 116.827 34.7861C116.124 34.7861 115.552 34.9696 115.108 35.3364C114.665 35.7032 114.443 36.1687 114.443 36.7328C114.443 37.063 114.537 37.322 114.723 37.5101C114.909 37.6981 115.163 37.792 115.482 37.792C115.749 37.792 115.962 37.7207 116.122 37.5789C116.282 37.4367 116.362 37.2486 116.362 37.0146C116.362 36.7626 116.301 36.5699 116.18 36.4368C116.059 36.304 115.882 36.2373 115.65 36.2373C115.572 36.2373 115.513 36.2398 115.471 36.2443C115.43 36.2491 115.39 36.2558 115.351 36.2652C115.434 36.0541 115.572 35.889 115.766 35.7696C115.96 35.6505 116.187 35.5909 116.449 35.5909C116.812 35.5909 117.099 35.6998 117.31 35.9177C117.521 36.1354 117.626 36.4299 117.626 36.8015C117.626 37.104 117.539 37.3679 117.364 37.5925C117.19 37.8171 116.892 38.0419 116.47 38.2666C116.379 38.3125 116.235 38.3813 116.042 38.4731C115.5 38.7251 115.095 38.9661 114.828 39.1952C114.635 39.3648 114.489 39.5724 114.392 39.8176C114.295 40.063 114.247 40.3438 114.247 40.6602C114.247 41.238 114.4 41.6931 114.705 42.0255C115.01 42.3579 115.424 42.5244 115.948 42.5244C116.316 42.5244 116.633 42.4473 116.9 42.2939C117.166 42.1403 117.408 41.8962 117.626 41.5613C117.723 41.8868 117.88 42.1287 118.098 42.287ZM117.553 39.7178C117.553 40.259 117.479 40.6546 117.332 40.9043C117.184 41.1543 116.95 41.2794 116.631 41.2794C116.412 41.2794 116.227 41.2047 116.074 41.0559C115.922 40.9068 115.846 40.7246 115.846 40.509C115.846 40.1053 116.158 39.6559 116.783 39.1607C117.122 38.8949 117.379 38.6724 117.553 38.4935V39.7178ZM109.601 35.0991C109.342 34.8904 109.031 34.7861 108.668 34.7861C108.328 34.7861 108.018 34.8769 107.737 35.0579C107.456 35.2391 107.195 35.5151 106.953 35.8865V34.9993H104.707V35.859C104.998 35.859 105.184 35.8935 105.267 35.9623C105.349 36.0311 105.39 36.1987 105.39 36.4643V40.8459C105.39 41.1166 105.348 41.2874 105.263 41.3584C105.179 41.4296 104.993 41.465 104.707 41.465V42.3109H107.563V41.465C107.33 41.4605 107.175 41.4238 107.098 41.3549C107.02 41.2861 106.982 41.1166 106.982 40.8459V37.6888C106.982 37.1339 107.064 36.7167 107.229 36.4368C107.393 36.1573 107.64 36.0173 107.97 36.0173C108.183 36.0173 108.343 36.084 108.449 36.2168C108.556 36.3499 108.61 36.5495 108.61 36.8151V40.8459C108.61 41.1028 108.569 41.269 108.49 41.3448C108.41 41.4202 108.251 41.4605 108.014 41.465V42.3109H110.782L110.775 41.465C110.537 41.4605 110.38 41.4227 110.302 41.3515C110.225 41.2805 110.186 41.1119 110.186 40.8459V37.6888C110.186 37.1339 110.267 36.7167 110.43 36.4368C110.592 36.1573 110.838 36.0173 111.167 36.0173C111.38 36.0173 111.54 36.084 111.647 36.2168C111.753 36.3499 111.807 36.5495 111.807 36.8151V40.8459C111.807 41.1074 111.77 41.2736 111.698 41.3448C111.625 41.4157 111.47 41.4561 111.233 41.465L111.225 42.3109H114.081V41.465C113.79 41.465 113.602 41.4296 113.514 41.3584C113.427 41.2874 113.383 41.1166 113.383 40.8459V37.0146C113.383 36.2261 113.265 35.6574 113.028 35.3091C112.79 34.9604 112.403 34.7861 111.865 34.7861C111.516 34.7861 111.196 34.8835 110.905 35.0785C110.615 35.2735 110.356 35.5657 110.128 35.9554C110.036 35.5934 109.86 35.3079 109.601 35.0991ZM104.236 41.6817C104.604 41.1199 104.788 40.1099 104.788 38.6518C104.788 37.1936 104.603 36.1848 104.232 35.6253C103.861 35.066 103.223 34.7861 102.317 34.7861C101.421 34.7861 100.788 35.066 100.417 35.6253C100.047 36.1848 99.8615 37.1936 99.8615 38.6518C99.8615 40.1192 100.045 41.1313 100.414 41.6885C100.782 42.2457 101.416 42.5244 102.317 42.5244C103.228 42.5244 103.868 42.2434 104.236 41.6817ZM101.714 41.0659C101.603 40.7541 101.547 39.9495 101.547 38.6518C101.547 37.3585 101.603 36.5561 101.714 36.2443C101.826 35.9327 102.032 35.7767 102.332 35.7767C102.623 35.7767 102.822 35.9327 102.931 36.2443C103.04 36.5561 103.095 37.3585 103.095 38.6518C103.095 39.9495 103.042 40.7541 102.935 41.0659C102.829 41.3779 102.627 41.5339 102.332 41.5339C102.032 41.5339 101.826 41.3779 101.714 41.0659ZM94.7076 32.5086H95.2442C95.8536 32.5086 96.2694 32.6395 96.4912 32.9014C96.7128 33.1636 96.8237 33.6327 96.8237 34.3087C96.8237 34.9742 96.7004 35.4499 96.4535 35.7353C96.2064 36.021 95.7933 36.1637 95.214 36.1637H94.7076V32.5086ZM94.7076 37.3351C94.7478 37.33 94.7882 37.3259 94.8284 37.3233C94.8689 37.3206 94.9269 37.3193 95.0023 37.3193C95.4911 37.3193 95.8387 37.4453 96.0454 37.6968C96.2518 37.948 96.3677 38.4016 96.3927 39.0565C96.3979 39.2085 96.4029 39.4312 96.4081 39.7247C96.4279 40.752 96.5413 41.4594 96.7483 41.8473C96.884 42.0989 97.059 42.2821 97.2731 42.3974C97.4875 42.5127 97.7608 42.5705 98.0932 42.5705C98.6423 42.5705 99.0405 42.4 99.2874 42.0594C99.5342 41.7188 99.6575 41.1634 99.6575 40.3929V39.9291H99.038V40.6836C99.038 40.8777 99.0028 41.0338 98.9321 41.1516C98.8616 41.2695 98.7683 41.3284 98.6525 41.3284C98.4207 41.3284 98.2795 40.9118 98.2295 40.0785C98.2193 39.8848 98.2116 39.7405 98.2066 39.6463C98.1411 38.7185 97.995 38.074 97.7685 37.7123C97.5414 37.3508 97.1661 37.1123 96.6423 36.997C97.2772 36.8922 97.7657 36.6028 98.1087 36.1285C98.451 35.6542 98.6222 35.0319 98.6222 34.2614C98.6222 33.2974 98.3577 32.5845 97.8287 32.1233C97.2998 31.6621 96.481 31.4316 95.3725 31.4316H92.0474V32.5086C92.3347 32.5086 92.5375 32.5662 92.6559 32.6814C92.7742 32.7966 92.8334 33.0009 92.8334 33.2944V40.4402C92.8334 40.7336 92.7742 40.9392 92.6559 41.0572C92.5375 41.1751 92.3347 41.2341 92.0474 41.2341V42.3109H95.5541V41.2341H95.4936C95.2013 41.2341 94.9974 41.1751 94.8815 41.0572C94.7657 40.9392 94.7076 40.7336 94.7076 40.4402V37.3351ZM92.1333 37.9571H89.8303V39.1815H92.1333V37.9571ZM87.6988 42.287C87.9168 42.4452 88.2024 42.5244 88.5561 42.5244C88.997 42.5244 89.3203 42.3902 89.5262 42.1218C89.7321 41.8537 89.835 41.4238 89.835 40.8323V40.3508H89.2537C89.2537 40.4102 89.2562 40.4896 89.2609 40.5879C89.2656 40.6866 89.2683 40.7589 89.2683 40.8045C89.2683 41.1074 89.2466 41.3194 89.2028 41.4408C89.1591 41.5625 89.0864 41.6233 88.9848 41.6233C88.9023 41.6233 88.8445 41.6004 88.8106 41.5544C88.7765 41.5085 88.7595 41.4123 88.7595 41.2655V37.1248C88.7595 36.3406 88.5671 35.7551 88.1818 35.3674C87.7968 34.9798 87.2119 34.7861 86.427 34.7861C85.7247 34.7861 85.1517 34.9696 84.7083 35.3364C84.2652 35.7032 84.0437 36.1687 84.0437 36.7328C84.0437 37.063 84.137 37.322 84.3236 37.5101C84.5096 37.6981 84.7631 37.792 85.0826 37.792C85.349 37.792 85.5623 37.7207 85.7222 37.5789C85.8821 37.4367 85.9619 37.2486 85.9619 37.0146C85.9619 36.7626 85.9014 36.5699 85.7806 36.4368C85.6592 36.304 85.4822 36.2373 85.2497 36.2373C85.1724 36.2373 85.1129 36.2398 85.0719 36.2443C85.0306 36.2491 84.9904 36.2558 84.9519 36.2652C85.0342 36.0541 85.1723 35.889 85.3661 35.7696C85.5598 35.6505 85.7874 35.5909 86.0494 35.5909C86.4125 35.5909 86.6995 35.6998 86.9103 35.9177C87.1211 36.1354 87.2265 36.4299 87.2265 36.8015C87.2265 37.104 87.139 37.3679 86.9645 37.5925C86.7906 37.8171 86.4923 38.0419 86.0709 38.2666C85.979 38.3125 85.8359 38.3813 85.6424 38.4731C85.0997 38.7251 84.6951 38.9661 84.429 39.1952C84.235 39.3648 84.0897 39.5724 83.9928 39.8176C83.8956 40.063 83.8475 40.3438 83.8475 40.6602C83.8475 41.238 83.9999 41.6931 84.3051 42.0255C84.6104 42.3579 85.0246 42.5244 85.5477 42.5244C85.916 42.5244 86.2333 42.4473 86.4997 42.2939C86.7661 42.1403 87.0083 41.8962 87.2265 41.5613C87.3231 41.8868 87.4805 42.1287 87.6988 42.287ZM87.1539 39.7178C87.1539 40.259 87.0798 40.6546 86.932 40.9043C86.7843 41.1543 86.5506 41.2794 86.2308 41.2794C86.0128 41.2794 85.8276 41.2047 85.6752 41.0559C85.5224 40.9068 85.4459 40.7246 85.4459 40.509C85.4459 40.1053 85.7586 39.6559 86.3835 39.1607C86.7226 38.8949 86.9794 38.6724 87.1539 38.4935V39.7178ZM81.4542 34.112C81.6361 34.2817 81.8624 34.3666 82.1337 34.3666C82.4001 34.3666 82.6203 34.2831 82.7948 34.1156C82.9693 33.9483 83.0565 33.7361 83.0565 33.4793C83.0565 33.2362 82.9657 33.0276 82.7841 32.8535C82.6024 32.679 82.3853 32.5919 82.1337 32.5919C81.8819 32.5919 81.6601 32.6814 81.4688 32.8601C81.2773 33.0391 81.1818 33.2453 81.1818 33.4793C81.1818 33.7317 81.2726 33.9424 81.4542 34.112ZM83.0273 34.9993H80.7167V35.859C81.0073 35.859 81.1939 35.8935 81.2762 35.9623C81.3585 36.0311 81.4 36.1987 81.4 36.4643V40.8459C81.4 41.1166 81.3574 41.2874 81.2726 41.3584C81.1876 41.4296 81.0026 41.465 80.7167 41.465V42.3109H83.7104V41.465C83.4247 41.465 83.2393 41.4306 83.1548 41.3617C83.07 41.293 83.0273 41.1212 83.0273 40.8459V34.9993ZM79.6502 32.4063H77.3464V33.2662C77.6371 33.2662 77.8237 33.3005 77.9059 33.3691C77.9885 33.438 78.0298 33.6055 78.0298 33.8714V40.8459C78.0298 41.1166 77.9871 41.2874 77.9026 41.3584C77.8179 41.4296 77.6324 41.465 77.3464 41.465V42.3109H80.3402V41.465C80.0545 41.465 79.8679 41.4306 79.7809 41.3617C79.6934 41.293 79.6502 41.1212 79.6502 40.8459V32.4063ZM74.6229 34.112C74.8049 34.2817 75.0311 34.3666 75.3024 34.3666C75.5688 34.3666 75.7896 34.2831 75.9641 34.1156C76.1385 33.9483 76.2255 33.7361 76.2255 33.4793C76.2255 33.2362 76.1347 33.0276 75.953 32.8535C75.7711 32.679 75.5545 32.5919 75.3024 32.5919C75.0506 32.5919 74.8291 32.6814 74.6378 32.8601C74.4462 33.0391 74.3508 33.2453 74.3508 33.4793C74.3508 33.7317 74.4416 33.9424 74.6229 34.112ZM76.1963 34.9993H73.8857V35.859C74.1763 35.859 74.3626 35.8935 74.4452 35.9623C74.5274 36.0311 74.5687 36.1987 74.5687 36.4643V40.8459C74.5687 41.1166 74.5261 41.2874 74.4416 41.3584C74.3568 41.4296 74.1713 41.465 73.8857 41.465V42.3109H76.8797V41.465C76.5935 41.465 76.4082 41.4306 76.3235 41.3617C76.2387 41.293 76.1963 41.1212 76.1963 40.8459V34.9993ZM69.015 35.0991C68.7557 34.8904 68.4445 34.7861 68.0813 34.7861C67.742 34.7861 67.432 34.8769 67.151 35.0579C66.87 35.2391 66.6085 35.5151 66.3665 35.8865V34.9993H64.1209V35.859C64.4118 35.859 64.598 35.8935 64.6805 35.9623C64.7628 36.0311 64.804 36.1987 64.804 36.4643V40.8459C64.804 41.1166 64.7614 41.2874 64.6769 41.3584C64.592 41.4296 64.4067 41.465 64.1209 41.465V42.3109H66.9765V41.465C66.7441 41.4605 66.589 41.4238 66.5115 41.3549C66.434 41.2861 66.3955 41.1166 66.3955 40.8459V37.6888C66.3955 37.1339 66.4778 36.7167 66.6424 36.4368C66.8072 36.1573 67.0541 36.0173 67.3835 36.0173C67.5968 36.0173 67.7565 36.084 67.8632 36.2168C67.9697 36.3499 68.023 36.5495 68.023 36.8151V40.8459C68.023 41.1028 67.9832 41.269 67.9031 41.3448C67.8232 41.4202 67.6645 41.4605 67.4271 41.465V42.3109H70.1956L70.1885 41.465C69.9512 41.4605 69.7935 41.4227 69.7161 41.3515C69.6386 41.2805 69.5999 41.1119 69.5999 40.8459V37.6888C69.5999 37.1339 69.6808 36.7167 69.8432 36.4368C70.0054 36.1573 70.2512 36.0173 70.5809 36.0173C70.7939 36.0173 70.9538 36.084 71.0603 36.2168C71.1668 36.3499 71.2205 36.5495 71.2205 36.8151V40.8459C71.2205 41.1074 71.1842 41.2736 71.1112 41.3448C71.0386 41.4157 70.8836 41.4561 70.6464 41.465L70.639 42.3109H73.4946V41.465C73.2042 41.465 73.0149 41.4296 72.9279 41.3584C72.8409 41.2874 72.7972 41.1166 72.7972 40.8459V37.0146C72.7972 36.2261 72.6783 35.6574 72.4411 35.3091C72.2036 34.9604 71.8161 34.7861 71.2786 34.7861C70.9296 34.7861 70.6101 34.8835 70.3192 35.0785C70.0286 35.2735 69.7693 35.5657 69.5416 35.9554C69.4498 35.5934 69.2739 35.3079 69.015 35.0991ZM63.7277 42.3109V38.1447H62.8586C62.8333 39.3709 62.6556 40.1926 62.3257 40.609C61.9957 41.0257 61.3571 41.2341 60.4102 41.2341H59.9038V37.2406H60.1002C60.5337 37.2406 60.8408 37.3562 61.0223 37.5866C61.2035 37.8174 61.2943 38.2104 61.2943 38.7656V38.8364H62.118V34.5679H61.2943V34.6466C61.2943 35.202 61.2049 35.594 61.026 35.8218C60.847 36.0498 60.5387 36.1637 60.1002 36.1637H59.9038V32.5086H60.2589C61.1962 32.5086 61.8309 32.6841 62.1635 33.0351C62.4959 33.3863 62.6822 34.0467 62.7225 35.0161H63.5992V31.4316H57.2438V32.5086C57.531 32.5086 57.7335 32.5662 57.8518 32.6814C57.9702 32.7966 58.0298 33.0009 58.0298 33.2944V40.4402C58.0298 40.7336 57.9702 40.9392 57.8518 41.0572C57.7335 41.1751 57.531 41.2341 57.2438 41.2341V42.3109H63.7277ZM53.2443 37.0696C53.2443 36.5745 53.3034 36.2158 53.4223 35.9932C53.5409 35.7711 53.7286 35.6597 53.9854 35.6597C54.2568 35.6597 54.4493 35.7617 54.5631 35.9658C54.677 36.1698 54.7338 36.5287 54.7338 37.0421V37.9157H53.2443V37.0696ZM56.2306 38.7895V37.9433C56.2306 37.3839 56.2088 36.9701 56.1652 36.7018C56.1219 36.4334 56.0466 36.1939 55.9401 35.9829C55.7366 35.5934 55.4751 35.2962 55.1552 35.0921C54.8357 34.8883 54.465 34.7861 54.0435 34.7861C53.2005 34.7861 52.5758 35.105 52.1687 35.7422C51.7618 36.3798 51.5583 37.3679 51.5583 38.7068C51.5583 40.0918 51.7519 41.0718 52.1397 41.6473C52.5272 42.2227 53.1741 42.5105 54.0798 42.5105C54.7967 42.5105 55.3345 42.2834 55.693 41.8295C56.0514 41.3757 56.2306 40.6991 56.2306 39.8005C56.2306 39.773 56.2284 39.7226 56.2236 39.6492C56.2184 39.5758 56.2163 39.5185 56.2163 39.4772H55.1915C55.1915 40.2155 55.1178 40.7475 54.9701 41.073C54.8221 41.3986 54.5837 41.5613 54.2543 41.5613C53.891 41.5613 53.6317 41.3872 53.4767 41.0385C53.3217 40.6902 53.2443 40.0755 53.2443 39.1952V38.7895H56.2306ZM47.6535 37.6888C47.6535 37.1203 47.7373 36.6994 47.9043 36.4266C48.0714 36.1539 48.3271 36.0173 48.6709 36.0173C48.8695 36.0173 49.0209 36.084 49.1252 36.2168C49.2292 36.3499 49.2813 36.5495 49.2813 36.8151V40.8459C49.2813 41.1119 49.2402 41.2815 49.1579 41.3549C49.0752 41.4282 48.9082 41.465 48.6565 41.465V42.3109H51.5849V41.465C51.294 41.465 51.1052 41.4296 51.0181 41.3584C50.9308 41.2874 50.8874 41.1166 50.8874 40.8459V37.0146C50.8874 36.2216 50.7661 35.6518 50.5238 35.3056C50.2817 34.9592 49.8869 34.7861 49.3393 34.7861C48.9856 34.7861 48.6661 34.8756 48.3803 35.0546C48.0942 35.2333 47.828 35.5107 47.5811 35.8865V34.9993H45.3502V35.859C45.6407 35.859 45.8273 35.8935 45.9096 35.9623C45.9919 36.0311 46.0333 36.1987 46.0333 36.4643V40.8459C46.0333 41.1166 45.9908 41.2874 45.906 41.3584C45.8211 41.4296 45.6361 41.465 45.3502 41.465V42.3109H48.2786V41.465C48.017 41.4561 47.8474 41.4167 47.7699 41.3479C47.6924 41.2794 47.6535 41.1119 47.6535 40.8459V37.6888ZM44.759 41.6817C45.127 41.1199 45.3113 40.1099 45.3113 38.6518C45.3113 37.1936 45.1259 36.1848 44.7554 35.6253C44.3848 35.066 43.7464 34.7861 42.8407 34.7861C41.9442 34.7861 41.311 35.066 40.9404 35.6253C40.5698 36.1848 40.3846 37.1936 40.3846 38.6518C40.3846 40.1192 40.5687 41.1313 40.9367 41.6885C41.3048 42.2457 41.9397 42.5244 42.8407 42.5244C43.7513 42.5244 44.3907 42.2434 44.759 41.6817ZM42.2376 41.0659C42.126 40.7541 42.0704 39.9495 42.0704 38.6518C42.0704 37.3585 42.126 36.5561 42.2376 36.2443C42.3489 35.9327 42.5546 35.7767 42.855 35.7767C43.1459 35.7767 43.3457 35.9327 43.4547 36.2443C43.5636 36.5561 43.6182 37.3585 43.6182 38.6518C43.6182 39.9495 43.5647 40.7541 43.4584 41.0659C43.3516 41.3779 43.1506 41.5339 42.855 41.5339C42.5546 41.5339 42.3489 41.3779 42.2376 41.0659ZM38.1255 34.112C38.3073 34.2817 38.5337 34.3666 38.805 34.3666C39.0714 34.3666 39.292 34.2831 39.4665 34.1156C39.6407 33.9483 39.7279 33.7361 39.7279 33.4793C39.7279 33.2362 39.637 33.0276 39.4555 32.8535C39.2737 32.679 39.057 32.5919 38.805 32.5919C38.5531 32.5919 38.3317 32.6814 38.1402 32.8601C37.9488 33.0391 37.8531 33.2453 37.8531 33.4793C37.8531 33.7317 37.9442 33.9424 38.1255 34.112ZM39.6989 34.9993H37.3881V35.859C37.6789 35.859 37.8652 35.8935 37.9477 35.9623C38.03 36.0311 38.0712 36.1987 38.0712 36.4643V40.8459C38.0712 41.1166 38.0286 41.2874 37.9442 41.3584C37.8592 41.4296 37.6739 41.465 37.3881 41.465V42.3109H40.3818V41.465C40.0961 41.465 39.9106 41.4306 39.8261 41.3617C39.7413 41.293 39.6989 41.1212 39.6989 40.8459V34.9993ZM31.5313 40.33C31.357 40.5869 31.2699 40.8758 31.2699 41.1967C31.2699 41.504 31.3495 41.7676 31.5097 41.9876C31.6695 42.2077 31.9164 42.3958 32.2509 42.5519C31.873 42.6937 31.5931 42.8544 31.4113 43.0333C31.2298 43.2122 31.1387 43.4138 31.1387 43.6386C31.1387 44.0466 31.3896 44.3757 31.891 44.6257C32.3923 44.8754 33.0692 45.0004 33.922 45.0004C34.9537 45.0004 35.7423 44.8125 36.2872 44.4365C36.8323 44.0604 37.1049 43.5169 37.1049 42.8063C37.1049 42.4761 37.0418 42.1885 36.9157 41.9431C36.7898 41.6977 36.6032 41.5019 36.3563 41.3549C36.1672 41.2405 35.6442 41.1553 34.7867 41.1004C34.5153 41.0822 34.3072 41.0684 34.1618 41.059C33.4255 41.0041 32.9532 40.9401 32.7449 40.8664C32.5367 40.7933 32.4324 40.6787 32.4324 40.5226C32.4324 40.4492 32.4639 40.3692 32.5268 40.2819C32.5899 40.1947 32.6916 40.0918 32.832 39.9722C33.0159 40.0411 33.1941 40.0938 33.366 40.1307C33.5379 40.1673 33.7016 40.1857 33.8566 40.1857C34.617 40.1857 35.1925 39.9448 35.5824 39.4633C35.9723 38.982 36.1672 38.2735 36.1672 37.3379C36.1672 36.843 36.0887 36.4198 35.9311 36.069C35.7738 35.7182 35.5399 35.4418 35.2299 35.2402C35.3463 35.0156 35.4756 34.8469 35.6189 34.7347C35.7615 34.6224 35.9131 34.5661 36.0729 34.5661C36.1117 34.5661 36.1672 34.573 36.2399 34.5867C36.2495 34.5867 36.2595 34.589 36.269 34.5936C36.143 34.6258 36.0475 34.6842 35.982 34.7688C35.9167 34.854 35.8841 34.9582 35.8841 35.082C35.8841 35.2471 35.9359 35.3776 36.0401 35.4739C36.1444 35.5701 36.2859 35.6184 36.4654 35.6184C36.6688 35.6184 36.8309 35.5566 36.9522 35.4328C37.0733 35.3091 37.1339 35.1414 37.1339 34.9304C37.1339 34.6418 37.0345 34.4124 36.836 34.2428C36.637 34.0731 36.3733 33.9883 36.0438 33.9883C35.7772 33.9883 35.5182 34.0662 35.2662 34.2222C35.0144 34.378 34.7745 34.6096 34.5468 34.9169C34.4016 34.871 34.2599 34.8377 34.1219 34.8171C33.9837 34.7965 33.842 34.7861 33.6968 34.7861C33.0281 34.7861 32.4915 35.0441 32.0871 35.5601C31.6827 36.076 31.4804 36.7671 31.4804 37.6339C31.4804 38.106 31.5469 38.5072 31.6802 38.8374C31.8134 39.1677 32.0229 39.4427 32.3089 39.6628C31.9648 39.8509 31.7058 40.0734 31.5313 40.33ZM35.288 42.937C35.385 42.9416 35.443 42.9437 35.4625 42.9437C35.7144 42.9714 35.8852 43.017 35.9747 43.0814C36.0643 43.1457 36.1092 43.251 36.1092 43.3978C36.1092 43.6546 35.9432 43.8574 35.6115 44.0064C35.2796 44.1556 34.8255 44.2301 34.2489 44.2301C33.6337 44.2301 33.1614 44.1532 32.832 43.9995C32.5025 43.846 32.338 43.6271 32.338 43.3428C32.338 43.2097 32.3706 43.0928 32.4359 42.992C32.5014 42.8912 32.5994 42.8039 32.7303 42.7306C33.6169 42.8223 34.4693 42.8912 35.288 42.937ZM33.2316 38.9303C33.1154 38.6668 33.0574 38.1887 33.0574 37.4962C33.0574 36.7992 33.1154 36.3166 33.2316 36.0481C33.348 35.7801 33.5467 35.6459 33.8276 35.6459C34.1037 35.6459 34.3 35.7801 34.4161 36.0481C34.5324 36.3166 34.5904 36.7992 34.5904 37.4962C34.5904 38.1839 34.5324 38.6612 34.4161 38.9268C34.3 39.1928 34.1037 39.3259 33.8276 39.3259C33.5467 39.3259 33.348 39.1941 33.2316 38.9303ZM28.0516 37.0696C28.0516 36.5745 28.1107 36.2158 28.2296 35.9932C28.3482 35.7711 28.5359 35.6597 28.7927 35.6597C29.0641 35.6597 29.2566 35.7617 29.3704 35.9658C29.4843 36.1698 29.5411 36.5287 29.5411 37.0421V37.9157H28.0516V37.0696ZM31.0381 38.7895V37.9433C31.0381 37.3839 31.0163 36.9701 30.9728 36.7018C30.9292 36.4334 30.8539 36.1939 30.7474 35.9829C30.5439 35.5934 30.2824 35.2962 29.9625 35.0921C29.643 34.8883 29.2724 34.7861 28.8508 34.7861C28.0078 34.7861 27.3831 35.105 26.976 35.7422C26.5691 36.3798 26.3658 37.3679 26.3658 38.7068C26.3658 40.0918 26.5592 41.0718 26.947 41.6473C27.3345 42.2227 27.9814 42.5105 28.8871 42.5105C29.604 42.5105 30.1418 42.2834 30.5005 41.8295C30.8587 41.3757 31.0381 40.6991 31.0381 39.8005C31.0381 39.773 31.0357 39.7226 31.0309 39.6492C31.0258 39.5758 31.0236 39.5185 31.0236 39.4772H29.9988C29.9988 40.2155 29.925 40.7475 29.7774 41.073C29.6293 41.3986 29.391 41.5613 29.0616 41.5613C28.6983 41.5613 28.4391 41.3872 28.284 41.0385C28.129 40.6902 28.0516 40.0755 28.0516 39.1952V38.7895H31.0381ZM21.2264 32.5086H21.7631C22.3726 32.5086 22.7883 32.6395 23.0101 32.9014C23.2317 33.1636 23.3424 33.6327 23.3424 34.3087C23.3424 34.9742 23.219 35.4499 22.972 35.7353C22.7251 36.021 22.312 36.1637 21.7328 36.1637H21.2264V32.5086ZM21.2264 37.3351C21.2668 37.33 21.3071 37.3259 21.3474 37.3233C21.3877 37.3206 21.4458 37.3193 21.5212 37.3193C22.01 37.3193 22.3574 37.4453 22.564 37.6968C22.7705 37.948 22.8864 38.4016 22.9117 39.0565C22.9168 39.2085 22.9219 39.4312 22.927 39.7247C22.9469 40.752 23.0602 41.4594 23.2669 41.8473C23.403 42.0989 23.578 42.2821 23.7921 42.3974C24.0064 42.5127 24.2796 42.5705 24.6122 42.5705C25.1611 42.5705 25.5591 42.4 25.806 42.0594C26.0528 41.7188 26.1763 41.1634 26.1763 40.3929V39.9291H25.5566V40.6836C25.5566 40.8777 25.5214 41.0338 25.451 41.1516C25.3805 41.2695 25.2872 41.3284 25.1713 41.3284C24.9395 41.3284 24.7986 40.9118 24.748 40.0785C24.7379 39.8848 24.7303 39.7405 24.7255 39.6463C24.6598 38.7185 24.5139 38.074 24.2869 37.7123C24.0604 37.3508 23.685 37.1123 23.1612 36.997C23.7958 36.8922 24.2845 36.6028 24.6271 36.1285C24.9699 35.6542 25.1412 35.0319 25.1412 34.2614C25.1412 33.2974 24.8766 32.5845 24.3476 32.1233C23.8187 31.6621 22.9999 31.4316 21.8915 31.4316H18.5664V32.5086C18.8536 32.5086 19.0561 32.5662 19.1746 32.6814C19.293 32.7966 19.3524 33.0009 19.3524 33.2944V40.4402C19.3524 40.7336 19.293 40.9392 19.1746 41.0572C19.0561 41.1751 18.8536 41.2341 18.5664 41.2341V42.3109H22.0727V41.2341H22.0125C21.7202 41.2341 21.5162 41.1751 21.4004 41.0572C21.2842 40.9392 21.2264 40.7336 21.2264 40.4402V37.3351Z" fill="black"/>
<path d="M1.14708 27.0858H16.0579V30.3878C14.8244 30.8447 13.873 30.9346 12.8562 30.9623C11.8231 30.9903 10.2632 30.8674 9.13826 30.5451C8.01266 30.2228 6.51247 29.8971 4.9157 29.8897C3.56729 29.8833 1.69146 30.2389 1.14708 30.3498V27.0858ZM1.14708 41.2001V34.1477L15.5808 41.2001H1.14708ZM17.205 26H0V42.2856H17.205V26Z" fill="black"/>
</g>
</g>
<defs>
<clipPath id="clip0_1020_2648">
<rect width="139" height="70" fill="white"/>
</clipPath>
<clipPath id="clip1_1020_2648">
<rect width="139" height="19" fill="white" transform="translate(0 26)"/>
</clipPath>
</defs>
</svg>
